<?xml version="1.0" encoding="UTF-8"?>
<svg width="80px" height="80px" viewBox="0 0 80 80" version="1.1" xmlns="http://www.w3.org/2000/svg" xmlns:xlink="http://www.w3.org/1999/xlink">
    <!-- Generator: Sketch 40.3 (33839) - http://www.bohemiancoding.com/sketch -->
    <title>avatar</title>
    <desc>Created with Sketch.</desc>
    <defs></defs>
    <g id="mockups" stroke="none" stroke-width="1" fill="none" fill-rule="evenodd">
        <g id="avatar">
            <circle id="Oval-22-Copy" fill="#ECECEC" cx="40" cy="40" r="40"></circle>
            <g id="Group" transform="translate(20.000000, 14.000000)">
                <path d="M38.060432,18.7311654 C35.8281384,14.8671732 34.3088724,13.2473386 31.700799,11.5090787 C29.7213494,10.1993701 27.7015329,9.44774016 25.7683219,8.91112598 C25.393643,8.80713386 25.327955,8.92370866 25.5617164,8.99513386 C28.8960283,10.020252 32.2134595,11.8576929 34.7822669,14.9075118 C35.0780467,15.2505748 35.3430008,15.6139921 35.6002485,15.9733386 L35.6853861,16.1110079 C35.7213494,16.1661496 35.7573128,16.2216614 35.7929091,16.2775433 C35.9745605,16.5625039 35.8571293,16.4951496 35.6035513,16.210189 C35.0688724,15.6106614 34.2285054,14.7235827 33.7393311,14.2709764 C33.540432,14.0541102 33.3334595,13.8816535 33.1514412,13.7365827 C32.3716247,12.9172283 31.5099733,12.1748504 30.6002485,11.5013071 L30.3767623,11.3321811 C30.0773128,11.1093937 29.5466705,10.8403465 29.5767623,10.9054803 C29.5921751,10.9384173 29.7422669,11.0631339 29.4589641,10.894378 C27.794377,9.89923622 24.9055696,8.85043307 22.6178632,8.42780315 C22.4754779,8.40152756 22.4641017,8.50107874 22.580432,8.52402362 C24.527588,8.9126063 26.4464871,9.56209449 28.2512577,10.4795197 C28.6318082,10.6727008 28.6241017,10.7163701 28.23401,10.5361417 C27.5033678,10.1982598 26.7459366,9.88776378 25.9525421,9.61020472 C24.4806155,9.09986614 23.0905238,8.7941811 21.5756614,8.49626772 C21.4971293,8.47813386 21.4644687,8.58841732 21.5422669,8.60248031 C24.4196981,9.21311024 27.1092394,9.85075591 29.7132761,11.5201811 C29.887221,11.6315748 30.1756614,11.806252 29.7470375,11.6263937 C29.4652027,11.5079685 28.9433678,11.2733386 27.8318082,10.7337638 C25.0321751,9.37409449 20.5774962,8.40818898 19.2626339,8.29790551 C19.0244687,8.27829134 19.0042852,8.28199213 19.0035513,8.30826772 C19.0028173,8.33528346 19.1198816,8.37451181 19.260432,8.3956063 C20.7041017,8.64651969 22.1396981,8.99180315 23.5430008,9.44477953 C23.7294228,9.50473228 23.8641017,9.57134646 23.5077715,9.48252756 C22.5767623,9.2519685 20.8215329,8.82452756 20.2861201,8.74681102 C19.9030008,8.69166929 19.55401,8.65355118 19.5231843,8.74940157 C19.4923586,8.84525197 19.7899733,8.91815748 20.1642852,8.99994488 C20.1642852,8.99994488 20.4193311,9.06174803 20.7063036,9.11059843 C20.8523586,9.13613386 21.8626339,9.39370866 23.0626339,9.7515748 C23.1584137,9.78007087 23.2439183,9.8352126 23.0578632,9.78562205 C21.0141935,9.23864567 18.5863036,8.79159055 16.4189641,8.72386614 C16.3488724,8.72164567 16.3396981,8.83118898 16.4171293,8.83711024 C17.9852027,8.96515748 22.1580467,9.77859055 22.4233678,9.8526063 C22.7837348,9.9536378 22.6064871,10.2189843 22.2486889,10.1320157 C21.0729091,9.88591339 19.9477715,9.70235433 18.7899733,9.59577165 C18.6552944,9.58355906 18.6431843,9.682 18.8064871,9.69865354 C20.4773128,9.90108661 22.2516247,10.2371181 23.7059366,10.6812126 C24.3830008,10.8877165 24.9444687,11.1260472 25.47401,11.3910236 C25.6552944,11.4816929 25.5907072,11.594937 25.407955,11.519811 C22.8751109,10.4798898 20.1430008,9.94549606 17.3991476,9.79043307 C17.0505238,9.77007874 16.7951109,9.81115748 16.8307072,9.8822126 C16.8659366,9.9536378 16.8707072,10.0139606 17.5253861,10.0498583 C18.180799,10.0853858 21.3239183,10.4676772 23.7822669,11.2844409 C25.5239183,11.8791575 27.9092394,13.0430551 29.4288724,14.0777953 C31.1998816,15.3012756 33.3852027,17.8333543 34.2952944,19.674126 C34.993643,21.0852362 35.6369458,22.8738268 35.7844687,23.7568346 C35.8296063,24.026622 35.7441017,24.2201732 35.6765788,23.7890315 C35.4710742,22.4704409 34.5356614,20.4257559 33.6490559,19.0594252 C33.580799,18.9454409 33.5096063,18.8858583 33.4956614,18.9106535 C33.4850192,18.9450709 33.5356614,19.0542441 33.5998816,19.1693386 C34.9334595,21.3598346 35.7415329,24.4140945 35.6285054,26.5520394 C35.5169458,28.6903543 34.2152944,34.3540394 31.8105238,36.2247874 C31.2652027,36.6496378 28.9738265,38.3431181 27.7631843,39.1262047 C27.4538265,39.3264173 27.5826339,39.4392913 27.8677715,39.310874 C28.9184137,38.8382835 30.0978632,37.999685 30.6769458,37.5792756 C31.0773128,37.2887638 31.5173128,36.9897402 30.7334595,37.6917795 C29.993643,38.3542205 28.5474045,39.268685 26.966854,40.0932205 C26.8057531,40.1772283 26.7437348,40.3648583 27.0046522,40.3182283 C27.2009825,40.2830709 27.5338265,40.1368898 27.7441017,40.0872992 C27.9323586,40.0428898 27.9202485,40.1513228 27.7257531,40.2938031 C26.7169458,41.0335906 25.5686889,41.2004961 25.513643,41.2597087 C25.4538265,41.3241024 25.6428173,41.3348346 25.6285054,41.3792441 C25.6156614,41.4225433 24.6431843,41.7989134 24.3903403,41.5890787 C24.1532761,41.3925669 23.9591476,41.162748 23.6850192,40.9514331 L23.6850192,40.9529134 C22.8189641,40.203874 21.4622669,39.7708819 19.780799,39.8737638 C18.1595146,39.973315 14.1026339,41.3159606 14.2354779,43.6322835 C14.3697898,45.9493465 18.5532761,46.7894252 20.1734595,46.6909843 C21.8545605,46.5881024 23.1529091,45.9926457 23.9261201,45.143315 C23.927221,45.1444252 23.927221,45.1444252 23.927221,45.1451654 C24.6883219,44.3983465 24.5734595,43.7421969 27.2916247,43.3591654 C27.7716247,43.287 29.4850192,43.0445984 30.5628173,42.2711339 C31.4017164,41.6693858 31.2420834,41.9295512 31.1547439,42.027622 C30.8703403,42.3466299 30.7635513,42.5605354 30.9154779,42.6178976 C31.246854,42.7444646 32.7228173,42.0291024 34.0064871,40.781937 C37.4839183,37.5752047 39.1888724,33.8955118 39.7217164,28.9790157 C40.0938265,25.3444724 39.6237348,21.4338504 38.060432,18.7311654 L38.060432,18.7311654 Z M27.8934595,11.8225354 C26.9228173,11.3092362 25.91401,10.8773543 24.8773128,10.5205984 C24.6883219,10.4484331 24.4758449,10.3736772 24.2523586,10.2992913 C24.1114412,10.2522913 24.1488724,10.1882677 24.2974962,10.2311969 C25.7121751,10.6393937 26.9308907,11.0960709 27.7382302,11.5568189 C29.9217164,12.8032441 28.1173128,11.9402205 27.8934595,11.8225354 L27.8934595,11.8225354 Z M33.0230008,16.8415433 C32.7345605,16.5414094 32.2497898,15.8700866 31.9547439,15.5518189 C31.3488724,14.9015906 30.7074045,14.3105748 30.0358449,13.7750709 C29.5261201,13.3679843 29.5224504,13.1899764 30.0681384,13.5304488 C32.1844687,14.8505197 32.8817164,16.1580079 33.1690559,16.8230394 C33.2420834,16.9925354 33.2578632,17.0861654 33.0230008,16.8415433 L33.0230008,16.8415433 Z" id="Fill-19" fill="#EB4623"></path>
                <path d="M12.7290559,9.80190551 C9.82777147,8.97848031 11.287221,2.84738583 5.20722101,2.77707087 C3.32501917,2.75486614 1.79731275,3.5146378 0.992909082,2.23453543 C1.35694578,4.2840315 3.46043202,3.78997638 3.08832193,5.80764567 C2.67144119,8.06734646 5.22520266,12.6396693 10.3848357,8.90853543 C11.1653861,9.59133071 12.207955,9.90700787 12.7290559,9.80190551" id="Fill-20" fill="#7A8133"></path>
                <path d="M12.8024504,8.09214173 C16.5723586,4.88985039 11.3059366,3.72077165 10.5121751,0 C10.5022669,1.41370079 10.1191476,1.97807087 9.79547789,2.42549606 C11.0758449,3.52981102 11.473643,5.18147244 11.7297898,6.44233071 C11.9866705,7.70392913 12.2398816,9.16907087 13.3103403,9.54433071 C12.7617164,9.23901575 12.6828173,8.60507087 12.8024504,8.09214173" id="Fill-21" fill="#C3982F"></path>
                <path d="M12.7290559,9.80190551 C9.82777147,8.97848031 11.287221,2.84738583 5.20722101,2.77707087 C3.32501917,2.75486614 1.79731275,3.5146378 0.992909082,2.23453543 C1.97749624,5.08155118 9.0659366,2.47915748 10.3848357,8.90853543 C11.1653861,9.59133071 12.207955,9.90700787 12.7290559,9.80190551" id="Fill-22" fill="#C3982F"></path>
                <path d="M9.79547789,2.42549606 C11.0758449,3.52981102 11.473643,5.18147244 11.7297898,6.44233071 C11.9866705,7.70392913 12.2398816,9.16907087 13.3103403,9.54433071 C12.7617164,9.23901575 12.6828173,8.60507087 12.8024504,8.09214173 C14.1477715,3.85288976 11.4541935,4.16597638 10.5121751,0 C10.5022669,1.41370079 10.1191476,1.97807087 9.79547789,2.42549606" id="Fill-23" fill="#7A8133"></path>
                <path d="M19.9976797,23.9600079 C20.1477715,23.9600079 20.5202485,27.3836063 20.6824504,27.3836063 C20.8450192,27.3836063 20.9507072,25.7201024 20.9507072,24.6624173 C20.9507072,22.5004173 20.407588,20.7477244 19.9965788,20.7477244 C19.5852027,20.7477244 19.0417164,22.5004173 19.0417164,24.6624173 C19.0417164,25.723063 19.1448357,27.3884173 19.3114412,27.3884173 C19.4780467,27.3884173 19.847221,23.9600079 19.9976797,23.9600079" id="Fill-24" fill="#7A8133"></path>
                <path d="M24.3096063,27.1700709 C24.353643,27.3151417 21.2185972,28.6814724 21.2666705,28.8383858 C21.31401,28.9952992 22.9217164,28.6070866 23.9242852,28.2954803 C25.9730926,27.659315 27.47401,26.6197638 27.3532761,26.2234094 C27.2318082,25.826685 25.4108907,25.8192835 23.3624504,26.4558189 C22.3569458,26.7677953 20.8090559,27.3580709 20.8582302,27.518685 C20.9074045,27.6789291 24.2648357,27.0257402 24.3096063,27.1700709" id="Fill-25" fill="#7A8133"></path>
                <path d="M22.5573128,32.2712362 C22.4329091,32.3563543 20.2145605,29.7373071 20.0806155,29.8294567 C19.9463036,29.9219764 20.7870375,31.3567717 21.3771293,32.2312677 C22.5833678,34.018378 24.0108907,35.1589606 24.3507072,34.9254409 C24.6908907,34.6926614 24.1617164,32.9347874 22.9554779,31.1476772 C22.3635513,30.2709606 21.3488724,28.9534803 21.2112577,29.0478504 C21.073643,29.1418504 22.6813494,32.185748 22.5573128,32.2712362" id="Fill-26" fill="#7A8133"></path>
                <path d="M15.6831843,27.1700709 C15.6391476,27.3151417 18.7741935,28.6814724 18.7261201,28.8383858 C18.6784137,28.9952992 17.0707072,28.6070866 16.0681384,28.2954803 C14.0196981,27.659315 12.5184137,26.6197638 12.6395146,26.2234094 C12.7606155,25.826685 14.5815329,25.8192835 16.6303403,26.4558189 C17.6354779,26.7677953 19.1833678,27.3580709 19.1341935,27.518685 C19.0850192,27.6789291 15.727588,27.0257402 15.6831843,27.1700709" id="Fill-27" fill="#7A8133"></path>
                <path d="M17.4391476,32.2712362 C17.5631843,32.3563543 19.7815329,29.7373071 19.9154779,29.8294567 C20.0497898,29.9219764 19.2090559,31.3567717 18.6189641,32.2312677 C17.4127256,34.018378 15.9855696,35.1589606 15.6453861,34.9254409 C15.3055696,34.6926614 15.834377,32.9347874 17.0406155,31.1476772 C17.6325421,30.2709606 18.647221,28.9534803 18.7852027,29.0478504 C18.9228173,29.1418504 17.3147439,32.185748 17.4391476,32.2712362" id="Fill-28" fill="#7A8133"></path>
                <path d="M26.5250192,14.3535039 C24.0083219,12.1570866 23.4222669,14.4412126 21.7510742,13.6529449 C21.6512577,13.5885512 21.5290559,13.5197165 21.3925421,13.4464409 L21.3925421,13.4460709 C20.9319917,13.1992283 20.3206155,12.9079764 19.9323586,12.6256063 C19.020432,11.9642756 17.7598816,12.022748 17.7598816,12.022748 C18.4376797,11.764063 18.7580467,11.9061732 18.6729091,11.721874 C18.5874045,11.5379449 17.461166,11.3136772 15.5132761,11.2126457 C11.687955,11.0157638 5.65382651,13.0778425 3.41602835,16.4507402 C1.17823018,19.8240079 0.25492743,22.0178346 0.043918256,25.4917638 C-0.168191836,28.9668031 0.387404495,31.781622 1.72391826,34.3377559 C2.47767972,35.7803228 3.54960633,37.0718976 4.36978982,37.9252992 C5.00208339,38.5836693 5.54189991,38.7642677 4.64318431,37.7280472 C2.66887238,35.4516929 1.19657881,32.1987008 1.28501917,29.3642677 C1.32648706,28.0567795 1.55767972,28.4324094 1.65199165,29.3457638 C2.42300082,36.7843465 6.71144119,38.394189 8.95290908,42.187126 C9.15657881,42.5316693 9.28832193,42.4898504 9.12134945,42.1438268 C8.75621183,41.3862756 9.19364303,42.0594488 9.42740449,42.5342598 C9.57015679,42.8244016 9.71290908,42.7566772 9.63364303,42.4791181 C9.6152944,42.412874 9.59914761,42.3514409 9.65969807,42.4073228 C9.69382651,42.4395197 9.75584486,42.4054724 9.74153293,42.3266457 C9.7352944,42.290378 9.74703752,42.2877874 9.75878064,42.3122126 C10.0281384,42.8684409 10.3363953,43.6122992 10.5624504,44.2018346 C10.7496063,44.6899685 10.8795146,44.6141024 10.7121751,44.133 C9.75878064,41.3918268 8.62446871,39.6890945 5.2486889,36.4882835 C4.92134945,36.1781575 5.02960633,35.8684016 5.53015679,36.3894724 C6.04722101,36.927937 8.30630358,39.3789685 9.71657881,41.1694094 C9.98556963,41.5113622 10.4163953,41.4654724 10.194377,41.0691181 C9.06556963,39.0510787 7.37823018,37.1810709 6.27694578,35.6371024 C5.1752944,34.0916535 4.2952944,31.8382441 4.00978982,30.686189 C3.65492743,29.2554646 3.94850541,28.8975984 4.28575312,30.493378 C4.82703752,33.0561732 6.07290908,35.0249921 8.05309257,37.1059449 C10.007588,39.1621024 10.7294228,41.0894724 11.9088724,44.3609685 C12.0446522,44.7384488 12.4890559,44.5819055 12.380432,44.133 C11.820065,41.8077953 10.6655696,39.1495197 8.89199165,37.1633071 C7.12024853,35.1767244 6.88318431,34.6926614 6.17566138,33.2741496 C5.62740449,32.1739055 5.05823018,30.7938819 5.06226688,30.0977638 C5.06630358,29.4020157 6.2406155,30.3494173 6.34153293,30.4097402 C7.09566138,30.860126 7.14887238,30.6706457 7.63401,30.8875118 C7.99767972,31.0862441 8.3752944,31.1554488 8.74079899,31.2146614 C9.43694578,31.3264252 9.94410174,31.6946535 10.4321751,31.3841575 C10.8252027,31.1102992 10.9426339,30.5792362 10.4424504,30.0082047 C10.3371293,29.8879291 10.1294228,29.7221339 10.2578632,29.6599606 C10.31401,29.6329449 10.3635513,29.5733622 10.206854,29.412378 C9.99107422,29.1888504 9.96245037,28.378748 9.91841367,28.2129528 C9.72575312,27.4883386 8.79951459,27.6319291 8.2486889,27.1900551 C7.59731275,26.6671339 7.55107422,26.7937008 7.69749624,27.0168583 C7.79327605,27.1622992 7.74410174,27.2333543 7.53602835,26.9894724 C7.01015679,26.3729213 6.13309257,25.8995906 5.70740449,25.5524567 C5.01235862,24.9854961 4.11107422,25.0528504 4.77162468,22.5525984 C5.09456046,21.3313386 5.90153293,19.5686535 7.90850541,18.2448819 C9.61456046,17.1194724 8.67988156,17.1516693 8.63694578,17.3219055 C8.83621183,17.1298346 8.76245037,17.1816457 9.59511092,16.7434724 C10.3316247,16.356 11.1187806,16.0340315 11.7738265,15.9407717 C12.8714412,15.7834882 11.8644687,15.6225039 12.2006155,15.4981575 C12.3606155,15.4389449 12.8274045,15.387874 13.9756614,15.3497559 C14.8108907,15.3223701 17.1518082,15.571063 19.5041017,16.1861339 C19.7694228,16.2549685 20.0369458,16.3360157 20.2952944,16.4178031 L20.2949274,16.4178031 C20.9635513,16.7031339 21.1958449,16.6572441 21.2494228,17.131315 C21.2886889,17.8840551 21.447955,18.6756535 23.0828173,19.514622 L23.0831843,19.5138819 C23.0831843,19.5138819 29.4934595,22.9293386 29.6982302,22.6188425 C29.9026339,22.3076063 23.7184137,18.5616693 23.7184137,18.5616693 C23.7184137,18.5616693 23.3562118,18.278189 23.5077715,18.0653937 C23.6274045,17.8981181 23.8820834,18.010252 23.9859366,18.0665039 L24.0303403,18.0912992 L24.0307072,18.0924094 C24.0307072,18.0924094 30.2024504,21.8827559 30.4373128,21.5111969 C30.6718082,21.1396378 24.6417164,17.1772047 24.6417164,17.1772047 C24.6417164,17.1772047 24.2798816,16.8940945 24.4307072,16.6816693 C24.5826339,16.468874 24.9664871,16.6894409 24.9664871,16.6894409 C24.9664871,16.6894409 30.9074045,20.8265512 31.1118082,20.5008819 C31.3154779,20.1752126 25.5598816,15.7612835 25.5598816,15.7612835 C25.4901568,15.7013307 25.2351109,15.4637402 25.366854,15.2790709 C25.5184137,15.0666457 25.8901568,15.3057165 25.8901568,15.3057165 C25.8901568,15.3057165 31.6259366,19.7122441 31.8714412,19.3632598 C32.1165788,19.0135354 26.5250192,14.3535039 26.5250192,14.3535039" id="Fill-29" fill="#AA1F24"></path>
                <path id="Fill-30" fill="#922429"></path>
                <path id="Fill-31" fill="#922429"></path>
            </g>
        </g>
    </g>
</svg>