<?xml version="1.0" encoding="UTF-8" standalone="no"?>
<svg width="304px" height="127px" viewBox="0 0 304 127" version="1.1" xmlns="http://www.w3.org/2000/svg" xmlns:xlink="http://www.w3.org/1999/xlink">
    <!-- Generator: Sketch 3.6.1 (26313) - http://www.bohemiancoding.com/sketch -->
    <title>masthead</title>
    <desc>Created with Sketch.</desc>
    <defs></defs>
    <g id="assets" stroke="none" stroke-width="1" fill="none" fill-rule="evenodd">
        <g id="masthead">
            <path d="M140.964,57.34 L134.132,57.34 L134.132,54.427 L135.182,54.427 L135.182,48.084 L133.782,48.084 L133.782,50.298 L131.499,50.298 L131.499,45.171 L143.562,45.171 L143.562,50.298 L141.279,50.298 L141.279,48.084 L139.888,48.084 L139.888,54.427 L140.964,54.427 L140.964,57.34" id="Fill-1" fill="#737A7E"></path>
            <path d="M160.537,57.34 L154.134,57.34 L154.134,54.427 L155.053,54.427 L155.053,48.084 L154.116,48.084 L154.116,45.171 L160.537,45.171 L160.537,48.084 L159.759,48.084 L159.759,49.94 L162.576,49.94 L162.576,48.084 L161.788,48.084 L161.788,45.171 L168.201,45.171 L168.201,48.084 L167.282,48.084 L167.282,54.427 L168.201,54.427 L168.201,57.34 L161.788,57.34 L161.788,54.427 L162.576,54.427 L162.576,52.433 L159.759,52.433 L159.759,54.427 L160.537,54.427 L160.537,57.34" id="Fill-2" fill="#737A7E"></path>
            <path d="M190.999,57.34 L179.391,57.34 L179.391,54.427 L180.336,54.427 L180.336,48.084 L179.373,48.084 L179.373,45.171 L190.999,45.171 L190.999,49.065 L187.807,49.065 L187.807,48.084 L185.042,48.084 L185.042,49.956 L187.447,49.956 L187.447,52.433 L185.042,52.433 L185.042,54.427 L187.807,54.427 L187.807,53.447 L190.999,53.447 L190.999,57.34" id="Fill-3" fill="#737A7E"></path>
            <path d="M225.855,57.34 L218.464,57.34 L218.464,54.427 L219.741,54.427 L219.741,48.084 L218.42,48.084 L218.42,45.171 L230.404,45.171 L230.404,49.178 L227.168,49.178 L227.168,48.084 L224.447,48.084 L224.447,49.956 L226.547,49.956 L226.547,52.433 L224.447,52.433 L224.447,54.427 L225.855,54.427 L225.855,57.34" id="Fill-4" fill="#737A7E"></path>
            <path d="M240.662,51.225 C240.662,50.21 240.909,49.228 241.405,48.276 C241.895,47.332 242.656,46.536 243.688,45.889 C244.056,45.661 244.433,45.481 244.821,45.347 C245.209,45.212 245.631,45.108 246.086,45.036 C246.541,44.963 247.018,44.927 247.52,44.927 C249.701,44.927 251.389,45.565 252.585,46.842 C253.181,47.472 253.629,48.154 253.932,48.89 C254.235,49.624 254.388,50.402 254.388,51.225 C254.388,52.922 253.77,54.397 252.533,55.651 C251.297,56.905 249.626,57.532 247.52,57.532 C245.485,57.532 243.834,56.943 242.569,55.766 C241.298,54.593 240.662,53.079 240.662,51.225 L240.662,51.225 Z M245.945,51.225 C245.945,52.578 246.077,53.49 246.339,53.963 C246.59,54.441 246.983,54.681 247.52,54.681 C248.051,54.681 248.447,54.45 248.71,53.989 C248.973,53.522 249.103,52.602 249.103,51.225 C249.103,49.89 248.975,48.979 248.719,48.495 C248.468,48.018 248.068,47.778 247.52,47.778 C246.995,47.778 246.601,48.009 246.339,48.47 C246.077,48.93 245.945,49.849 245.945,51.225 L245.945,51.225 Z" id="Fill-5" fill="#737A7E"></path>
            <path d="M265.085,51.225 C265.085,50.21 265.332,49.228 265.828,48.276 C266.318,47.332 267.079,46.536 268.111,45.889 C268.478,45.661 268.856,45.481 269.244,45.347 C269.632,45.212 270.054,45.108 270.509,45.036 C270.964,44.963 271.441,44.927 271.943,44.927 C274.124,44.927 275.812,45.565 277.008,46.842 C277.603,47.472 278.052,48.154 278.355,48.89 C278.658,49.624 278.81,50.402 278.81,51.225 C278.81,52.922 278.192,54.397 276.956,55.651 C275.72,56.905 274.049,57.532 271.943,57.532 C269.908,57.532 268.257,56.943 266.992,55.766 C265.721,54.593 265.085,53.079 265.085,51.225 L265.085,51.225 Z M270.368,51.225 C270.368,52.578 270.5,53.49 270.762,53.963 C271.013,54.441 271.406,54.681 271.943,54.681 C272.474,54.681 272.87,54.45 273.133,53.989 C273.395,53.522 273.526,52.602 273.526,51.225 C273.526,49.89 273.398,48.979 273.142,48.495 C272.891,48.018 272.491,47.778 271.943,47.778 C271.418,47.778 271.024,48.009 270.762,48.47 C270.5,48.93 270.368,49.849 270.368,51.225 L270.368,51.225 Z" id="Fill-6" fill="#737A7E"></path>
            <path d="M295.23,57.34 L289.571,57.34 L289.571,54.427 L290.524,54.427 L290.524,48.084 L289.571,48.084 L289.571,45.171 L295.397,45.171 C296.727,45.171 297.811,45.253 298.651,45.416 C299.497,45.579 300.293,45.915 301.04,46.422 C301.78,46.935 302.363,47.63 302.789,48.504 C302.999,48.924 303.159,49.373 303.271,49.852 C303.381,50.33 303.436,50.831 303.436,51.356 C303.436,52.412 303.212,53.374 302.763,54.243 C302.319,55.106 301.757,55.769 301.074,56.228 C300.41,56.69 299.681,56.99 298.888,57.13 C298.1,57.27 296.881,57.34 295.23,57.34 L295.23,57.34 Z M295.23,48.084 L295.23,54.427 L295.677,54.427 C296.785,54.427 297.506,54.132 297.838,53.543 C298.164,52.954 298.328,52.214 298.328,51.321 C298.328,50.785 298.258,50.254 298.118,49.729 C297.971,49.204 297.716,48.799 297.348,48.513 C296.986,48.228 296.339,48.084 295.406,48.084 L295.23,48.084 L295.23,48.084 Z" id="Fill-7" fill="#737A7E"></path>
            <path d="M140.93,87.888 L144.505,88.882 C144.478,91.902 143.932,94.28 142.861,96.021 C141.789,97.761 140.325,98.63 138.464,98.63 C136.172,98.63 134.47,97.428 133.361,95.027 C132.253,92.626 131.699,88.971 131.699,84.065 C131.699,73.935 133.655,68.872 137.566,68.872 C138.943,68.872 139.988,69.495 140.702,70.743 L140.778,70.743 L140.778,69.348 L144.256,69.348 L144.256,78.695 L140.778,78.695 C140.778,76.745 140.555,75.255 140.107,74.223 C139.662,73.191 139.025,72.674 138.197,72.674 C137.587,72.674 137.142,72.924 136.869,73.42 C136.594,73.918 136.406,74.9 136.305,76.372 C136.203,77.844 136.152,80.236 136.152,83.549 C136.152,88.11 136.308,91.13 136.621,92.608 C136.932,94.088 137.572,94.826 138.541,94.826 C139.369,94.826 139.976,94.291 140.356,93.22 C140.74,92.15 140.93,90.373 140.93,87.888" id="Fill-8" fill="#737A7E"></path>
            <path d="M164.797,83.913 C164.797,93.724 162.581,98.63 158.146,98.63 C155.864,98.63 154.181,97.413 153.09,94.981 C152.002,92.546 151.458,88.856 151.458,83.913 C151.458,80.6 151.719,77.825 152.239,75.588 C152.764,73.353 153.528,71.675 154.533,70.552 C155.54,69.432 156.744,68.872 158.146,68.872 C160.262,68.872 161.898,70.129 163.057,72.647 C164.217,75.162 164.797,78.919 164.797,83.913 L164.797,83.913 Z M155.91,84.065 C155.91,88.232 156.065,91.067 156.379,92.57 C156.69,94.074 157.279,94.826 158.146,94.826 C158.986,94.826 159.563,94.074 159.876,92.57 C160.187,91.067 160.344,88.245 160.344,84.103 C160.344,79.579 160.197,76.545 159.903,74.997 C159.611,73.45 159.026,72.674 158.146,72.674 C157.215,72.674 156.609,73.523 156.331,75.228 C156.05,76.928 155.91,79.874 155.91,84.065 L155.91,84.065 Z" id="Fill-9" fill="#737A7E"></path>
            <path d="M170.89,98.152 L170.89,94.674 L172.858,94.674 L172.858,72.827 L170.89,72.827 L170.89,69.348 L177.274,69.348 L180.581,79.803 L182.529,88.214 L182.644,88.214 L182.205,79.517 L182.205,72.827 L180.255,72.827 L180.255,69.348 L187.651,69.348 L187.651,72.827 L185.681,72.827 L185.681,98.152 L182.473,98.152 L178.937,87.103 C178.555,85.907 178.154,84.454 177.732,82.747 L176.145,76.269 L176.031,76.269 L176.337,85.04 L176.337,94.674 L178.287,94.674 L178.287,98.152 L170.89,98.152" id="Fill-10" fill="#737A7E"></path>
            <path d="M203.005,87.888 L206.58,88.882 C206.553,91.902 206.005,94.28 204.935,96.021 C203.865,97.761 202.399,98.63 200.537,98.63 C198.245,98.63 196.545,97.428 195.436,95.027 C194.328,92.626 193.774,88.971 193.774,84.065 C193.774,73.935 195.728,68.872 199.641,68.872 C201.016,68.872 202.061,69.494 202.775,70.743 L202.852,70.743 L202.852,69.348 L206.329,69.348 L206.329,78.695 L202.852,78.695 C202.852,76.745 202.628,75.255 202.182,74.223 C201.735,73.191 201.098,72.674 200.271,72.674 C199.66,72.674 199.217,72.924 198.943,73.42 C198.668,73.918 198.481,74.9 198.379,76.372 C198.276,77.844 198.225,80.236 198.225,83.549 C198.225,88.11 198.383,91.13 198.696,92.608 C199.006,94.088 199.647,94.826 200.615,94.826 C201.443,94.826 202.049,94.291 202.43,93.22 C202.814,92.15 203.005,90.373 203.005,87.888" id="Fill-11" fill="#737A7E"></path>
            <path d="M228.129,98.152 L228.129,94.674 L230.248,94.674 L230.248,72.827 L228.129,72.827 L228.129,69.348 L241.392,69.348 L241.392,77.758 L237.914,77.758 L237.914,72.827 L234.321,72.827 L234.321,81.563 L237.244,81.563 L237.244,85.04 L234.321,85.04 L234.321,94.674 L237.914,94.674 L237.914,89.301 L241.392,89.301 L241.392,98.152 L228.129,98.152" id="Fill-12" fill="#737A7E"></path>
            <path d="M254.422,85.079 L254.422,94.674 L256.56,94.674 L256.56,98.152 L247.92,98.152 L247.92,94.674 L250.348,94.674 L250.348,72.827 L247.92,72.827 L247.92,69.348 L255.126,69.348 C257.559,69.348 259.484,70.062 260.897,71.488 C262.312,72.916 263.018,74.808 263.018,77.164 C263.018,80.21 261.877,82.471 259.592,83.948 L262.714,94.674 L264.433,94.674 L264.433,98.152 L259.566,98.152 L256.026,84.964 C255.604,85.04 255.068,85.079 254.422,85.079 L254.422,85.079 Z M254.422,72.827 L254.422,81.601 C255.96,81.601 257.068,81.246 257.744,80.538 C258.421,79.834 258.758,78.708 258.758,77.166 C258.758,75.535 258.417,74.404 257.734,73.774 C257.054,73.143 255.948,72.827 254.422,72.827 L254.422,72.827 Z" id="Fill-13" fill="#737A7E"></path>
            <path d="M277.123,87.736 L277.123,84.257 L283.315,84.257 L283.315,86.873 C283.315,90.596 282.744,93.485 281.604,95.542 C280.465,97.6 278.869,98.63 276.817,98.63 C275.81,98.63 274.88,98.346 274.026,97.778 C273.173,97.213 272.446,96.342 271.849,95.169 C271.248,93.997 270.845,92.559 270.636,90.851 C270.424,89.143 270.318,86.844 270.318,83.951 C270.318,78.728 270.784,74.906 271.716,72.493 C272.642,70.078 274.109,68.872 276.109,68.872 C277.23,68.872 278.264,69.393 279.206,70.439 L279.206,69.348 L282.684,69.348 L282.684,78.695 L279.206,78.695 C279.206,74.681 278.434,72.674 276.894,72.674 C276.306,72.674 275.869,72.939 275.584,73.467 C275.296,73.996 275.091,75.017 274.963,76.525 C274.834,78.035 274.772,80.339 274.772,83.435 C274.772,86.81 274.828,89.276 274.943,90.831 C275.059,92.385 275.262,93.44 275.554,93.995 C275.847,94.548 276.306,94.826 276.931,94.826 C277.837,94.826 278.421,94.231 278.688,93.038 C278.958,91.849 279.092,90.079 279.092,87.736 L277.123,87.736" id="Fill-14" fill="#737A7E"></path>
            <path d="M289.68,98.152 L289.68,94.674 L291.801,94.674 L291.801,72.827 L289.68,72.827 L289.68,69.348 L302.945,69.348 L302.945,77.758 L299.466,77.758 L299.466,72.827 L295.871,72.827 L295.871,81.563 L298.795,81.563 L298.795,85.04 L295.871,85.04 L295.871,94.674 L299.466,94.674 L299.466,89.301 L302.945,89.301 L302.945,98.152 L289.68,98.152" id="Fill-15" fill="#737A7E"></path>
            <path d="M217.457,75.875 L215.595,74.52 L214.447,97.205 L217.439,102.038 L220.431,97.205 L219.285,74.527 L217.457,75.875" id="Fill-16" fill="#737A7E"></path>
            <path d="M217.43,69.764 C217.332,69.762 213.101,69.718 210.426,68.832 C211.302,70.165 211.462,71.737 211.477,73.528 C212.421,73.344 212.85,70.425 212.85,70.425 C212.85,70.425 215.087,70.518 216.822,70.3 C216.624,70.44 216.419,70.557 216.214,70.652 C215.578,70.948 214.948,71.049 214.447,71.12 C214.447,73.628 217.437,75.097 217.437,75.097 C217.438,75.097 220.431,73.628 220.431,71.12 C219.771,71.027 218.889,70.876 218.069,70.302 C219.8,70.509 222.009,70.425 222.009,70.425 C222.009,70.425 222.438,73.344 223.381,73.528 C223.396,71.737 223.556,70.165 224.434,68.832 C221.759,69.718 217.526,69.762 217.43,69.764" id="Fill-17" fill="#737A7E"></path>
            <path d="M206.532,51.072 C206.532,49.825 205.52,48.813 204.273,48.813 C203.027,48.813 202.016,49.825 202.016,51.072 C202.016,52.319 203.027,53.331 204.273,53.331 C205.52,53.331 206.532,52.319 206.532,51.072" id="Fill-18" fill="#737A7E"></path>
            <path d="M104.025,51.31 C97.942,40.869 93.802,36.492 86.695,31.795 C81.301,28.256 75.797,26.225 70.529,24.775 C69.508,24.494 69.329,24.809 69.966,25.002 C79.052,27.772 88.092,32.737 95.092,40.978 C95.898,41.905 96.62,42.887 97.321,43.858 L97.553,44.23 C97.651,44.379 97.749,44.529 97.846,44.68 C98.341,45.45 98.021,45.268 97.33,44.498 C95.873,42.878 93.583,40.481 92.25,39.258 C91.708,38.672 91.144,38.206 90.648,37.814 C88.523,35.6 86.175,33.594 83.696,31.774 L83.087,31.317 C82.271,30.715 80.825,29.988 80.907,30.164 C80.949,30.253 81.358,30.59 80.586,30.134 C76.05,27.445 68.178,24.611 61.944,23.469 C61.556,23.398 61.525,23.667 61.842,23.729 C67.148,24.779 72.377,26.534 77.295,29.013 C78.332,29.535 78.311,29.653 77.248,29.166 C75.257,28.253 73.193,27.414 71.031,26.664 C67.02,25.285 63.232,24.459 59.104,23.654 C58.89,23.605 58.801,23.903 59.013,23.941 C66.854,25.591 74.183,27.314 81.279,31.825 C81.753,32.126 82.539,32.598 81.371,32.112 C80.603,31.792 79.181,31.158 76.152,29.7 C68.523,26.026 56.384,23.416 52.801,23.118 C52.152,23.065 52.097,23.075 52.095,23.146 C52.093,23.219 52.412,23.325 52.795,23.382 C56.729,24.06 60.641,24.993 64.465,26.217 C64.973,26.379 65.34,26.559 64.369,26.319 C61.832,25.696 57.049,24.541 55.59,24.331 C54.546,24.182 53.595,24.079 53.511,24.338 C53.427,24.597 54.238,24.794 55.258,25.015 C55.258,25.015 55.953,25.182 56.735,25.314 C57.133,25.383 59.886,26.079 63.156,27.046 C63.417,27.123 63.65,27.272 63.143,27.138 C57.574,25.66 50.958,24.452 45.052,24.269 C44.861,24.263 44.836,24.559 45.047,24.575 C49.32,24.921 60.691,27.119 61.414,27.319 C62.396,27.592 61.913,28.309 60.938,28.074 C57.734,27.409 54.668,26.913 51.513,26.625 C51.146,26.592 51.113,26.858 51.558,26.903 C56.111,27.45 60.946,28.358 64.909,29.558 C66.754,30.116 68.284,30.76 69.727,31.476 C70.221,31.721 70.045,32.027 69.547,31.824 C62.645,29.014 55.2,27.57 47.723,27.151 C46.773,27.096 46.077,27.207 46.174,27.399 C46.27,27.592 46.283,27.755 48.067,27.852 C49.853,27.948 58.418,28.981 65.117,31.188 C69.863,32.795 76.363,35.94 80.504,38.736 C85.33,42.042 91.285,48.884 93.765,53.858 C95.668,57.671 97.421,62.504 97.823,64.89 C97.946,65.619 97.713,66.142 97.529,64.977 C96.969,61.414 94.42,55.889 92.004,52.197 C91.818,51.889 91.624,51.728 91.586,51.795 C91.557,51.888 91.695,52.183 91.87,52.494 C95.504,58.413 97.706,66.666 97.398,72.443 C97.094,78.221 93.547,93.525 86.994,98.58 C85.508,99.728 79.264,104.304 75.965,106.42 C75.122,106.961 75.473,107.266 76.25,106.919 C79.113,105.642 82.327,103.376 83.905,102.24 C84.996,101.455 86.195,100.647 84.059,102.544 C82.043,104.334 78.102,106.805 73.795,109.033 C73.356,109.26 73.187,109.767 73.898,109.641 C74.433,109.546 75.34,109.151 75.913,109.017 C76.426,108.897 76.393,109.19 75.863,109.575 C73.114,111.574 69.985,112.025 69.835,112.185 C69.672,112.359 70.187,112.388 70.148,112.508 C70.113,112.625 67.463,113.642 66.774,113.075 C66.128,112.544 65.599,111.923 64.852,111.352 L64.852,111.356 C62.492,109.332 58.795,108.162 54.213,108.44 C49.795,108.709 38.74,112.337 39.102,118.596 C39.468,124.857 50.868,127.127 55.283,126.861 C59.864,126.583 63.402,124.974 65.509,122.679 C65.512,122.682 65.512,122.682 65.512,122.684 C67.586,120.666 67.273,118.893 74.68,117.858 C75.988,117.663 80.657,117.008 83.594,114.918 C85.88,113.292 85.445,113.995 85.207,114.26 C84.432,115.122 84.141,115.7 84.555,115.855 C85.458,116.197 89.48,114.264 92.978,110.894 C102.454,102.229 107.1,92.286 108.552,79.001 C109.566,69.18 108.285,58.613 104.025,51.31 L104.025,51.31 Z M76.32,32.642 C73.675,31.255 70.926,30.088 68.101,29.124 C67.586,28.929 67.007,28.727 66.398,28.526 C66.014,28.399 66.116,28.226 66.521,28.342 C70.376,29.445 73.697,30.679 75.897,31.924 C81.847,35.292 76.93,32.96 76.32,32.642 L76.32,32.642 Z M90.298,46.204 C89.512,45.393 88.191,43.579 87.387,42.719 C85.736,40.962 83.988,39.365 82.158,37.918 C80.769,36.818 80.759,36.337 82.246,37.257 C88.013,40.824 89.913,44.357 90.696,46.154 C90.895,46.612 90.938,46.865 90.298,46.204 L90.298,46.204 Z" id="Fill-19" fill="#EB4623"></path>
            <path d="M34.997,27.182 C27.091,24.957 31.068,8.39 14.5,8.2 C9.371,8.14 5.208,10.193 3.016,6.734 C4.008,12.272 9.74,10.937 8.726,16.389 C7.59,22.495 14.549,34.85 28.609,24.768 C30.736,26.613 33.577,27.466 34.997,27.182" id="Fill-20" fill="#7A8133"></path>
            <path d="M35.197,22.562 C45.47,13.909 31.119,10.75 28.956,0.696 C28.929,4.516 27.885,6.041 27.003,7.25 C30.492,10.234 31.576,14.697 32.274,18.104 C32.974,21.513 33.664,25.472 36.581,26.486 C35.086,25.661 34.871,23.948 35.197,22.562" id="Fill-21" fill="#C3982F"></path>
            <path d="M34.997,27.182 C27.091,24.957 31.068,8.39 14.5,8.2 C9.371,8.14 5.208,10.193 3.016,6.734 C5.699,14.427 25.015,7.395 28.609,24.768 C30.736,26.613 33.577,27.466 34.997,27.182" id="Fill-22" fill="#C3982F"></path>
            <path d="M27.003,7.25 C30.492,10.234 31.576,14.697 32.274,18.104 C32.974,21.513 33.664,25.472 36.581,26.486 C35.086,25.661 34.871,23.948 35.197,22.562 C38.863,11.107 31.523,11.953 28.956,0.696 C28.929,4.516 27.885,6.041 27.003,7.25" id="Fill-23" fill="#7A8133"></path>
            <path d="M54.804,65.439 C55.213,65.439 56.228,74.69 56.67,74.69 C57.113,74.69 57.401,70.195 57.401,67.337 C57.401,61.495 55.921,56.759 54.801,56.759 C53.68,56.759 52.199,61.495 52.199,67.337 C52.199,70.203 52.48,74.703 52.934,74.703 C53.388,74.703 54.394,65.439 54.804,65.439" id="Fill-24" fill="#7A8133"></path>
            <path d="M66.554,74.113 C66.674,74.505 58.131,78.197 58.262,78.621 C58.391,79.045 62.772,77.996 65.504,77.154 C71.087,75.435 75.177,72.626 74.848,71.555 C74.517,70.483 69.555,70.463 63.973,72.183 C61.233,73.026 57.015,74.621 57.149,75.055 C57.283,75.488 66.432,73.723 66.554,74.113" id="Fill-25" fill="#7A8133"></path>
            <path d="M61.779,87.897 C61.44,88.127 55.395,81.05 55.03,81.299 C54.664,81.549 56.955,85.426 58.563,87.789 C61.85,92.618 65.74,95.7 66.666,95.069 C67.593,94.44 66.151,89.69 62.864,84.861 C61.251,82.492 58.486,78.932 58.111,79.187 C57.736,79.441 62.117,87.666 61.779,87.897" id="Fill-26" fill="#7A8133"></path>
            <path d="M43.047,74.113 C42.927,74.505 51.47,78.197 51.339,78.621 C51.209,79.045 46.828,77.996 44.096,77.154 C38.514,75.435 34.423,72.626 34.753,71.555 C35.083,70.483 40.045,70.463 45.628,72.183 C48.367,73.026 52.585,74.621 52.451,75.055 C52.317,75.488 43.168,73.723 43.047,74.113" id="Fill-27" fill="#7A8133"></path>
            <path d="M47.832,87.897 C48.17,88.127 54.215,81.05 54.58,81.299 C54.946,81.549 52.655,85.426 51.047,87.789 C47.76,92.618 43.871,95.7 42.944,95.069 C42.018,94.44 43.459,89.69 46.746,84.861 C48.359,82.492 51.124,78.932 51.5,79.187 C51.875,79.441 47.493,87.666 47.832,87.897" id="Fill-28" fill="#7A8133"></path>
            <path d="M72.591,39.481 C65.733,33.546 64.136,39.718 59.582,37.588 C59.31,37.414 58.977,37.228 58.605,37.03 L58.605,37.029 C57.35,36.362 55.684,35.575 54.626,34.812 C52.141,33.025 48.706,33.183 48.706,33.183 C50.553,32.484 51.426,32.868 51.194,32.37 C50.961,31.873 47.892,31.267 42.584,30.994 C32.16,30.462 15.717,36.034 9.619,45.148 C3.521,54.263 1.005,60.191 0.43,69.578 C-0.148,78.968 1.366,86.574 5.008,93.481 C7.062,97.379 9.983,100.869 12.218,103.175 C13.941,104.954 15.412,105.442 12.963,102.642 C7.583,96.491 3.571,87.701 3.812,80.042 C3.925,76.509 4.555,77.524 4.812,79.992 C6.913,100.092 18.599,104.442 24.707,114.691 C25.262,115.622 25.621,115.509 25.166,114.574 C24.171,112.527 25.363,114.346 26,115.629 C26.389,116.413 26.778,116.23 26.562,115.48 C26.512,115.301 26.468,115.135 26.633,115.286 C26.726,115.373 26.895,115.281 26.856,115.068 C26.839,114.97 26.871,114.963 26.903,115.029 C27.637,116.532 28.477,118.542 29.093,120.135 C29.603,121.454 29.957,121.249 29.501,119.949 C26.903,112.542 23.812,107.941 14.613,99.292 C13.721,98.454 14.016,97.617 15.38,99.025 C16.789,100.48 22.945,107.103 26.788,111.941 C27.521,112.865 28.695,112.741 28.09,111.67 C25.014,106.217 20.416,101.164 17.415,96.992 C14.413,92.816 12.015,86.727 11.237,83.614 C10.27,79.748 11.07,78.781 11.989,83.093 C13.464,90.018 16.859,95.338 22.255,100.961 C27.581,106.517 29.548,111.725 32.762,120.565 C33.132,121.585 34.343,121.162 34.047,119.949 C32.52,113.666 29.374,106.483 24.541,101.116 C19.713,95.748 19.067,94.44 17.139,90.607 C15.645,87.634 14.094,83.905 14.105,82.024 C14.116,80.144 17.316,82.704 17.591,82.867 C19.646,84.084 19.791,83.572 21.113,84.158 C22.104,84.695 23.133,84.882 24.129,85.042 C26.026,85.344 27.408,86.339 28.738,85.5 C29.809,84.76 30.129,83.325 28.766,81.782 C28.479,81.457 27.913,81.009 28.263,80.841 C28.416,80.768 28.551,80.607 28.124,80.172 C27.536,79.568 27.458,77.379 27.338,76.931 C26.813,74.973 24.289,75.361 22.788,74.167 C21.013,72.754 20.887,73.096 21.286,73.699 C21.547,74.092 21.413,74.284 20.846,73.625 C19.413,71.959 17.023,70.68 15.863,69.742 C13.969,68.21 11.513,68.392 13.313,61.636 C14.193,58.336 16.392,53.573 21.861,49.996 C26.51,46.955 23.963,47.042 23.846,47.502 C24.389,46.983 24.188,47.123 26.457,45.939 C28.464,44.892 30.609,44.022 32.394,43.77 C35.385,43.345 32.641,42.91 33.557,42.574 C33.993,42.414 35.265,42.276 38.394,42.173 C40.67,42.099 47.049,42.771 53.459,44.433 C54.182,44.619 54.911,44.838 55.615,45.059 L55.614,45.059 C57.436,45.83 58.069,45.706 58.215,46.987 C58.322,49.021 58.756,51.16 63.211,53.427 L63.212,53.425 C63.212,53.425 80.68,62.654 81.238,61.815 C81.795,60.974 64.943,50.852 64.943,50.852 C64.943,50.852 63.956,50.086 64.369,49.511 C64.695,49.059 65.389,49.362 65.672,49.514 L65.793,49.581 L65.794,49.584 C65.794,49.584 82.612,59.826 83.252,58.822 C83.891,57.818 67.459,47.111 67.459,47.111 C67.459,47.111 66.473,46.346 66.884,45.772 C67.298,45.197 68.344,45.793 68.344,45.793 C68.344,45.793 84.533,56.972 85.09,56.092 C85.645,55.212 69.961,43.285 69.961,43.285 C69.771,43.123 69.076,42.481 69.435,41.982 C69.848,41.408 70.861,42.054 70.861,42.054 C70.861,42.054 86.491,53.961 87.16,53.018 C87.828,52.073 72.591,39.481 72.591,39.481" id="Fill-29" fill="#AA1F24"></path>
            <path id="Fill-30" fill="#922429"></path>
            <path id="Fill-31" fill="#922429"></path>
        </g>
    </g>
</svg>