<?xml version="1.0" encoding="UTF-8"?>
<svg width="80px" height="80px" viewBox="0 0 80 80" version="1.1" xmlns="http://www.w3.org/2000/svg" xmlns:xlink="http://www.w3.org/1999/xlink">
    <!-- Generator: Sketch 40.3 (33839) - http://www.bohemiancoding.com/sketch -->
    <title>avatar</title>
    <desc>Created with Sketch.</desc>
    <defs></defs>
    <g id="assets" stroke="none" stroke-width="1" fill="none" fill-rule="evenodd">
        <g id="avatar">
            <rect id="Rectangle" fill="#737A7E" x="0" y="0" width="80" height="80" rx="40"></rect>
            <g id="iconic-mark" transform="translate(18.500000, 25.000000)">
                <path d="M21.5096759,29.9555621 C13.3581442,29.9555621 6.72686727,23.2579237 6.72686727,15.0248168 C6.72686727,6.79232871 13.3581442,0.0940714318 21.5096759,0.0940714318 C29.6612076,0.0940714318 36.2924845,6.79232871 36.2924845,15.0248168 C36.2924845,23.2579237 29.6612076,29.9555621 21.5096759,29.9555621 L21.5096759,29.9555621 Z M21.5096759,3.18852643 C15.0481332,3.18852643 9.79066181,8.4986112 9.79066181,15.0248168 C9.79066181,21.5516412 15.0481332,26.8611071 21.5096759,26.8611071 C27.9712186,26.8611071 33.22869,21.5516412 33.22869,15.0248168 C33.22869,8.4986112 27.9712186,3.18852643 21.5096759,3.18852643 L21.5096759,3.18852643 Z" id="Fill-1" fill="#A7D3E6"></path>
                <path d="M36.3451818,29.9555621 C35.9818157,29.9555621 35.6172242,29.825595 35.3243254,29.5625663 C34.6937965,28.9931866 34.639261,28.0147199 35.2029992,27.3772622 C38.2122582,23.9764562 39.8691582,19.5897568 39.8691582,15.0248168 C39.8691582,10.4598768 38.2122582,6.07317737 35.2036119,2.67299022 C34.6398737,2.03615139 34.6944093,1.05830361 35.3249382,0.488304998 C35.9566926,-0.0810747208 36.9248517,-0.0253745309 37.4885899,0.610845416 C40.9996984,4.5791745 42.9329528,9.69802195 42.9329528,15.0248168 C42.9329528,20.3516116 40.9990857,25.4704591 37.4879771,29.439407 C37.1852742,29.7816538 36.7661471,29.9555621 36.3451818,29.9555621" id="Fill-2" fill="#FFFFFF"></path>
                <path d="M6.66130207,29.9407087 C6.23972394,29.9407087 5.82059685,29.7661815 5.51728119,29.4233159 C2.01536404,25.4574623 0.0863990058,20.3441849 0.0863990058,15.0248168 C0.0863990058,9.69740306 2.02026611,4.57793672 5.53198741,0.609607634 C6.0957256,-0.0266123129 7.06388467,-0.0829313938 7.69502635,0.487686107 C8.32555526,1.05644693 8.3800908,2.0349136 7.81635261,2.67175244 C4.80709362,6.07255848 3.15019354,10.4592579 3.15019354,15.0248168 C3.15019354,19.5835679 4.80280431,23.9653161 7.80409743,27.3636466 C8.36722287,28.0011043 8.31207457,28.9789521 7.68032013,29.547713 C7.38864689,29.8113605 7.02405534,29.9407087 6.66130207,29.9407087" id="Fill-3" fill="#FFFFFF"></path>
            </g>
        </g>
    </g>
</svg>