<?xml version="1.0" encoding="UTF-8" standalone="no"?>
<svg width="150px" height="143px" viewBox="0 0 150 143" version="1.1" xmlns="http://www.w3.org/2000/svg" xmlns:xlink="http://www.w3.org/1999/xlink">
    <!-- Generator: Sketch 3.6.1 (26313) - http://www.bohemiancoding.com/sketch -->
    <title>funded-with-kickstarter</title>
    <desc>Created with Sketch.</desc>
    <defs></defs>
    <g id="assets" stroke="none" stroke-width="1" fill="none" fill-rule="evenodd">
        <g id="funded-with-kickstarter" transform="translate(0.000000, -1.000000)">
            <g id="Group-3" transform="translate(0.000000, 0.908200)" fill="#13E06E">
                <path d="M74.6758,138.8106 C78.3938,138.8106 82.1218,139.9446 85.7178,141.0426 C89.0158,142.0486 92.1298,143.0006 94.9178,143.0006 C95.9718,143.0006 96.8978,142.8646 97.7578,142.5846 C101.3518,141.4186 104.0478,137.8146 106.9018,134.0046 C109.0898,131.0766 111.3558,128.0466 114.2118,125.9706 C117.1098,123.8606 120.7178,122.6226 124.2118,121.4246 C128.6878,119.8906 132.9098,118.4386 135.0938,115.4406 C137.2458,112.4866 137.3198,108.0406 137.4058,103.3406 C137.4758,99.6286 137.5478,95.7906 138.6638,92.3386 C139.7338,89.0446 141.8858,85.9986 143.9678,83.0506 C146.7378,79.1306 149.3518,75.4286 149.3518,71.5466 C149.3518,67.6666 146.7378,63.9626 143.9678,60.0426 C141.8858,57.0926 139.7378,54.0486 138.6678,50.7506 C137.5478,47.2966 137.4758,43.4626 137.4058,39.7526 C137.3198,35.0486 137.2458,30.6026 135.0938,27.6486 C132.9098,24.6526 128.6878,23.1986 124.2118,21.6666 C120.7178,20.4686 117.1098,19.2306 114.2118,17.1206 C111.3558,15.0406 109.0938,12.0186 106.9018,9.0926 C104.0478,5.2746 101.3518,1.6706 97.7578,0.5066 C96.9018,0.2266 95.9718,0.0926 94.9178,0.0926 C92.1338,0.0926 89.0158,1.0406 85.7178,2.0466 C82.1218,3.1446 78.3938,4.2786 74.6758,4.2786 C70.9618,4.2786 67.2338,3.1446 63.6338,2.0466 C60.3358,1.0406 57.2218,0.0926 54.4378,0.0926 C53.3838,0.0926 52.4538,0.2266 51.5978,0.5066 C47.9998,1.6706 45.3078,5.2746 42.4538,9.0886 C40.2618,12.0166 37.9998,15.0406 35.1438,17.1206 C32.2458,19.2306 28.6358,20.4686 25.1398,21.6666 C20.6678,23.1986 16.4418,24.6506 14.2578,27.6486 C12.1098,30.6026 12.0318,35.0486 11.9458,39.7526 C11.8798,43.4626 11.8078,47.2966 10.6878,50.7506 C9.6178,54.0486 7.4658,57.0926 5.3858,60.0426 C2.6178,63.9626 -0.0002,67.6666 -0.0002,71.5466 C-0.0002,75.4286 2.6178,79.1306 5.3858,83.0486 C7.4658,85.9986 9.6178,89.0446 10.6878,92.3386 C11.8078,95.7906 11.8798,99.6286 11.9458,103.3406 C12.0318,108.0406 12.1098,112.4866 14.2578,115.4406 C16.4418,118.4386 20.6678,119.8906 25.1398,121.4246 C28.6358,122.6226 32.2458,123.8606 35.1438,125.9706 C37.9998,128.0466 40.2618,131.0746 42.4538,134.0046 C45.3078,137.8146 47.9998,141.4186 51.5978,142.5846 C52.4538,142.8646 53.3838,143.0006 54.4378,143.0006 C57.2218,143.0006 60.3358,142.0486 63.6338,141.0426 C67.2338,139.9446 70.9618,138.8106 74.6758,138.8106" id="Fill-1"></path>
            </g>
            <path d="M75.2734,79.2324 L72.3594,75.5384 L74.7454,72.0744 C74.9914,71.7144 75.1174,71.2964 75.1174,70.8284 C75.1174,70.1884 74.8834,69.6404 74.4094,69.1824 C73.9374,68.7244 73.3834,68.4944 72.7334,68.4944 C71.9454,68.4944 71.3014,68.8564 70.8014,69.5784 L68.1554,73.4064 L68.1554,71.1384 C68.1554,70.6444 68.1374,70.3104 68.0934,70.1284 C68.0234,69.8384 67.8594,69.5504 67.5934,69.2664 C67.1254,68.7504 66.5354,68.4944 65.8234,68.4944 C65.0814,68.4944 64.4994,68.7504 64.0774,69.2644 C63.6754,69.7504 63.4774,70.3664 63.4734,71.1164 L63.4734,80.2204 C63.4734,81.0144 63.6714,81.6484 64.0694,82.1244 C64.4914,82.6464 65.0854,82.9044 65.8554,82.9044 C66.7034,82.9044 67.3474,82.5524 67.7934,81.8444 C68.0354,81.4564 68.1554,80.9124 68.1554,80.2124 L68.1554,77.7564 L71.7274,82.2084 C72.1014,82.6744 72.6454,82.9044 73.3594,82.9044 C74.0114,82.9044 74.5654,82.6704 75.0234,82.2024 C75.4834,81.7364 75.7114,81.1764 75.7114,80.5244 C75.7114,80.0304 75.5634,79.6004 75.2734,79.2324 L75.2734,79.2324 Z M56.0974,72.9284 C56.9014,72.9284 57.5694,73.2184 58.1054,73.8004 C58.6794,74.4284 59.0394,74.7744 59.1874,74.8524 C59.5354,75.0324 59.8994,75.1224 60.2814,75.1224 C60.7454,75.1224 61.1754,74.9924 61.5694,74.7284 C62.2654,74.2724 62.6094,73.6244 62.6094,72.7924 C62.6094,71.8144 62.0434,70.8684 60.9054,69.9524 C59.4534,68.7844 57.8674,68.2064 56.1374,68.2124 C54.1214,68.2284 52.4094,68.9004 50.9994,70.2344 C49.4014,71.7464 48.6054,73.5784 48.6054,75.7264 C48.6054,77.1624 48.9874,78.4864 49.7534,79.6984 C50.5234,80.9064 51.5554,81.8244 52.8514,82.4464 C53.8794,82.9404 54.9694,83.1864 56.1294,83.1864 C57.9994,83.1864 59.6514,82.5624 61.0814,81.3124 C62.1014,80.4264 62.6094,79.5484 62.6094,78.6824 C62.6094,78.0424 62.3754,77.4984 61.9094,77.0544 C61.4414,76.6084 60.8874,76.3824 60.2494,76.3824 C59.6954,76.3824 59.2334,76.5384 58.8754,76.8524 C58.5434,77.1764 58.2074,77.5044 57.8674,77.8284 C57.3194,78.2584 56.7274,78.4744 56.0854,78.4744 C55.3154,78.4744 54.6714,78.2044 54.1474,77.6664 C53.6214,77.1304 53.3594,76.4764 53.3594,75.7044 C53.3594,74.9304 53.6214,74.2724 54.1474,73.7344 C54.6714,73.1964 55.3194,72.9284 56.0974,72.9284 L56.0974,72.9284 Z M45.3634,68.4944 C44.6514,68.4944 44.0734,68.7484 43.6254,69.2564 C43.2274,69.6984 43.0314,70.4144 43.0314,71.3964 L43.0314,80.2124 C43.0314,81.0784 43.2274,81.7244 43.6254,82.1464 C44.0934,82.6524 44.6714,82.9044 45.3634,82.9044 C46.1094,82.9064 46.6954,82.6344 47.1214,82.0964 C47.5154,81.6044 47.7114,80.9744 47.7114,80.2124 L47.7114,71.3964 C47.7114,70.4204 47.5074,69.7024 47.1014,69.2464 C46.6474,68.7444 46.0694,68.4944 45.3634,68.4944 L45.3634,68.4944 Z M41.7034,79.2344 C41.9914,79.6004 42.1414,80.0304 42.1414,80.5244 C42.1414,81.1764 41.9094,81.7364 41.4534,82.2024 C40.9954,82.6724 40.4414,82.9044 39.7934,82.9064 C39.0734,82.9044 38.5314,82.6744 38.1554,82.2084 L34.5854,77.7564 L34.5894,80.2124 C34.5854,80.9144 34.4654,81.4564 34.2234,81.8444 C33.7774,82.5504 33.1334,82.9044 32.2894,82.9044 C31.5194,82.9044 30.9214,82.6464 30.4954,82.1244 C30.1014,81.6464 29.9054,81.0144 29.9054,80.2204 L29.9054,71.1164 C29.9054,70.3664 30.1054,69.7504 30.5074,69.2664 C30.9294,68.7504 31.5154,68.4944 32.2574,68.4944 C32.9654,68.4944 33.5554,68.7524 34.0234,69.2664 C34.2894,69.5504 34.4534,69.8384 34.5234,70.1284 C34.5654,70.3104 34.5854,70.6464 34.5854,71.1384 L34.5854,73.4064 L37.2314,69.5784 C37.7314,68.8564 38.3754,68.4944 39.1634,68.4944 C39.8094,68.4944 40.3674,68.7244 40.8394,69.1824 C41.3134,69.6404 41.5474,70.1884 41.5474,70.8284 C41.5474,71.2964 41.4214,71.7144 41.1714,72.0744 L38.7934,75.5384 L41.7034,79.2344 Z" id="Fill-4" fill="#000000"></path>
            <path d="M111.0118,95.5704 L109.9098,93.8004 C110.9298,92.6624 111.4418,91.4524 111.4378,90.1684 C111.4418,89.4824 111.2938,88.7984 110.9998,88.1184 C110.6138,87.2164 109.9958,86.4844 109.1598,85.9184 C108.3198,85.3544 107.4098,85.0704 106.4338,85.0704 L103.4578,85.0704 C101.5238,85.0704 100.5538,85.9684 100.5538,87.7664 L100.5538,96.5164 C100.5538,97.3444 100.7418,98.0084 101.1178,98.5164 C101.5318,99.0924 102.1438,99.3764 102.9498,99.3784 C103.6058,99.3764 104.1518,99.1484 104.5858,98.6924 C105.0198,98.2324 105.2378,97.6764 105.2338,97.0164 L105.2378,95.0924 L107.1958,98.2944 C107.6338,99.0184 108.2698,99.3764 109.1178,99.3784 C109.7778,99.3764 110.3318,99.1604 110.7898,98.7284 C111.2418,98.2924 111.4718,97.7504 111.4718,97.0904 C111.4718,96.5684 111.3158,96.0624 111.0118,95.5704 L111.0118,95.5704 Z M97.1478,89.4604 C97.9178,89.4604 98.5238,89.2824 98.9658,88.9304 C99.4658,88.5344 99.7158,87.9624 99.7158,87.2144 C99.7158,86.5204 99.4298,85.9564 98.8598,85.5284 C98.5398,85.2844 98.1338,85.1404 97.6338,85.0904 C97.5078,85.0784 97.0658,85.0704 96.3018,85.0704 L93.4998,85.0684 C92.7578,85.0684 92.2658,85.0904 92.0238,85.1324 C91.5118,85.2304 91.0898,85.4544 90.7538,85.8084 C90.4658,86.1204 90.2818,86.5044 90.2038,86.9544 C90.1638,87.1764 90.1398,87.6084 90.1398,88.2544 L90.1398,95.9744 C90.1398,96.8284 90.2038,97.4424 90.3278,97.8164 C90.5318,98.4004 90.9418,98.8204 91.5658,99.0784 C91.8858,99.2084 92.4758,99.2744 93.3358,99.2744 L96.9878,99.2744 C97.8898,99.2744 98.5398,99.1084 98.9338,98.7764 C99.4418,98.3464 99.6958,97.7804 99.6958,97.0884 C99.6958,96.4104 99.4418,95.8544 98.9338,95.4244 C98.5078,95.0644 97.8518,94.8804 96.9718,94.8804 L94.8438,94.8804 L94.8438,93.8104 L96.5158,93.8104 C97.8898,93.8104 98.5778,93.2464 98.5778,92.1144 C98.5778,91.5824 98.3938,91.1604 98.0198,90.8564 C97.6678,90.5704 97.2218,90.4304 96.6838,90.4304 L94.8438,90.4304 L94.8438,89.4604 L97.1478,89.4604 Z M88.0318,85.2784 C87.6878,85.1404 86.9418,85.0704 85.7818,85.0704 L81.0538,85.0684 C79.7198,85.0704 78.8718,85.1504 78.5158,85.3044 C78.1558,85.4604 77.8638,85.7244 77.6398,86.0964 C77.4138,86.4664 77.3018,86.8544 77.3018,87.2564 C77.3018,87.9284 77.5438,88.4664 78.0198,88.8664 C78.4698,89.2444 79.0398,89.4324 79.7258,89.4324 L80.9658,89.4324 L80.9658,96.5584 C80.9658,97.3764 81.1058,97.9864 81.3898,98.3884 C81.8398,99.0344 82.4878,99.3584 83.3278,99.3584 C84.1638,99.3584 84.8078,99.0024 85.2498,98.2944 C85.5158,97.8724 85.6478,97.2784 85.6478,96.5044 L85.6438,89.4324 L86.7198,89.4324 C87.5518,89.4324 88.1478,89.2624 88.5198,88.9204 C89.0318,88.4424 89.2898,87.8804 89.2898,87.2344 C89.2858,86.8264 89.1718,86.4344 88.9418,86.0664 C88.7078,85.6964 88.4018,85.4324 88.0318,85.2784 L88.0318,85.2784 Z M75.3978,93.8004 C76.4178,92.6624 76.9298,91.4524 76.9298,90.1684 C76.9298,89.4824 76.7858,88.7984 76.4918,88.1184 C76.1018,87.2164 75.4878,86.4844 74.6518,85.9184 C73.8118,85.3544 72.9018,85.0704 71.9258,85.0704 L68.9498,85.0704 C67.0118,85.0704 66.0478,85.9684 66.0478,87.7664 L66.0478,96.5164 C66.0478,97.3444 66.2338,98.0084 66.6098,98.5164 C67.0238,99.0924 67.6338,99.3784 68.4378,99.3764 C69.0978,99.3784 69.6438,99.1484 70.0778,98.6924 C70.5118,98.2324 70.7298,97.6764 70.7298,97.0164 L70.7298,95.0924 L72.6838,98.2944 C73.1218,99.0184 73.7618,99.3764 74.6098,99.3764 C75.2658,99.3784 75.8238,99.1604 76.2778,98.7284 C76.7338,98.2944 76.9618,97.7504 76.9618,97.0884 C76.9618,96.5684 76.8078,96.0624 76.4998,95.5704 L75.3978,93.8004 Z M60.2978,86.3904 C59.8518,85.4424 59.1218,84.9684 58.1018,84.9684 C57.0978,84.9684 56.3798,85.4284 55.9498,86.3504 L51.5078,95.8084 C51.3118,96.2244 51.2158,96.6384 51.2158,97.0464 C51.2158,97.5404 51.3478,97.9844 51.6218,98.3784 C52.0778,99.0444 52.7198,99.3764 53.5478,99.3764 C54.2198,99.3764 54.7898,99.1204 55.2618,98.6084 C55.4958,98.3544 55.7258,97.9604 55.9458,97.4344 L60.2978,97.4344 C60.5938,98.0784 60.8938,98.5384 61.1918,98.8184 C61.5938,99.1924 62.0978,99.3784 62.6998,99.3764 C63.4378,99.3784 64.0398,99.0984 64.5118,98.5364 C64.8718,98.1044 65.0518,97.6124 65.0518,97.0584 C65.0518,96.6844 64.9618,96.3064 64.7818,95.9244 L60.2978,86.3904 Z M52.8878,87.2344 C52.8878,86.8264 52.7738,86.4344 52.5398,86.0644 C52.3078,85.6964 52.0038,85.4324 51.6298,85.2784 C51.2898,85.1404 50.5398,85.0704 49.3838,85.0684 L44.6598,85.0704 C43.3198,85.0704 42.4718,85.1504 42.1138,85.3044 C41.7578,85.4604 41.4658,85.7244 41.2378,86.0964 C41.0158,86.4664 40.9018,86.8544 40.9018,87.2564 C40.9018,87.9284 41.1398,88.4664 41.6218,88.8664 C42.0698,89.2424 42.6398,89.4324 43.3278,89.4324 L44.5618,89.4324 L44.5618,96.5584 C44.5618,97.3764 44.7078,97.9864 44.9918,98.3884 C45.4418,99.0344 46.0858,99.3584 46.9258,99.3584 C47.7658,99.3564 48.4058,99.0024 48.8518,98.2944 C49.1178,97.8724 49.2458,97.2784 49.2458,96.5064 L49.2458,89.4324 L50.3198,89.4324 C51.1518,89.4324 51.7498,89.2624 52.1178,88.9204 C52.6338,88.4424 52.8878,87.8784 52.8878,87.2344 L52.8878,87.2344 Z M39.1438,91.4684 C40.0938,92.2604 40.5658,93.3684 40.5658,94.7984 C40.5658,96.3544 40.0358,97.5684 38.9658,98.4424 C37.9718,99.2524 36.6838,99.6604 35.0978,99.6584 C33.5078,99.6604 32.1918,99.2364 31.1518,98.3884 C30.3198,97.7164 29.9058,96.9304 29.9058,96.0284 C29.9058,95.4244 30.1098,94.9204 30.5198,94.5204 C30.9298,94.1144 31.4338,93.9124 32.0398,93.9064 C32.5538,93.9064 33.1138,94.1324 33.7038,94.5924 C34.4378,95.1684 34.9418,95.4544 35.2118,95.4544 C35.6138,95.4544 35.8158,95.2464 35.8158,94.8304 C35.8158,94.6024 35.6958,94.4084 35.4618,94.2484 C35.3358,94.1664 34.6338,93.8984 33.3598,93.4464 C31.2698,92.7124 30.2258,91.3524 30.2258,89.3684 C30.2258,87.8704 30.7778,86.6884 31.8798,85.8184 C32.8438,85.0644 34.0398,84.6864 35.4618,84.6864 C36.6878,84.6864 37.7538,84.9784 38.6638,85.5644 C39.5738,86.1504 40.0278,86.9044 40.0278,87.8284 C40.0278,88.3844 39.8558,88.8444 39.5118,89.2164 C39.1678,89.5884 38.7218,89.7744 38.1758,89.7744 C37.6018,89.7744 36.9618,89.5004 36.2578,88.9504 C35.8238,88.6124 35.4958,88.4424 35.2738,88.4424 C34.8898,88.4424 34.6998,88.6284 34.6998,89.0044 C34.6998,89.3584 35.1718,89.6824 36.1138,89.9704 C37.4178,90.3804 38.4298,90.8804 39.1438,91.4684 L39.1438,91.4684 Z" id="Fill-6" fill="#FFFFFF"></path>
            <path d="M67.6504,35.6874 C67.4604,35.6874 49.0804,35.9214 41.8824,51.6134 L39.5524,49.6734 L40.5664,59.1454 L46.6444,51.8094 L43.8504,52.1154 C50.6184,37.9294 67.4744,37.6874 67.6504,37.6874 C68.2024,37.6874 68.6504,37.2374 68.6504,36.6874 C68.6504,36.1354 68.2024,35.6874 67.6504,35.6874" id="Fill-8" fill="#FFFFFF"></path>
            <path d="M114.379,32.5986 C114.105,32.0626 113.811,31.7186 113.495,31.5646 C113.177,31.4126 112.863,31.3926 112.551,31.5086 C112.241,31.6226 111.941,31.8446 111.659,32.1726 C111.373,32.5006 111.131,32.8766 110.927,33.3046 C110.727,33.7286 110.577,34.1806 110.477,34.6566 C110.379,35.1326 110.353,35.5746 110.405,35.9846 C110.453,36.3946 110.591,36.7466 110.823,37.0426 C111.051,37.3366 111.395,37.5166 111.853,37.5826 C112.127,37.5826 112.379,37.4906 112.609,37.3046 C112.837,37.1186 113.045,36.8786 113.233,36.5826 C113.419,36.2866 113.585,35.9546 113.733,35.5826 C113.879,35.2106 114.001,34.8426 114.091,34.4746 C114.185,34.1086 114.255,33.7606 114.307,33.4266 C114.355,33.0926 114.379,32.8166 114.379,32.5986 M116.053,33.7226 C116.053,34.5806 116.049,35.3746 116.043,36.1066 C116.037,36.8406 116.033,37.4766 116.027,38.0166 C116.021,38.5586 116.019,38.9486 116.019,39.1886 C115.965,39.1886 115.879,39.1786 115.765,39.1566 C115.651,39.1346 115.535,39.1046 115.421,39.0666 C115.307,39.0286 115.205,38.9786 115.117,38.9186 C115.029,38.8586 114.987,38.7906 114.987,38.7146 L114.987,35.1886 C114.987,35.6586 114.861,36.1066 114.609,36.5326 C114.357,36.9606 114.041,37.3266 113.659,37.6326 C113.275,37.9386 112.859,38.1706 112.413,38.3286 C111.963,38.4866 111.543,38.5286 111.151,38.4526 C110.755,38.3746 110.417,38.1646 110.133,37.8206 C109.849,37.4766 109.685,36.9606 109.641,36.2706 C109.553,35.7246 109.571,35.1626 109.689,34.5826 C109.811,34.0026 109.997,33.4506 110.249,32.9266 C110.499,32.4006 110.805,31.9366 111.167,31.5326 C111.527,31.1286 111.915,30.8366 112.331,30.6546 C112.747,30.4746 113.167,30.4326 113.591,30.5246 C114.019,30.6166 114.423,30.9046 114.807,31.3846 L114.823,24.6626 C114.823,24.6306 114.851,24.6046 114.913,24.5886 C114.973,24.5726 115.047,24.5606 115.133,24.5566 C115.221,24.5506 115.311,24.5446 115.405,24.5406 C115.499,24.5346 115.571,24.5306 115.625,24.5306 C115.701,24.5306 115.765,24.7146 115.815,25.0806 C115.863,25.4466 115.903,25.9386 115.927,26.5566 C115.955,27.1746 115.981,27.8786 116.003,28.6726 C116.025,29.4646 116.037,30.2886 116.043,31.1466 C116.049,32.0066 116.053,32.8626 116.053,33.7226 M104.149,33.7786 C104.421,33.7786 104.763,33.7486 105.173,33.6886 C105.585,33.6286 105.979,33.5186 106.361,33.3606 C106.745,33.2026 107.071,32.9886 107.337,32.7226 C107.605,32.4546 107.739,32.1066 107.739,31.6806 C107.739,31.5386 107.703,31.3926 107.633,31.2466 C107.561,31.0986 107.471,30.9706 107.361,30.8606 C107.253,30.7506 107.127,30.6606 106.985,30.5906 C106.841,30.5186 106.701,30.4826 106.559,30.4826 C106.121,30.4826 105.751,30.5906 105.443,30.8026 C105.137,31.0166 104.889,31.2846 104.697,31.6066 C104.505,31.9286 104.367,32.2846 104.279,32.6726 C104.191,33.0606 104.149,33.4286 104.149,33.7786 M108.625,36.9026 C108.865,36.7226 109.143,36.6326 109.461,36.6326 C109.461,36.9486 109.339,37.2546 109.099,37.5506 C108.859,37.8446 108.567,38.1106 108.223,38.3446 C107.879,38.5806 107.519,38.7686 107.149,38.9106 C106.777,39.0526 106.461,39.1246 106.197,39.1246 C105.739,39.1246 105.297,39.0286 104.869,38.8366 C104.443,38.6446 104.103,38.3426 103.853,37.9266 C103.493,36.7346 103.257,35.7006 103.149,34.8206 C103.039,33.9406 103.025,33.1886 103.107,32.5646 C103.189,31.9426 103.349,31.4346 103.591,31.0406 C103.833,30.6466 104.121,30.3466 104.459,30.1386 C104.799,29.9326 105.169,29.8006 105.567,29.7446 C105.965,29.6906 106.367,29.6846 106.771,29.7286 C106.979,29.7286 107.187,29.7846 107.395,29.8926 C107.601,30.0026 107.793,30.1406 107.969,30.3106 C108.143,30.4806 108.285,30.6686 108.395,30.8766 C108.503,31.0846 108.559,31.2926 108.559,31.5006 C108.559,32.0786 108.421,32.5646 108.141,32.9586 C107.861,33.3526 107.509,33.6786 107.085,33.9346 C106.657,34.1906 106.189,34.3886 105.681,34.5246 C105.173,34.6606 104.689,34.7566 104.231,34.8106 L104.231,34.9686 C104.231,35.0386 104.229,35.1186 104.223,35.2046 C104.217,35.2926 104.213,35.3726 104.213,35.4426 L104.213,35.5986 C104.213,35.8826 104.263,36.1866 104.361,36.5086 C104.459,36.8306 104.605,37.1286 104.795,37.4026 C104.987,37.6766 105.217,37.9026 105.485,38.0826 C105.753,38.2646 106.051,38.3526 106.379,38.3526 C106.683,38.3526 106.961,38.2646 107.205,38.0826 C107.451,37.9026 107.689,37.7066 107.921,37.4926 C108.149,37.2786 108.385,37.0826 108.625,36.9026 M100.033,32.5986 C99.759,32.0626 99.465,31.7186 99.147,31.5646 C98.831,31.4126 98.515,31.3926 98.205,31.5086 C97.893,31.6226 97.595,31.8446 97.311,32.1726 C97.027,32.5006 96.783,32.8766 96.583,33.3046 C96.379,33.7286 96.229,34.1806 96.131,34.6566 C96.033,35.1326 96.007,35.5746 96.057,35.9846 C96.105,36.3946 96.247,36.7466 96.475,37.0426 C96.705,37.3366 97.049,37.5166 97.507,37.5826 C97.781,37.5826 98.033,37.4906 98.261,37.3046 C98.493,37.1186 98.699,36.8786 98.885,36.5826 C99.071,36.2866 99.239,35.9546 99.385,35.5826 C99.533,35.2106 99.653,34.8426 99.747,34.4746 C99.837,34.1086 99.911,33.7606 99.959,33.4266 C100.007,33.0926 100.033,32.8166 100.033,32.5986 M101.697,31.1466 C101.703,32.0066 101.705,32.8626 101.705,33.7226 C101.705,34.5806 101.703,35.3746 101.697,36.1066 C101.691,36.8406 101.685,37.4766 101.681,38.0166 C101.675,38.5586 101.671,38.9486 101.671,39.1886 C101.617,39.1886 101.533,39.1786 101.419,39.1566 C101.303,39.1346 101.189,39.1046 101.075,39.0666 C100.959,39.0286 100.857,38.9786 100.771,38.9186 C100.683,38.8586 100.639,38.7906 100.639,38.7146 L100.639,35.1886 C100.639,35.6586 100.513,36.1066 100.261,36.5326 C100.011,36.9606 99.693,37.3266 99.311,37.6326 C98.929,37.9386 98.513,38.1706 98.065,38.3286 C97.617,38.4866 97.197,38.5286 96.803,38.4526 C96.411,38.3746 96.071,38.1646 95.787,37.8206 C95.503,37.4766 95.337,36.9606 95.295,36.2706 C95.207,35.7246 95.223,35.1626 95.343,34.5826 C95.463,34.0026 95.651,33.4506 95.901,32.9266 C96.153,32.4006 96.459,31.9366 96.819,31.5326 C97.179,31.1286 97.569,30.8366 97.983,30.6546 C98.399,30.4746 98.821,30.4326 99.247,30.5246 C99.671,30.6166 100.077,30.9046 100.459,31.3846 L100.475,24.6626 C100.475,24.6306 100.505,24.6046 100.567,24.5886 C100.625,24.5726 100.699,24.5606 100.787,24.5566 C100.875,24.5506 100.965,24.5446 101.057,24.5406 C101.151,24.5346 101.225,24.5306 101.279,24.5306 C101.355,24.5306 101.419,24.7146 101.467,25.0806 C101.517,25.4466 101.555,25.9386 101.583,26.5566 C101.609,27.1746 101.635,27.8786 101.657,28.6726 C101.677,29.4646 101.691,30.2886 101.697,31.1466 M94.253,31.5646 C94.151,31.1506 93.991,30.7666 93.777,30.4186 C93.565,30.0686 93.297,29.7806 92.975,29.5566 C92.653,29.3326 92.277,29.2206 91.851,29.2206 C91.207,29.2206 90.681,29.3606 90.277,29.6386 C89.873,29.9186 89.539,30.2646 89.277,30.6806 C89.015,31.0966 88.799,31.5466 88.629,32.0326 C88.459,32.5186 88.287,32.9706 88.113,33.3866 L88.327,29.9906 L87.523,29.9746 L87.523,31.2126 L87.523,32.3106 C87.523,32.6786 87.525,33.0626 87.531,33.4686 C87.537,33.8726 87.545,34.3366 87.555,34.8606 C87.567,35.3866 87.583,35.9926 87.605,36.6806 C87.627,37.3706 87.655,38.1786 87.687,39.1066 C87.849,39.0866 87.979,39.0666 88.073,39.0506 C88.165,39.0346 88.253,39.0166 88.335,39.0006 C88.417,38.9846 88.463,38.9766 88.475,38.9766 C88.573,38.4526 88.635,37.9186 88.663,37.3786 C88.689,36.8366 88.717,36.2986 88.745,35.7626 C88.771,35.2266 88.821,34.6966 88.893,34.1726 C88.963,33.6466 89.101,33.1366 89.311,32.6406 C89.517,32.1406 89.811,31.6686 90.187,31.2226 C90.565,30.7726 91.071,30.3566 91.703,29.9746 C92.021,29.9746 92.299,30.0726 92.539,30.2706 C92.781,30.4666 92.981,30.7066 93.139,30.9906 C93.297,31.2746 93.419,31.5766 93.499,31.8926 C93.581,32.2106 93.623,32.4946 93.623,32.7466 L93.803,38.7146 L94.179,39.1066 L94.589,38.7146 L94.409,32.7466 C94.409,32.3746 94.357,31.9806 94.253,31.5646 M86.367,38.1066 C86.373,38.2266 86.375,38.3046 86.375,38.3366 C86.375,38.4246 86.373,38.5146 86.367,38.6066 C86.361,38.7006 86.333,38.7766 86.277,38.8366 C86.223,38.8966 86.127,38.9326 85.991,38.9426 C85.853,38.9546 85.649,38.9286 85.375,38.8606 L85.341,32.8606 C85.189,33.2426 85.067,33.6646 84.973,34.1226 C84.881,34.5826 84.791,35.0406 84.703,35.5006 C84.615,35.9606 84.507,36.4026 84.383,36.8286 C84.257,37.2546 84.083,37.6246 83.857,37.9346 C83.635,38.2466 83.343,38.4806 82.991,38.6406 C82.635,38.7986 82.177,38.8466 81.619,38.7786 C81.259,38.7786 80.953,38.5906 80.701,38.2146 C80.451,37.8366 80.243,37.3566 80.079,36.7706 C79.917,36.1866 79.787,35.5386 79.693,34.8286 C79.601,34.1186 79.529,33.4286 79.481,32.7626 C79.431,32.0966 79.401,31.4946 79.391,30.9586 C79.387,30.7766 79.385,30.6366 79.381,30.4866 L75.751,30.7626 L76.227,39.1886 L75.161,39.1886 C75.105,38.9926 75.057,38.7006 75.011,38.3126 C74.969,37.9246 74.925,37.4866 74.881,37.0006 C74.837,36.5146 74.799,35.9886 74.767,35.4266 C74.735,34.8646 74.703,34.3046 74.675,33.7466 C74.649,33.1886 74.627,32.6526 74.611,32.1406 C74.593,31.6266 74.581,31.1666 74.571,30.7626 L74.463,30.7626 C74.415,30.7626 74.357,30.7606 74.291,30.7546 C74.225,30.7486 74.163,30.7466 74.103,30.7466 L73.981,30.7466 L72.045,30.6966 L72.045,29.8446 L74.571,29.5826 C74.559,29.3186 74.557,28.9706 74.563,28.5326 C74.567,28.0946 74.599,27.6306 74.661,27.1386 C74.721,26.6466 74.819,26.1526 74.955,25.6546 C75.091,25.1566 75.283,24.7206 75.529,24.3426 C75.775,23.9666 76.087,23.6766 76.463,23.4746 C76.841,23.2706 77.303,23.2146 77.849,23.3026 C78.099,23.3026 78.385,23.3526 78.701,23.4586 C79.019,23.5606 79.315,23.7066 79.587,23.8926 C79.861,24.0786 80.089,24.3006 80.275,24.5566 C80.461,24.8126 80.555,25.0886 80.555,25.3846 C80.269,25.3846 80.015,25.3186 79.791,25.1866 C79.569,25.0566 79.345,24.9106 79.127,24.7526 C78.911,24.5946 78.685,24.4486 78.455,24.3186 C78.227,24.1866 77.963,24.1226 77.669,24.1226 C77.297,24.1226 76.995,24.2306 76.759,24.4486 C76.523,24.6686 76.337,24.9506 76.201,25.2946 C76.065,25.6386 75.971,26.0186 75.921,26.4326 C75.873,26.8486 75.843,27.2586 75.833,27.6626 C75.823,28.0666 75.825,28.4426 75.839,28.7866 C75.857,29.1306 75.865,29.3946 75.865,29.5826 L79.489,29.7286 L79.489,29.7346 L80.473,29.3526 C80.439,29.6026 80.423,29.9626 80.423,30.4266 C80.423,30.8906 80.439,31.4066 80.473,31.9746 C80.505,32.5446 80.557,33.1346 80.629,33.7466 C80.699,34.3586 80.789,34.9346 80.899,35.4746 C81.007,36.0166 81.139,36.4926 81.293,36.9026 C81.445,37.3126 81.619,37.5986 81.817,37.7626 C82.013,37.9266 82.233,37.9426 82.473,37.8126 C82.713,37.6826 82.981,37.3366 83.275,36.7786 C83.539,36.0806 83.745,35.4406 83.891,34.8606 C84.039,34.2826 84.159,33.7086 84.253,33.1406 C84.345,32.5706 84.425,31.9866 84.499,31.3846 C84.569,30.7846 84.655,30.1066 84.753,29.3526 C84.905,29.0666 85.101,28.9266 85.341,28.9266 C85.363,28.9266 85.401,28.9286 85.449,28.9326 C85.499,28.9386 85.527,28.9426 85.539,28.9426 C85.561,29.1486 85.593,29.4666 85.637,29.8926 C85.681,30.3186 85.727,30.8026 85.777,31.3446 C85.827,31.8846 85.881,32.4546 85.941,33.0506 C86.001,33.6446 86.055,34.2146 86.103,34.7546 C86.155,35.2966 86.197,35.7786 86.237,36.2066 C86.273,36.6326 86.299,36.9486 86.309,37.1566 C86.309,37.1666 86.313,37.2306 86.319,37.3446 C86.323,37.4606 86.333,37.5866 86.341,37.7226 C86.353,37.8586 86.361,37.9866 86.367,38.1066" id="Fill-10" fill="#FFFFFF"></path>
            <path d="M97.7656,40.2236 C97.8296,40.1356 97.9116,40.0656 98.0096,40.0116 C98.1096,39.9556 98.2136,39.9176 98.3216,39.8956 C98.4316,39.8736 98.5356,39.8636 98.6356,39.8636 L98.6356,46.2236 C98.8196,45.9836 99.0136,45.7216 99.2176,45.4376 C99.4176,45.1536 99.6376,44.8896 99.8716,44.6496 C100.1076,44.4096 100.3636,44.2076 100.6416,44.0436 C100.9216,43.8796 101.2296,43.7976 101.5676,43.7976 C102.1036,43.7976 102.5536,43.9896 102.9116,44.3716 C103.2736,44.7536 103.5676,45.2416 103.7996,45.8316 C104.0276,46.4216 104.2016,47.0776 104.3136,47.7996 C104.4296,48.5196 104.5116,49.2196 104.5596,49.8976 C104.6096,50.5756 104.6376,51.1916 104.6416,51.7496 C104.6476,52.3076 104.6496,52.7176 104.6496,52.9796 C104.6496,53.1336 104.5916,53.2636 104.4716,53.3736 C104.3496,53.4816 104.2136,53.5376 104.0596,53.5376 C103.9176,53.5376 103.8056,53.5076 103.7176,53.4476 C103.6296,53.3876 103.5476,53.2796 103.4716,53.1276 C103.4716,53.0176 103.4756,52.8236 103.4856,52.5456 C103.4976,52.2656 103.5056,51.9496 103.5116,51.5936 C103.5176,51.2396 103.5196,50.8616 103.5196,50.4636 C103.5196,50.0636 103.5216,49.6856 103.5276,49.3316 C103.5336,48.9756 103.5336,48.6596 103.5276,48.3816 C103.5216,48.1016 103.5196,47.9016 103.5196,47.7816 C103.4976,47.5536 103.4556,47.2716 103.3896,46.9376 C103.3216,46.6036 103.2196,46.2816 103.0756,45.9716 C102.9356,45.6596 102.7536,45.3896 102.5356,45.1676 C102.3176,44.9416 102.0556,44.8316 101.7476,44.8316 C101.3016,44.8316 100.9116,44.9996 100.5836,45.3396 C100.2576,45.6776 99.9836,46.1096 99.7656,46.6356 C99.5476,47.1596 99.3716,47.7376 99.2396,48.3716 C99.1096,49.0076 99.0116,49.6216 98.9456,50.2176 C98.8796,50.8116 98.8416,51.3496 98.8296,51.8316 C98.8196,52.3116 98.8236,52.6576 98.8476,52.8656 L97.6496,52.8816 C97.6716,51.2536 97.6876,49.6836 97.6996,48.1756 C97.6996,47.5296 97.7016,46.8656 97.7076,46.1836 C97.7136,45.4996 97.7136,44.8336 97.7076,44.1836 C97.7016,43.5336 97.6976,42.9156 97.6916,42.3296 C97.6856,41.7456 97.6776,41.2236 97.6656,40.7656 L97.6656,40.5356 C97.6656,40.4156 97.6996,40.3116 97.7656,40.2236 L97.7656,40.2236 Z M89.4356,46.3236 L89.3536,45.3396 L92.0576,45.1916 L92.0576,40.8636 C92.0916,40.8636 92.1716,40.8596 92.2976,40.8536 C92.4216,40.8496 92.5536,40.8476 92.6896,40.8476 C92.8256,40.8476 92.9536,40.8516 93.0676,40.8636 C93.1816,40.8736 93.2396,40.8956 93.2396,40.9296 L93.2396,45.0436 L96.5016,44.5356 C96.5016,44.7216 96.5156,44.8796 96.5436,45.0116 C96.5696,45.1416 96.5896,45.2556 96.5996,45.3476 C96.6116,45.4396 96.6036,45.5136 96.5756,45.5676 C96.5496,45.6236 96.4796,45.6616 96.3716,45.6836 C96.0756,45.7496 95.6656,45.7756 95.1416,45.7656 C94.6176,45.7556 94.0376,45.7976 93.4036,45.8956 C93.4036,45.9196 93.3936,46.0856 93.3796,46.3956 C93.3636,46.7076 93.3496,47.0876 93.3376,47.5356 C93.3256,47.9836 93.3316,48.4716 93.3536,48.9956 C93.3776,49.5196 93.4216,50.0116 93.4936,50.4716 C93.5636,50.9316 93.6716,51.3216 93.8116,51.6436 C93.9556,51.9656 94.1456,52.1496 94.3876,52.1916 C94.6716,52.2476 94.9876,52.1816 95.3376,51.9956 C95.6876,51.8096 96.0176,51.5896 96.3296,51.3316 C96.6416,51.0756 96.9116,50.8256 97.1416,50.5856 C97.3716,50.3456 97.5016,50.1976 97.5356,50.1436 C97.5476,50.1536 97.5616,50.1956 97.5836,50.2656 C97.6056,50.3376 97.6256,50.4136 97.6416,50.4956 C97.6576,50.5776 97.6736,50.6576 97.6916,50.7336 C97.7076,50.8096 97.7156,50.8536 97.7156,50.8636 C97.6176,51.2576 97.4276,51.5896 97.1496,51.8556 C96.8716,52.1236 96.5516,52.3396 96.1916,52.5036 C95.8296,52.6676 95.4556,52.7856 95.0676,52.8556 C94.6796,52.9276 94.3316,52.9636 94.0276,52.9636 C93.7536,52.9636 93.5236,52.8696 93.3376,52.6836 C93.1516,52.4996 92.9976,52.2776 92.8796,52.0196 C92.7576,51.7636 92.6656,51.4956 92.5996,51.2176 C92.5356,50.9376 92.4896,50.7056 92.4696,50.5196 C92.4596,50.4116 92.4416,50.2436 92.4196,50.0196 C92.3976,49.7956 92.3736,49.5456 92.3456,49.2656 C92.3176,48.9876 92.2916,48.6916 92.2636,48.3816 C92.2356,48.0696 92.2136,47.7716 92.1896,47.4876 C92.1676,47.2036 92.1456,46.9476 92.1256,46.7236 C92.1036,46.5016 92.0916,46.3336 92.0916,46.2236 L89.4356,46.3236 Z M89.4356,53.3556 C89.3816,53.3556 89.3096,53.3456 89.2236,53.3236 C89.1356,53.3016 89.0476,53.2696 88.9616,53.2256 C88.8736,53.1816 88.7996,53.1296 88.7376,53.0696 C88.6776,53.0096 88.6476,52.9416 88.6476,52.8656 L88.6336,44.9776 C88.6336,44.9016 88.6616,44.8336 88.7236,44.7736 C88.7836,44.7136 88.8556,44.6616 88.9436,44.6176 C89.0316,44.5736 89.1196,44.5416 89.2056,44.5196 C89.2936,44.4976 89.3656,44.4856 89.4196,44.4856 L89.4356,53.3556 Z M88.7456,42.7976 C88.6696,42.7976 88.5836,42.7696 88.4836,42.7156 C88.3876,42.6616 88.3016,42.5936 88.2296,42.5116 C88.1596,42.4296 88.1116,42.3416 88.0836,42.2476 C88.0576,42.1556 88.0736,42.0756 88.1416,42.0116 C88.1836,41.8796 88.2716,41.7596 88.4016,41.6496 C88.5336,41.5416 88.6696,41.4676 88.8116,41.4296 C88.9556,41.3896 89.0776,41.3956 89.1816,41.4456 C89.2856,41.4936 89.3376,41.6176 89.3376,41.8136 C89.3376,41.9116 89.3296,42.0176 89.3116,42.1336 C89.2976,42.2476 89.2636,42.3556 89.2156,42.4536 C89.1656,42.5516 89.1016,42.6336 89.0256,42.6996 C88.9496,42.7656 88.8556,42.7976 88.7456,42.7976 L88.7456,42.7976 Z M77.8776,53.3896 C77.8316,53.1716 77.7676,52.8616 77.6796,52.4636 C77.5916,52.0636 77.4956,51.6156 77.3916,51.1196 C77.2896,50.6216 77.1816,50.1036 77.0716,49.5696 C76.9636,49.0336 76.8576,48.5176 76.7536,48.0196 C76.6496,47.5216 76.5556,47.0736 76.4676,46.6756 C76.3796,46.2756 76.3076,45.9676 76.2536,45.7496 C76.2536,45.7156 76.2316,45.6456 76.1876,45.5356 C76.1436,45.4276 76.0996,45.3076 76.0576,45.1756 C76.0136,45.0436 75.9716,44.9216 75.9336,44.8076 C75.8936,44.6916 75.8776,44.6176 75.8776,44.5856 C75.8776,44.4756 75.9256,44.3876 76.0236,44.3216 C76.1236,44.2576 76.2356,44.2056 76.3676,44.1676 C76.4996,44.1296 76.6256,44.1036 76.7436,44.0936 C76.8656,44.0816 76.9416,44.0776 76.9736,44.0776 C76.9736,44.1096 76.9756,44.1696 76.9816,44.2576 C76.9876,44.3456 76.9936,44.4376 76.9996,44.5356 C77.0036,44.6336 77.0136,44.7236 77.0236,44.8076 C77.0356,44.8896 77.0416,44.9456 77.0416,44.9776 C77.0956,45.2956 77.1596,45.6616 77.2356,46.0776 C77.3136,46.4916 77.3956,46.9236 77.4816,47.3716 C77.5696,47.8196 77.6636,48.2616 77.7616,48.6916 C77.8596,49.1236 77.9596,49.5096 78.0576,49.8476 C78.1536,50.1856 78.2476,50.4636 78.3356,50.6756 C78.4236,50.8896 78.5056,50.9956 78.5816,50.9956 C78.6036,50.8756 78.6716,50.6376 78.7876,50.2816 C78.8996,49.9276 79.0356,49.5116 79.1876,49.0356 C79.3416,48.5596 79.5076,48.0576 79.6876,47.5276 C79.8696,46.9976 80.0376,46.4956 80.1976,46.0196 C80.3556,45.5436 80.4936,45.1316 80.6156,44.7816 C80.7336,44.4316 80.8096,44.1976 80.8436,44.0776 L81.7276,44.1916 C81.8156,44.4216 81.9616,44.7576 82.1636,45.1996 C82.3656,45.6416 82.5796,46.1016 82.8036,46.5776 C83.0276,47.0536 83.2436,47.5116 83.4516,47.9536 C83.6576,48.3976 83.8076,48.7336 83.8936,48.9636 C83.9156,49.0276 83.9636,49.1516 84.0336,49.3316 C84.1036,49.5116 84.1936,49.7056 84.3036,49.9136 C84.4116,50.1216 84.5336,50.3216 84.6636,50.5116 C84.7956,50.7036 84.9316,50.8376 85.0736,50.9136 C85.0956,50.8696 85.1276,50.7916 85.1636,50.6756 C85.2036,50.5616 85.2396,50.4436 85.2796,50.3236 C85.3176,50.2036 85.3536,50.0896 85.3856,49.9796 C85.4176,49.8696 85.4396,49.7936 85.4516,49.7496 C85.4936,49.5536 85.5656,49.2876 85.6636,48.9536 C85.7636,48.6216 85.8696,48.2516 85.9836,47.8476 C86.0996,47.4436 86.2236,47.0216 86.3536,46.5856 C86.4836,46.1476 86.6036,45.7276 86.7136,45.3236 C86.8216,44.9176 86.9216,44.5496 87.0096,44.2156 C87.0956,43.8836 87.1556,43.6176 87.1896,43.4216 C87.2316,43.3456 87.2836,43.2816 87.3376,43.2316 C87.3916,43.1816 87.4516,43.1636 87.5176,43.1756 C87.5816,43.1856 87.6536,43.2376 87.7296,43.3316 C87.8076,43.4236 87.8896,43.5796 87.9756,43.7976 C87.9756,43.8636 87.9196,44.0816 87.8056,44.4536 C87.6896,44.8256 87.5476,45.2876 87.3776,45.8396 C87.2096,46.3916 87.0256,47.0036 86.8276,47.6756 C86.6316,48.3476 86.4516,49.0116 86.2876,49.6676 C86.1236,50.3236 85.9856,50.9356 85.8776,51.5036 C85.7676,52.0716 85.7196,52.5376 85.7296,52.8976 L84.8776,52.8976 L81.3516,45.3716 C81.2876,45.4156 81.2236,45.4756 81.1636,45.5516 C81.1036,45.6296 81.0296,45.7636 80.9436,45.9536 C80.8556,46.1456 80.7476,46.4196 80.6236,46.7736 C80.4976,47.1296 80.3456,47.6016 80.1716,48.1916 C79.9976,48.7816 79.7896,49.5096 79.5496,50.3736 C79.3076,51.2356 79.0236,52.2796 78.6976,53.5036 L77.8776,53.3896 Z" id="Fill-12" fill="#FFFFFF"></path>
        </g>
    </g>
</svg>