<?xml version="1.0" encoding="UTF-8"?>
<svg width="248px" height="65px" viewBox="0 0 248 65" version="1.1" xmlns="http://www.w3.org/2000/svg" xmlns:xlink="http://www.w3.org/1999/xlink">
    <!-- Generator: Sketch 40.3 (33839) - http://www.bohemiancoding.com/sketch -->
    <title>kickstarter-funding-successful</title>
    <desc>Created with Sketch.</desc>
    <defs></defs>
    <g id="mockups" stroke="none" stroke-width="1" fill="none" fill-rule="evenodd">
        <g id="kickstarter-funding-successful">
            <path d="M0.613861386,57.9836468 C0.613861386,58.1878649 0.790653465,58.3629091 0.996910891,58.3629091 L1.52728713,58.3629091 C1.82194059,58.3629091 1.99873267,58.1878649 1.99873267,57.9836468 L1.99873267,49.289787 L11.3687129,49.289787 C11.8106931,49.289787 11.7517624,48.7646545 11.7517624,48.4437403 C11.7517624,48.2395221 11.5749703,48.0644779 11.3687129,48.0644779 L1.99873267,48.0644779 L1.99873267,39.195574 L12.8125149,39.195574 C13.0187723,39.195574 13.1955644,39.0205299 13.1955644,38.8163117 L13.1955644,38.3203532 C13.1955644,38.1161351 13.0187723,37.9410909 12.8125149,37.9410909 L0.996910891,37.9410909 C0.790653465,37.9410909 0.613861386,38.1161351 0.613861386,38.3203532 L0.613861386,57.9836468 Z M15.4938614,52.8781922 C15.4938614,56.6708156 16.7314059,58.6838234 20.561901,58.6838234 C23.2432475,58.6838234 24.6870495,57.108426 25.0406337,56.6416416 L25.158495,57.9544727 C25.1879604,58.1586909 25.3352871,58.3629091 25.5710099,58.3629091 L25.836198,58.3629091 C26.0424554,58.3629091 26.2487129,58.1586909 26.2487129,57.9252987 L26.2487129,45.3221195 C26.2487129,45.0887273 26.0424554,44.8845091 25.836198,44.8845091 L25.3942178,44.8845091 C25.0995644,44.8845091 24.9522376,45.0303792 24.9522376,45.3221195 L24.9522376,54.920374 C24.5397228,55.5038545 23.2137822,57.4293403 20.650297,57.4293403 C17.8510891,57.4293403 16.7903366,55.999813 16.7903366,52.8781922 L16.7903366,45.3221195 C16.7903366,45.0887273 16.6135446,44.8845091 16.3778218,44.8845091 L15.9358416,44.8845091 C15.7001188,44.8845091 15.4938614,45.0887273 15.4938614,45.3221195 L15.4938614,52.8781922 Z M31.1988911,57.9252987 C31.1988911,58.1586909 31.3167525,58.3629091 31.5819406,58.3629091 L32.0533861,58.3629091 C32.3480396,58.3629091 32.4953663,58.217039 32.4953663,57.9252987 L32.4953663,48.152 C32.6132277,47.9769558 34.3516832,45.8472519 37.1214257,45.8472519 C39.7438416,45.8472519 41.0108515,47.4226494 41.0108515,50.5442701 L41.0108515,57.9252987 C41.0108515,58.1586909 41.2171089,58.3629091 41.4528317,58.3629091 L41.8653465,58.3629091 C42.1010693,58.3629091 42.3073267,58.1586909 42.3073267,57.9252987 L42.3073267,50.4859221 C42.3073267,46.9558649 41.0403168,44.5927688 37.1803564,44.5927688 C34.4695446,44.5927688 32.8194851,46.1973403 32.377505,46.6641247 L32.2301782,45.2345974 C32.2007129,45.0012052 32.0828515,44.8845091 31.8176634,44.8845091 L31.6703366,44.8845091 C31.3756832,44.8845091 31.1988911,45.0887273 31.1988911,45.3221195 L31.1988911,57.9252987 Z M46.1967525,51.6237091 C46.1967525,55.5622026 48.8486337,58.6838234 52.3844752,58.6838234 C55.0068911,58.6838234 56.7748119,57.1959481 57.1578614,56.7291636 L57.2462574,57.9252987 C57.3051881,58.246213 57.4819802,58.3629091 57.7471683,58.3629091 L57.9239604,58.3629091 C58.1302178,58.3629091 58.3659406,58.1586909 58.3659406,57.9252987 L58.3659406,38.3787013 C58.3659406,38.1453091 58.1302178,37.9410909 57.9534257,37.9410909 L57.5114455,37.9410909 C57.2167921,37.9410909 57.0694653,38.1453091 57.0694653,38.3787013 L57.0694653,45.9056 C57.0694653,45.9056 55.3899406,44.5927688 52.7675248,44.5927688 C48.9075644,44.5927688 46.1967525,47.7435636 46.1967525,51.6237091 L46.1967525,51.6237091 Z M47.4932277,51.6237091 C47.4932277,48.4437403 49.8209901,45.8472519 52.9443168,45.8472519 C55.4194059,45.8472519 57.0694653,47.3643013 57.0694653,47.3643013 L57.0694653,55.1537662 C57.0105347,55.2996364 55.4488713,57.4293403 52.4728713,57.4293403 C49.6147327,57.4293403 47.4932277,54.7453299 47.4932277,51.6237091 L47.4932277,51.6237091 Z M63.3161188,57.9252987 C63.3161188,58.1586909 63.4339802,58.3629091 63.6991683,58.3629091 L64.1706139,58.3629091 C64.4652673,58.3629091 64.6125941,58.217039 64.6125941,57.9252987 L64.6125941,45.3221195 C64.6125941,45.0887273 64.3768713,44.8845091 64.1706139,44.8845091 L63.758099,44.8845091 C63.4929109,44.8845091 63.3161188,45.0887273 63.3161188,45.3221195 L63.3161188,57.9252987 Z M63.9348911,41.1502338 C64.5831287,41.1502338 65.0840396,40.6542753 65.0840396,40.0416208 C65.0840396,39.3997922 64.5831287,38.9038338 63.9348911,38.9038338 C63.2866535,38.9038338 62.7562772,39.3997922 62.7562772,40.0416208 C62.7562772,40.6542753 63.2866535,41.1502338 63.9348911,41.1502338 L63.9348911,41.1502338 Z M69.5627723,57.9252987 C69.5627723,58.1586909 69.6806337,58.3629091 69.9458218,58.3629091 L70.4172673,58.3629091 C70.7119208,58.3629091 70.8592475,58.217039 70.8592475,57.9252987 L70.8592475,48.152 C70.9771089,47.9769558 72.7155644,45.8472519 75.4853069,45.8472519 C78.1077228,45.8472519 79.3747327,47.4226494 79.3747327,50.5442701 L79.3747327,57.9252987 C79.3747327,58.1586909 79.5809901,58.3629091 79.8167129,58.3629091 L80.2292277,58.3629091 C80.4649505,58.3629091 80.6712079,58.1586909 80.6712079,57.9252987 L80.6712079,50.4859221 C80.6712079,46.9558649 79.404198,44.5927688 75.5442376,44.5927688 C72.8334257,44.5927688 71.1833663,46.1973403 70.7413861,46.6641247 L70.5940594,45.2345974 C70.5645941,45.0012052 70.4467327,44.8845091 70.1815446,44.8845091 L70.0342178,44.8845091 C69.7395644,44.8845091 69.5627723,45.0887273 69.5627723,45.3221195 L69.5627723,57.9252987 Z M95.4628119,55.7955948 C95.2860198,55.970639 93.6654257,57.4293403 91.3671287,57.4293403 C88.0670099,57.4293403 85.8571089,54.862026 85.8571089,51.565361 C85.8571089,48.4437403 87.9491485,45.8472519 91.0724752,45.8472519 C93.6948911,45.8472519 95.2860198,47.3934753 95.4628119,47.6268675 L95.4628119,55.7955948 Z M95.4628119,58.7129974 C95.4628119,61.8929662 93.4002376,63.4975377 90.7188911,63.4975377 C89.009901,63.4975377 87.477703,62.5639688 86.9473267,62.1263584 C86.6821386,61.9221403 86.5348119,61.9221403 86.3580198,62.1263584 L86.0633663,62.5056208 C85.945505,62.6806649 85.9160396,62.797361 86.122297,63.0015792 C86.711604,63.5558857 88.4500594,64.7520208 90.7188911,64.7520208 C94.1368713,64.7520208 96.7592871,62.5931429 96.7592871,58.7129974 L96.7592871,45.3221195 C96.7592871,45.0303792 96.5235644,44.8845091 96.2878416,44.8845091 L96.1110495,44.8845091 C95.8753267,44.8845091 95.7574653,44.9720312 95.728,45.2345974 L95.6101386,46.1681662 C95.1976238,45.8472519 93.518099,44.5927688 91.0135446,44.5927688 C87.2419802,44.5927688 84.5606337,47.6560416 84.5606337,51.5945351 C84.5606337,55.5622026 87.3893069,58.6838234 91.3376634,58.6838234 C93.606495,58.6838234 95.0797624,57.6043844 95.4628119,57.2834701 L95.4628119,58.7129974 Z M108.250772,56.2623792 C108.633822,56.6124675 110.99105,58.6546494 114.497426,58.6546494 C117.885941,58.6546494 120.920871,56.6999896 120.920871,53.4616727 C120.920871,50.0774857 118.357386,48.6771325 114.320634,47.3059532 C111.344634,46.3432104 109.429386,45.2637714 109.429386,42.7839792 C109.429386,41.1210597 110.784792,38.9038338 114.40903,38.9038338 C116.677861,38.9038338 118.65204,40.2166649 118.740436,40.275013 C119.035089,40.4500571 119.241347,40.3917091 119.388673,40.1291429 L119.624396,39.7498805 C119.830653,39.4289662 119.624396,39.2247481 119.506535,39.137226 C119.506535,39.137226 117.355564,37.6493506 114.438495,37.6493506 C109.841901,37.6493506 108.07398,40.6251013 108.07398,42.8131532 C108.07398,46.1681662 110.342812,47.3643013 113.760792,48.5604364 C117.326099,49.7565714 119.477069,50.9235325 119.477069,53.5200208 C119.477069,55.999813 117.208238,57.4293403 114.526891,57.4293403 C111.550891,57.4293403 109.370455,55.4455065 109.075802,55.1829403 C108.840079,54.9787221 108.633822,55.0662442 108.427564,55.2996364 L108.162376,55.6497247 C107.926653,55.970639 108.07398,56.1165091 108.250772,56.2623792 L108.250772,56.2623792 Z M124.397782,52.8781922 C124.397782,56.6708156 125.635327,58.6838234 129.465822,58.6838234 C132.147168,58.6838234 133.59097,57.108426 133.944554,56.6416416 L134.062416,57.9544727 C134.091881,58.1586909 134.239208,58.3629091 134.474931,58.3629091 L134.740119,58.3629091 C134.946376,58.3629091 135.152634,58.1586909 135.152634,57.9252987 L135.152634,45.3221195 C135.152634,45.0887273 134.946376,44.8845091 134.740119,44.8845091 L134.298139,44.8845091 C134.003485,44.8845091 133.856158,45.0303792 133.856158,45.3221195 L133.856158,54.920374 C133.443644,55.5038545 132.117703,57.4293403 129.554218,57.4293403 C126.75501,57.4293403 125.694257,55.999813 125.694257,52.8781922 L125.694257,45.3221195 C125.694257,45.0887273 125.517465,44.8845091 125.281743,44.8845091 L124.839762,44.8845091 C124.60404,44.8845091 124.397782,45.0887273 124.397782,45.3221195 L124.397782,52.8781922 Z M139.159921,51.6237091 C139.159921,55.7080727 142.342178,58.6838234 146.202139,58.6838234 C149.030812,58.6838234 150.975525,56.9042078 151.535366,56.0873351 C151.653228,55.9122909 151.623762,55.7372468 151.44697,55.5622026 L151.181782,55.3288104 C150.975525,55.1245922 150.769267,55.0954182 150.533545,55.3579844 C150.150495,55.7664208 148.706693,57.4293403 146.231604,57.4293403 C142.990416,57.4293403 140.456396,54.862026 140.456396,51.5945351 C140.456396,48.3853922 143.108277,45.8472519 146.202139,45.8472519 C148.353109,45.8472519 149.885307,47.1017351 150.209426,47.4518234 C150.445149,47.6852156 150.680871,47.7727377 150.946059,47.5101714 L151.181782,47.2767792 C151.358574,47.1017351 151.38804,46.8683429 151.211248,46.6641247 C150.621941,45.9056 148.824554,44.5927688 146.202139,44.5927688 C142.342178,44.5927688 139.159921,47.5685195 139.159921,51.6237091 L139.159921,51.6237091 Z M154.216713,51.6237091 C154.216713,55.7080727 157.39897,58.6838234 161.258931,58.6838234 C164.087604,58.6838234 166.032317,56.9042078 166.592158,56.0873351 C166.71002,55.9122909 166.680554,55.7372468 166.503762,55.5622026 L166.238574,55.3288104 C166.032317,55.1245922 165.826059,55.0954182 165.590337,55.3579844 C165.207287,55.7664208 163.763485,57.4293403 161.288396,57.4293403 C158.047208,57.4293403 155.513188,54.862026 155.513188,51.5945351 C155.513188,48.3853922 158.165069,45.8472519 161.258931,45.8472519 C163.409901,45.8472519 164.942099,47.1017351 165.266218,47.4518234 C165.501941,47.6852156 165.737663,47.7727377 166.002851,47.5101714 L166.238574,47.2767792 C166.415366,47.1017351 166.444832,46.8683429 166.26804,46.6641247 C165.678733,45.9056 163.881347,44.5927688 161.258931,44.5927688 C157.39897,44.5927688 154.216713,47.5685195 154.216713,51.6237091 L154.216713,51.6237091 Z M169.30297,51.5945351 C169.30297,55.5330286 171.866455,58.6838234 175.873743,58.6838234 C178.024713,58.6838234 180.028356,57.7502545 180.823921,57.108426 C181.059644,56.9333818 181.089109,56.6999896 180.971248,56.5832935 L180.647129,56.0873351 C180.499802,55.8831169 180.352475,55.9122909 180.057822,56.0873351 C179.232792,56.6416416 177.78899,57.4293403 175.873743,57.4293403 C172.956673,57.4293403 170.658376,55.0370701 170.599446,52.0321455 L181.472158,52.0321455 C181.973069,52.0321455 181.973069,51.2444468 181.973069,50.7193143 C181.973069,47.2767792 179.468515,44.5927688 175.873743,44.5927688 C171.866455,44.5927688 169.30297,47.7727377 169.30297,51.5945351 L169.30297,51.5945351 Z M170.628911,50.8360104 C170.805703,48.0353039 172.927208,45.8472519 175.873743,45.8472519 C178.938139,45.8472519 180.676594,48.181174 180.676594,50.8360104 L170.628911,50.8360104 Z M185.096396,57.1959481 C185.83303,57.7502545 187.247366,58.6838234 189.545663,58.6838234 C192.285941,58.6838234 194.230653,57.108426 194.230653,55.0662442 C194.230653,52.4989299 192.109149,51.7404052 189.575129,50.8068364 C187.571485,50.0774857 186.216079,49.3481351 186.216079,48.0061299 C186.216079,46.985039 187.129505,45.7889039 189.280475,45.7889039 C190.724277,45.7889039 192.197545,46.4890805 192.521663,46.6641247 C192.757386,46.7808208 192.993109,46.7808208 193.11097,46.5474286 L193.287762,46.2265143 C193.405624,45.9931221 193.317228,45.7597299 193.11097,45.6138597 C192.433267,45.2054234 191.077861,44.5927688 189.280475,44.5927688 C186.157149,44.5927688 184.919604,46.5766026 184.919604,48.0353039 C184.919604,50.1650078 186.599129,51.0985766 188.985822,51.9446234 C191.284119,52.7906701 192.934178,53.5200208 192.934178,55.0662442 C192.934178,56.4957714 191.608238,57.4876883 189.545663,57.4876883 C187.630416,57.4876883 186.186614,56.4665974 185.83303,56.1748571 C185.597307,55.999813 185.332119,56.028987 185.214257,56.2332052 L184.949069,56.6999896 C184.831208,56.9042078 184.949069,57.0792519 185.096396,57.1959481 L185.096396,57.1959481 Z M197.29505,57.1959481 C198.031683,57.7502545 199.44602,58.6838234 201.744317,58.6838234 C204.484594,58.6838234 206.429307,57.108426 206.429307,55.0662442 C206.429307,52.4989299 204.307802,51.7404052 201.773782,50.8068364 C199.770139,50.0774857 198.414733,49.3481351 198.414733,48.0061299 C198.414733,46.985039 199.328158,45.7889039 201.479129,45.7889039 C202.922931,45.7889039 204.396198,46.4890805 204.720317,46.6641247 C204.95604,46.7808208 205.191762,46.7808208 205.309624,46.5474286 L205.486416,46.2265143 C205.604277,45.9931221 205.515881,45.7597299 205.309624,45.6138597 C204.631921,45.2054234 203.276515,44.5927688 201.479129,44.5927688 C198.355802,44.5927688 197.118257,46.5766026 197.118257,48.0353039 C197.118257,50.1650078 198.797782,51.0985766 201.184475,51.9446234 C203.482772,52.7906701 205.132832,53.5200208 205.132832,55.0662442 C205.132832,56.4957714 203.806891,57.4876883 201.744317,57.4876883 C199.829069,57.4876883 198.385267,56.4665974 198.031683,56.1748571 C197.79596,55.999813 197.530772,56.028987 197.412911,56.2332052 L197.147723,56.6999896 C197.029861,56.9042078 197.147723,57.0792519 197.29505,57.1959481 L197.29505,57.1959481 Z M210.996436,57.9252987 C210.996436,58.1586909 211.202693,58.3629091 211.40895,58.3629091 L211.850931,58.3629091 C212.116119,58.3629091 212.292911,58.1586909 212.292911,57.9252987 L212.292911,46.1389922 L217.419881,46.1389922 C217.744,46.1389922 217.891327,45.9639481 217.891327,45.7597299 L217.891327,45.2929455 C217.891327,45.0303792 217.714535,44.8845091 217.419881,44.8845091 L212.292911,44.8845091 L212.292911,42.8131532 C212.292911,40.304187 213.294733,38.9038338 215.445703,38.9038338 C216.712713,38.9038338 217.655604,39.3997922 218.451168,40.0124468 C218.686891,40.1874909 218.863683,40.1874909 219.040475,39.9832727 L219.335129,39.6331844 C219.45299,39.5164883 219.423525,39.2830961 219.246733,39.0788779 C218.657426,38.4370494 217.184158,37.6493506 215.445703,37.6493506 C212.499168,37.6493506 210.996436,39.6331844 210.996436,42.8131532 L210.996436,44.8845091 L208.845465,44.8845091 C208.609743,44.8845091 208.43295,45.0887273 208.43295,45.3221195 L208.43295,45.7013818 C208.43295,45.9056 208.550812,46.1389922 208.845465,46.1389922 L210.996436,46.1389922 L210.996436,57.9252987 Z M220.837861,52.8781922 C220.837861,56.6708156 222.075406,58.6838234 225.905901,58.6838234 C228.587248,58.6838234 230.03105,57.108426 230.384634,56.6416416 L230.502495,57.9544727 C230.53196,58.1586909 230.679287,58.3629091 230.91501,58.3629091 L231.180198,58.3629091 C231.386455,58.3629091 231.592713,58.1586909 231.592713,57.9252987 L231.592713,45.3221195 C231.592713,45.0887273 231.386455,44.8845091 231.180198,44.8845091 L230.738218,44.8845091 C230.443564,44.8845091 230.296238,45.0303792 230.296238,45.3221195 L230.296238,54.920374 C229.883723,55.5038545 228.557782,57.4293403 225.994297,57.4293403 C223.195089,57.4293403 222.134337,55.999813 222.134337,52.8781922 L222.134337,45.3221195 C222.134337,45.0887273 221.957545,44.8845091 221.721822,44.8845091 L221.279842,44.8845091 C221.044119,44.8845091 220.837861,45.0887273 220.837861,45.3221195 L220.837861,52.8781922 Z M236.719683,57.9252987 C236.719683,58.1586909 236.837545,58.3629091 237.102733,58.3629091 L237.574178,58.3629091 C237.868832,58.3629091 238.016158,58.217039 238.016158,57.9252987 L238.016158,38.3787013 C238.016158,38.1453091 237.780436,37.9410909 237.574178,37.9410909 L237.161663,37.9410909 C236.896475,37.9410909 236.719683,38.1453091 236.719683,38.3787013 L236.719683,57.9252987 Z M244.203881,50.5150961 L244.439604,50.5150961 C244.616396,50.5150961 244.822653,50.3400519 244.822653,50.1650078 L245.087842,41.8504104 L245.087842,38.3203532 C245.087842,38.1161351 244.91105,37.9410909 244.704792,37.9410909 L243.968158,37.9410909 C243.761901,37.9410909 243.526178,37.999439 243.526178,38.3203532 L243.526178,41.8795844 L243.820832,50.1650078 C243.820832,50.3400519 243.997624,50.5150961 244.203881,50.5150961 L244.203881,50.5150961 Z M243.113663,57.4876883 C243.113663,58.1295169 243.673505,58.6546494 244.321743,58.6546494 C244.999446,58.6546494 245.500356,58.1295169 245.500356,57.4876883 C245.500356,56.8166857 244.999446,56.3207273 244.321743,56.3207273 C243.673505,56.3207273 243.113663,56.8166857 243.113663,57.4876883 L243.113663,57.4876883 Z" id="Funding-Successful!" fill="#737A7E"></path>
            <path d="M73.9246667,10.0291086 L79.0319829,2.78355757 C79.9974872,1.41953654 81.2438462,0.736747764 82.7726496,0.736747764 C84.0190085,0.736747764 85.0979145,1.17049504 86.0098974,2.03591424 C86.9213504,2.90288996 87.3770769,3.93952519 87.3770769,5.14685762 C87.3770769,6.03977516 87.1359658,6.82685006 86.6532137,7.51015767 L82.0482564,14.0651374 L87.6785983,21.0543833 C88.2413675,21.7506618 88.5232821,22.5641974 88.5232821,23.4955088 C88.5232821,24.7298207 88.0808034,25.7892848 87.1963761,26.6754574 C86.3108889,27.5616301 85.2388718,28.0047164 83.979265,28.0047164 C82.5977778,28.0047164 81.5458974,27.5652619 80.8215043,26.6853153 L73.9246667,18.2588925 L73.9246667,22.9050729 C73.9246667,24.2312189 73.6904444,25.2611093 73.2209402,25.9963005 C72.3630085,27.3354174 71.1161197,28.0047164 69.4808034,28.0047164 C67.9928034,28.0047164 66.8397094,27.5123406 66.0220513,26.5281079 C65.2579145,25.6222194 64.8758462,24.421113 64.8758462,22.9253075 L64.8758462,5.6973431 C64.8758462,4.28091958 65.2648034,3.11249989 66.042188,2.19415936 C66.8598462,1.22237868 67.9859145,0.736747764 69.4203932,0.736747764 C70.7881026,0.736747764 71.9268889,1.22237868 72.8388718,2.19415936 C73.3481197,2.7327116 73.6697778,3.2764522 73.8038462,3.82797535 C73.8849231,4.1688509 73.9246667,4.80546323 73.9246667,5.73781234 L73.9246667,10.0291086 L73.9246667,10.0291086 Z M50.6990427,0.205459236 C54.0369744,0.191969488 57.1067692,1.28775208 59.9084274,3.49280701 C62.1070427,5.22520192 63.2060855,7.01726303 63.2060855,8.86795266 C63.2060855,10.4426213 62.5357436,11.6634435 61.1955897,12.5293815 C60.431453,13.029021 59.6000171,13.2780625 58.7023419,13.2780625 C57.9647009,13.2780625 57.2609744,13.1073653 56.5906325,12.7659709 C56.3092479,12.6217344 55.6118803,11.9591803 54.4995897,10.7772708 C53.4667863,9.67474335 52.173265,9.1232202 50.6190256,9.1232202 C49.1172479,9.1232202 47.8602906,9.63219876 46.8486838,10.6491182 C45.8360171,11.6665565 45.3304786,12.9102075 45.3304786,14.38059 C45.3304786,15.8374827 45.8360171,17.0743889 46.8486838,18.0918271 C47.8602906,19.1092654 49.1108889,19.6177251 50.598359,19.6177251 C51.8314701,19.6177251 52.9776752,19.2104385 54.0369744,18.396903 C54.6935385,17.7805253 55.3442735,17.1636287 55.9875897,16.5462133 C56.6844274,15.9552586 57.5693846,15.6600407 58.6419316,15.6600407 C59.8750427,15.6600407 60.9444103,16.0834112 61.8489744,16.9306712 C62.7535385,17.7763746 63.2060855,18.8036708 63.2060855,20.0110032 C63.2060855,21.651564 62.2209744,23.3123595 60.2502222,24.9918331 C57.4888376,27.3546143 54.2982222,28.5360049 50.678906,28.5360049 C48.4400171,28.5360049 46.3288376,28.0700898 44.3448376,27.1382595 C41.837812,25.9563501 39.8437436,24.221361 38.3631624,21.9306981 C36.8809915,19.640554 36.1407009,17.1366492 36.1407009,14.4195027 C36.1407009,10.3513061 37.6822222,6.88599741 40.7657949,4.02513321 C43.486906,1.50410688 46.797812,0.231401058 50.6990427,0.205459236 L50.6990427,0.205459236 Z M34.4152991,6.23018813 L34.4152991,22.9050729 C34.4152991,24.3495136 34.0332308,25.5371302 33.269094,26.4689605 C32.4514359,27.4926248 31.3190085,28.0047164 29.8707521,28.0047164 C28.5438462,28.0047164 27.4241368,27.5258304 26.5126838,26.5675394 C25.748547,25.766456 25.3670085,24.5461526 25.3670085,22.9050729 L25.3670085,6.23018813 C25.3670085,4.36600876 25.748547,3.0144398 26.5126838,2.1734059 C27.3838632,1.21563381 28.5035726,0.736747764 29.8707521,0.736747764 C31.2384615,0.736747764 32.357641,1.20940777 33.2293504,2.15472779 C34.0199829,3.020147 34.4152991,4.37897967 34.4152991,6.23018813 L34.4152991,6.23018813 Z M9.04882051,10.0291086 L14.1561368,2.78355757 C15.1211111,1.41953654 16.368,0.736747764 17.8968034,0.736747764 C19.1431624,0.736747764 20.2220684,1.17049504 21.1335214,2.03591424 C22.0449744,2.90288996 22.5012308,3.93952519 22.5012308,5.14685762 C22.5012308,6.03977516 22.2595897,6.82685006 21.7773675,7.51015767 L17.1724103,14.0651374 L22.8027521,21.0543833 C23.3655214,21.7506618 23.6474359,22.5641974 23.6474359,23.4955088 C23.6474359,24.7298207 23.2049573,25.7892848 22.32,26.6754574 C21.4350427,27.5616301 20.3624957,28.0047164 19.102359,28.0047164 C17.7219316,28.0047164 16.6700513,27.5652619 15.9456581,26.6853153 L9.04882051,18.2588925 L9.04882051,22.9050729 C9.04882051,24.2312189 8.81406838,25.2611093 8.3445641,25.9963005 C7.48663248,27.3354174 6.2402735,28.0047164 4.60442735,28.0047164 C3.11695726,28.0047164 1.96386325,27.5123406 1.14620513,26.5281079 C0.382068376,25.6222194 0,24.421113 0,22.9253075 L0,5.6973431 C0,4.28091958 0.38842735,3.11249989 1.16634188,2.19415936 C1.984,1.22237868 3.10953846,0.736747764 4.54454701,0.736747764 C5.9117265,0.736747764 7.05104274,1.22237868 7.96302564,2.19415936 C8.4722735,2.7327116 8.79393162,3.2764522 8.928,3.82797535 C9.00801709,4.1688509 9.04882051,4.80546323 9.04882051,5.73781234 L9.04882051,10.0291086 L9.04882051,10.0291086 Z" id="Fill-1" fill="#A3A3A3"></path>
            <path d="M244.675846,17.4521018 L246.807162,20.7985969 C247.397487,21.7304272 247.69212,22.6887181 247.69212,23.6729509 C247.69212,24.9202337 247.252291,25.9532371 246.374752,26.7740364 C245.497214,27.5943168 244.421487,28.0047164 243.147573,28.0047164 C241.511726,28.0047164 240.271726,27.3219276 239.428103,25.9563501 L235.647692,19.8932273 L235.647692,23.5354592 C235.647692,24.782742 235.228,25.8390931 234.390735,26.7050311 C233.55294,27.571488 232.496821,28.0047164 231.223436,28.0047164 C229.668137,28.0047164 228.489077,27.4599381 227.684667,26.3698628 C226.960274,25.4120907 226.598872,24.1523558 226.598872,22.5901392 L226.598872,6.03303028 C226.598872,2.63361384 228.46894,0.933905616 232.209077,0.933905616 L237.959709,0.933905616 C239.850444,0.933905616 241.606051,1.468826 243.22812,2.53866677 C244.849658,3.60850753 246.036137,4.99639505 246.787026,6.70284814 C247.350325,7.98852488 247.631709,9.28146532 247.631709,10.5806318 C247.631709,13.0087864 246.647128,15.2994493 244.675846,17.4521018 L244.675846,17.4521018 Z M215.563402,19.4994304 L219.676068,19.4994304 C221.375504,19.4994304 222.63988,19.8408248 223.468667,20.5230948 C224.445829,21.3371492 224.93441,22.3867553 224.93441,23.6729509 C224.93441,24.9856071 224.444239,26.048703 223.466017,26.8622385 C222.70188,27.4926248 221.448632,27.8075586 219.706274,27.8075586 L212.648342,27.8075586 C210.98547,27.8075586 209.846154,27.682519 209.229333,27.4334775 C208.022718,26.9478466 207.225197,26.1540268 206.836769,25.0509805 C206.595128,24.3422499 206.474838,23.1810939 206.474838,21.565956 L206.474838,6.95863452 C206.474838,5.73781234 206.515111,4.91805074 206.595128,4.49727438 C206.742444,3.64430725 207.098017,2.92260574 207.661316,2.33165102 C208.304103,1.66183316 209.122291,1.23586843 210.114291,1.05116265 C210.583265,0.973337187 211.534991,0.933905616 212.96947,0.933905616 L218.378838,0.933905616 C219.85306,0.933905616 220.711521,0.946876528 220.953162,0.973337187 C221.918137,1.06517124 222.708239,1.3406734 223.32506,1.79984366 C224.424103,2.61389805 224.974154,3.67699395 224.974154,4.98913134 C224.974154,6.40659253 224.492462,7.48992304 223.529607,8.23808521 C222.673265,8.90738424 221.503744,9.24203375 220.017863,9.24203375 L215.563402,9.24203375 L215.563402,11.0730076 L219.113299,11.0730076 C220.155111,11.0730076 221.017812,11.3417649 221.699812,11.8803171 C222.421026,12.4577821 222.782957,13.2516019 222.782957,14.2617764 C222.782957,16.401458 221.451812,17.4718176 218.791641,17.4718176 L215.563402,17.4718176 L215.563402,19.4994304 L215.563402,19.4994304 Z M188.739658,9.18288639 L186.346564,9.18288639 C185.019128,9.18288639 183.920615,8.82903993 183.048906,8.1197905 C182.123675,7.35917626 181.66106,6.34173797 181.66106,5.06851332 C181.66106,4.30738024 181.879385,3.57582084 182.314444,2.87279744 C182.750564,2.17133056 183.313333,1.67220989 184.003812,1.37647311 C184.694291,1.08125517 186.332256,0.933905616 188.919829,0.933905616 L198.049726,0.933905616 C200.287556,0.933905616 201.735812,1.06517124 202.392376,1.32770248 C203.116239,1.61617555 203.703385,2.1121832 204.152222,2.81365009 C204.60106,3.51615465 204.825744,4.25445892 204.825744,5.02856291 C204.825744,6.24938508 204.329744,7.31299981 203.337744,8.21888826 C202.627128,8.86172663 201.468205,9.18288639 199.859385,9.18288639 L197.787949,9.18288639 L197.787949,22.5709422 C197.787949,24.027835 197.53306,25.1557855 197.023812,25.9563501 C196.16588,27.295467 194.92535,27.964766 193.304342,27.964766 C191.682274,27.964766 190.435385,27.3546143 189.563675,26.1337922 C189.013624,25.3726591 188.739658,24.218248 188.739658,22.6690023 L188.739658,9.18288639 L188.739658,9.18288639 Z M177.986103,17.4521018 L180.117419,20.7985969 C180.707214,21.7304272 181.002376,22.6887181 181.002376,23.6729509 C181.002376,24.9202337 180.563077,25.9532371 179.685009,26.7740364 C178.80694,27.5943168 177.731744,28.0047164 176.458889,28.0047164 C174.822513,28.0047164 173.583043,27.3219276 172.737829,25.9563501 L168.956889,19.8932273 L168.956889,23.5354592 C168.956889,24.782742 168.538786,25.8390931 167.700991,26.7050311 C166.862667,27.571488 165.807077,28.0047164 164.533692,28.0047164 C162.978393,28.0047164 161.799333,27.4599381 160.994923,26.3698628 C160.27106,25.4120907 159.909128,24.1523558 159.909128,22.5901392 L159.909128,6.03303028 C159.909128,2.63361384 161.779197,0.933905616 165.519333,0.933905616 L171.270496,0.933905616 C173.160171,0.933905616 174.916838,1.468826 176.538376,2.53866677 C178.160444,3.60850753 179.346923,4.99639505 180.097812,6.70284814 C180.660051,7.98852488 180.942496,9.28146532 180.942496,10.5806318 C180.942496,13.0087864 179.956855,15.2994493 177.986103,17.4521018 L177.986103,17.4521018 Z M140.394496,24.3230529 C139.964735,25.3202566 139.522786,26.0616739 139.06706,26.5473048 C138.155607,27.5185667 137.049675,28.0047164 135.749265,28.0047164 C134.154222,28.0047164 132.914222,27.374849 132.029795,26.1140764 C131.506769,25.3664331 131.245521,24.5264368 131.245521,23.5946066 C131.245521,22.8199837 131.433111,22.038616 131.808821,21.2515411 L140.394496,3.35531535 C141.225402,1.61046835 142.612718,0.736747764 144.556444,0.736747764 C146.527726,0.736747764 147.941538,1.6353725 148.79947,3.43417849 L157.466752,21.4678959 C157.815436,22.1906351 157.989248,22.9050729 157.989248,23.6143223 C157.989248,24.6639285 157.640034,25.5962776 156.943197,26.4092943 C156.031744,27.4734279 154.865402,28.0047164 153.444701,28.0047164 C152.278359,28.0047164 151.306496,27.6498323 150.528581,26.9411017 C149.952034,26.4170769 149.376017,25.5433563 148.79947,24.3230529 L140.394496,24.3230529 L140.394496,24.3230529 Z M118.395624,9.18288639 L116.00306,9.18288639 C114.675624,9.18288639 113.576581,8.82903993 112.705402,8.1197905 C111.780171,7.35917626 111.317026,6.34173797 111.317026,5.06851332 C111.317026,4.30738024 111.53588,3.57582084 111.97094,2.87279744 C112.40653,2.17133056 112.969829,1.67220989 113.660308,1.37647311 C114.350786,1.08125517 115.989282,0.933905616 118.576855,0.933905616 L127.706222,0.933905616 C129.944051,0.933905616 131.392838,1.06517124 132.049402,1.32770248 C132.773265,1.61617555 133.35988,2.1121832 133.808188,2.81365009 C134.258085,3.51615465 134.482769,4.25445892 134.482769,5.02856291 C134.482769,6.24938508 133.986239,7.31299981 132.994239,8.21888826 C132.284154,8.86172663 131.124171,9.18288639 129.51588,9.18288639 L127.443915,9.18288639 L127.443915,22.5709422 C127.443915,24.027835 127.190085,25.1557855 126.680308,25.9563501 C125.821846,27.295467 124.582376,27.964766 122.960838,27.964766 C121.338239,27.964766 120.09135,27.3546143 119.220171,26.1337922 C118.67065,25.3726591 118.395624,24.218248 118.395624,22.6690023 L118.395624,9.18288639 L118.395624,9.18288639 Z M94.1854188,17.6487408 C95.1911966,17.6487408 96.2632137,18.0819692 97.4030598,18.9484261 C98.8232308,20.0379827 99.7956239,20.5817233 100.31865,20.5817233 C101.096034,20.5817233 101.484462,20.1884452 101.484462,19.4013703 C101.484462,18.9681419 101.256598,18.6008057 100.801402,18.298324 C100.559761,18.1405978 99.2052991,17.6362887 96.7390769,16.7822839 C92.7043077,15.3912834 90.6869231,12.8183734 90.6869231,9.06459168 C90.6869231,6.23018813 91.7520513,3.99192767 93.8838974,2.35136681 C95.7470769,0.920934705 98.053265,0.205459236 100.801402,0.205459236 C103.173829,0.205459236 105.238376,0.760095405 106.994513,1.86884891 C108.75065,2.97760241 109.628718,4.40544033 109.628718,6.15080616 C109.628718,7.20144998 109.296991,8.07724591 108.633538,8.77923163 C107.969556,9.48121735 107.107915,9.8319508 106.049145,9.8319508 C104.936325,9.8319508 103.703214,9.31415201 102.349282,8.27751678 C101.505128,7.63467841 100.868171,7.31299981 100.43947,7.31299981 C99.7018291,7.31299981 99.3330085,7.66684627 99.3330085,8.37557687 C99.3330085,9.04539473 100.244462,9.6555464 102.067897,10.2065507 C104.588171,10.9811735 106.538256,11.9259747 107.919214,13.0414731 C109.755897,14.5383163 110.674769,16.6380474 110.674769,19.3417042 C110.674769,22.2824692 109.641966,24.5788393 107.577419,26.2328899 C105.660718,27.768127 103.16694,28.5360049 100.097145,28.5360049 C97.0273504,28.5360049 94.4869402,27.7359591 92.4764444,26.1337922 C90.8681538,24.8610863 90.0632137,23.3720257 90.0632137,21.6650538 C90.0632137,20.5230948 90.4585299,19.5720675 91.2502222,18.8104156 C92.0403248,18.0492825 93.0196068,17.6617117 94.1854188,17.6487408 L94.1854188,17.6487408 Z" id="Fill-3" fill="#2CDE73"></path>
        </g>
    </g>
</svg>