<?xml version="1.0" encoding="UTF-8" standalone="no"?>
<svg width="202px" height="101px" viewBox="0 0 202 101" version="1.1" xmlns="http://www.w3.org/2000/svg" xmlns:xlink="http://www.w3.org/1999/xlink">
    <!-- Generator: Sketch 3.6.1 (26313) - http://www.bohemiancoding.com/sketch -->
    <title>masthead-iconic</title>
    <desc>Created with Sketch.</desc>
    <defs></defs>
    <g id="assets" stroke="none" stroke-width="1" fill="none" fill-rule="evenodd">
        <g id="masthead-iconic">
            <g id="iconic-logotype" transform="translate(0.000000, 76.378109)" fill="#FFFFFF">
                <path d="M1.51725558,23.8189154 C0.825543424,23.8189154 0.264153846,23.2566318 0.264153846,22.5626965 L0.264153846,1.83508458 C0.264153846,1.14165174 0.825543424,0.578865672 1.51725558,0.578865672 C2.20946898,0.578865672 2.77035732,1.14165174 2.77035732,1.83508458 L2.77035732,22.5626965 C2.77035732,23.2566318 2.20946898,23.8189154 1.51725558,23.8189154" id="Fill-1"></path>
                <path d="M86.2555037,23.8189154 C85.5632903,23.8189154 85.002402,23.2566318 85.002402,22.5626965 L85.002402,1.83508458 C85.002402,1.14165174 85.5632903,0.578865672 86.2555037,0.578865672 C86.9472159,0.578865672 87.5086055,1.14165174 87.5086055,1.83508458 L87.5086055,22.5626965 C87.5086055,23.2566318 86.9472159,23.8189154 86.2555037,23.8189154" id="Fill-2"></path>
                <path d="M18.1699752,24.321403 C11.5019702,24.321403 6.07754342,18.8834826 6.07754342,12.1988905 C6.07754342,5.514801 11.5019702,0.0763781095 18.1699752,0.0763781095 C21.8686303,0.0763781095 25.3141588,1.73961194 27.6233747,4.63946766 C28.0554442,5.18215423 27.9667246,5.97256716 27.4258859,6.40520896 C26.8850471,6.83734826 26.0965955,6.74891045 25.6650273,6.20722886 C23.8334938,3.90734328 21.1022333,2.58881592 18.1699752,2.58881592 C12.8843921,2.58881592 8.5837469,6.89965672 8.5837469,12.1988905 C8.5837469,17.4981244 12.8843921,21.8089652 18.1699752,21.8089652 C21.101732,21.8089652 23.833995,20.4899353 25.6660298,18.1905522 C26.0980993,17.6483682 26.8870521,17.5604328 27.4268883,17.9935771 C27.967727,18.4262189 28.0559454,19.2166318 27.6243772,19.7588159 C25.3141588,22.6586716 21.868129,24.321403 18.1699752,24.321403" id="Fill-3"></path>
                <path d="M102.87063,24.3294428 C96.2026253,24.3294428 90.7781985,18.8915224 90.7781985,12.2069303 C90.7781985,5.52233831 96.2026253,0.0844179104 102.87063,0.0844179104 C106.569285,0.0844179104 110.014814,1.74765174 112.32403,4.64750746 C112.756099,5.18969154 112.66738,5.98010448 112.126541,6.41324876 C111.585702,6.84538806 110.797251,6.75644776 110.365682,6.21476617 C108.534149,3.91538308 105.802888,2.59685572 102.87063,2.59685572 C97.5850471,2.59685572 93.284402,6.90769652 93.284402,12.2069303 C93.284402,17.5061642 97.5850471,21.817005 102.87063,21.817005 C105.802387,21.817005 108.53465,20.4979751 110.366685,18.198592 C110.798754,17.656408 111.587707,17.5684726 112.127543,18.0011144 C112.668382,18.4337562 112.7566,19.2246716 112.325032,19.7668557 C110.014814,22.666209 106.568784,24.3294428 102.87063,24.3294428" id="Fill-4"></path>
                <path d="M134.021236,23.8269552 L125.057047,23.8269552 C124.69064,23.8269552 124.393906,23.5294826 124.393906,23.1626667 C124.393906,22.7953483 124.69064,22.4978756 125.057047,22.4978756 L134.021236,22.4978756 C140.180983,22.4978756 144.82598,18.0739751 144.82598,12.2069303 C144.82598,6.3308408 140.180983,1.89940299 134.021236,1.89940299 L125.057047,1.89940299 C124.69064,1.89940299 124.393906,1.60243284 124.393906,1.23511443 C124.393906,0.868298507 124.69064,0.570825871 125.057047,0.570825871 L134.021236,0.570825871 C140.823072,0.570825871 146.151261,5.68212935 146.151261,12.2069303 C146.151261,18.7231891 140.823072,23.8269552 134.021236,23.8269552" id="Fill-5"></path>
                <path d="M157.086328,23.8269552 C156.719921,23.8269552 156.423186,23.5294826 156.423186,23.1626667 C156.423186,22.7953483 156.719921,22.4978756 157.086328,22.4978756 C162.808993,22.4978756 166.654511,18.3654179 166.654511,12.2149701 C166.654511,11.8476517 166.951246,11.5501791 167.317653,11.5501791 C167.683558,11.5501791 167.980293,11.8476517 167.980293,12.2149701 C167.980293,19.1603532 163.602457,23.8269552 157.086328,23.8269552" id="Fill-6"></path>
                <path d="M167.317653,13.1611542 C166.951246,13.1611542 166.654511,12.8641841 166.654511,12.4968657 C166.654511,5.47510448 171.122571,0.570825871 177.519906,0.570825871 C177.886313,0.570825871 178.182546,0.868298507 178.182546,1.23511443 C178.182546,1.60243284 177.886313,1.89940299 177.519906,1.89940299 C171.813782,1.89940299 167.980293,6.15848756 167.980293,12.4968657 C167.980293,12.8641841 167.683558,13.1611542 167.317653,13.1611542" id="Fill-7"></path>
                <path d="M80.4982531,23.8189154 C79.8060397,23.8189154 79.2451514,23.2566318 79.2451514,22.5626965 L79.2451514,12.2295423 C79.2451514,6.92176617 74.9374888,2.60389055 69.6428834,2.60389055 C66.716139,2.60389055 63.9848784,3.91789552 62.1498362,6.20923881 C61.7167643,6.7509204 60.9283127,6.83734826 60.3884764,6.40219403 C59.8486402,5.96804478 59.7624268,5.17763184 60.1954988,4.63645274 C62.5092258,1.74765174 65.9522481,0.0914527363 69.6428834,0.0914527363 C76.3194094,0.0914527363 81.7513548,5.53691045 81.7513548,12.2295423 L81.7513548,22.5626965 C81.7513548,23.2566318 81.1904665,23.8189154 80.4982531,23.8189154" id="Fill-8"></path>
                <path d="M58.7875136,23.8189154 C58.0953002,23.8189154 57.5344119,23.2566318 57.5344119,22.5626965 L57.5344119,12.2295423 C57.5344119,5.53691045 62.9663573,0.0914527363 69.6428834,0.0914527363 C73.3335186,0.0914527363 76.7765409,1.74765174 79.090268,4.63645274 C79.52334,5.17763184 79.4371266,5.96804478 78.8972903,6.40219403 C78.3584566,6.83734826 77.5695037,6.7509204 77.1359305,6.20923881 C75.3008883,3.91789552 72.5696278,2.60389055 69.6428834,2.60389055 C64.3482779,2.60389055 60.0406154,6.92176617 60.0406154,12.2295423 L60.0406154,22.5626965 C60.0406154,23.2566318 59.479727,23.8189154 58.7875136,23.8189154" id="Fill-9"></path>
                <path d="M151.603757,23.8269552 C151.237851,23.8269552 150.941117,23.5294826 150.941117,23.1626667 L150.941117,1.23511443 C150.941117,0.868298507 151.237851,0.570825871 151.603757,0.570825871 C151.969663,0.570825871 152.266397,0.868298507 152.266397,1.23511443 L152.266397,23.1626667 C152.266397,23.5294826 151.969663,23.8269552 151.603757,23.8269552" id="Fill-10"></path>
                <path d="M191.941102,24.3661244 C185.253047,24.3661244 179.811578,18.9116219 179.811578,12.2069303 C179.811578,5.50223881 185.253047,0.0477363184 191.941102,0.0477363184 C195.651285,0.0477363184 199.10734,1.71599502 201.424576,4.62439303 C201.653141,4.91131343 201.606025,5.32938308 201.320318,5.55801493 C201.032605,5.78765174 200.616074,5.74041791 200.388511,5.45349751 C198.324903,2.86267164 195.245782,1.37631343 191.941102,1.37631343 C185.983856,1.37631343 181.13736,6.23486567 181.13736,12.2069303 C181.13736,18.178995 185.983856,23.0375473 191.941102,23.0375473 C195.24528,23.0375473 198.324903,21.5511891 200.389514,18.9593582 C200.617578,18.6729403 201.034109,18.6257065 201.32132,18.8548408 C201.607027,19.0844776 201.654144,19.5020448 201.425578,19.7889652 C199.108342,22.6978657 195.650784,24.3661244 191.941102,24.3661244" id="Fill-11"></path>
                <path d="M42.6570868,24.2842189 C36.0036179,24.2842189 30.5907196,18.8578557 30.5907196,12.1878358 C30.5907196,5.51781592 36.0036179,0.0914527363 42.6570868,0.0914527363 C49.3105558,0.0914527363 54.7234541,5.51781592 54.7234541,12.1878358 C54.7234541,18.8578557 49.3105558,24.2842189 42.6570868,24.2842189 L42.6570868,24.2842189 Z M42.6570868,2.60389055 C37.3855385,2.60389055 33.0969231,6.90317413 33.0969231,12.1878358 C33.0969231,17.4724975 37.3855385,21.7717811 42.6570868,21.7717811 C47.9286352,21.7717811 52.2172506,17.4724975 52.2172506,12.1878358 C52.2172506,6.90317413 47.9286352,2.60389055 42.6570868,2.60389055 L42.6570868,2.60389055 Z" id="Fill-12"></path>
            </g>
            <g id="iconic-mark" transform="translate(68.000000, 0.000000)">
                <path d="M33.1253662,46.1610302 C20.571831,46.1610302 10.3595211,35.8400792 10.3595211,23.1529963 C10.3595211,10.4668672 20.571831,0.144962534 33.1253662,0.144962534 C45.6789014,0.144962534 55.8912113,10.4668672 55.8912113,23.1529963 C55.8912113,35.8400792 45.6789014,46.1610302 33.1253662,46.1610302 L33.1253662,46.1610302 Z M33.1253662,4.91346695 C23.1744507,4.91346695 15.077831,13.0962205 15.077831,23.1529963 C15.077831,33.2107259 23.1744507,41.3925257 33.1253662,41.3925257 C43.0762817,41.3925257 51.1729014,33.2107259 51.1729014,23.1529963 C51.1729014,13.0962205 43.0762817,4.91346695 33.1253662,4.91346695 L33.1253662,4.91346695 Z" id="Fill-1" fill="#A7D3E6"></path>
                <path d="M55.9723662,46.1610302 C55.4127746,46.1610302 54.8512958,45.960753 54.4002254,45.5554301 C53.4291972,44.6780253 53.3452113,43.1702242 54.2133803,42.1879123 C58.8477042,36.9473259 61.3993662,30.1874941 61.3993662,23.1529963 C61.3993662,16.1184986 58.8477042,9.35866677 54.2143239,4.11903412 C53.3461549,3.13767591 53.4301408,1.63082851 54.401169,0.752469997 C55.3740845,-0.124934816 56.8650704,-0.0391017362 57.7332394,0.941302772 C63.1404225,7.05643284 66.1176761,14.9444928 66.1176761,23.1529963 C66.1176761,31.3614998 63.1394789,39.2495599 57.7322958,45.3656436 C57.2661268,45.8930402 56.620662,46.1610302 55.9723662,46.1610302" id="Fill-2" fill="#FFFFFF"></path>
                <path d="M10.2585493,46.1381413 C9.60930986,46.1381413 8.96384507,45.8691977 8.49673239,45.3408474 C3.10370423,39.2295321 0.133056338,31.3500554 0.133056338,23.1529963 C0.133056338,14.9435391 3.11125352,7.05452543 8.51938028,0.93939537 C9.3875493,-0.041009138 10.8785352,-0.127795918 11.850507,0.751516296 C12.8215352,1.62796741 12.9055211,3.1357685 12.0373521,4.11712671 C7.40302817,9.35771307 4.8513662,16.1175449 4.8513662,23.1529963 C4.8513662,30.1779571 7.39642254,36.9301593 12.0184789,42.1669309 C12.8857042,43.1492428 12.8007746,44.6560902 11.8278592,45.5325413 C11.3786761,45.9388178 10.8171972,46.1381413 10.2585493,46.1381413" id="Fill-3" fill="#FFFFFF"></path>
            </g>
        </g>
    </g>
</svg>