<?xml version="1.0" encoding="UTF-8" standalone="no"?>
<svg width="262px" height="57px" viewBox="0 0 262 57" version="1.1" xmlns="http://www.w3.org/2000/svg" xmlns:xlink="http://www.w3.org/1999/xlink">
    <!-- Generator: Sketch 3.6.1 (26313) - http://www.bohemiancoding.com/sketch -->
    <title>masthead</title>
    <desc>Created with Sketch.</desc>
    <defs></defs>
    <g id="assets" stroke="none" stroke-width="1" fill="none" fill-rule="evenodd">
        <g id="masthead" fill="#FFFFFF">
            <path d="M0.728,47 L5.464,47 L5.464,26.52 L10.2,26.52 L10.2,47 L14.936,47 L14.936,1.304 L10.2,1.304 L10.2,21.784 L5.464,21.784 L5.464,1.304 L0.728,1.304 L0.728,47 Z M19.672,40.28 C19.672,44.184 22.872,47.384 26.776,47.384 C30.68,47.384 33.88,44.184 33.88,40.28 L33.88,17.112 C33.88,13.208 30.68,10.008 26.776,10.008 C22.872,10.008 19.672,13.208 19.672,17.112 L19.672,40.28 Z M24.408,15.128 L29.144,15.128 L29.144,42.264 L24.408,42.264 L24.408,15.128 Z M38.616,47 L48.088,47 C50.712,47 52.824,44.888 52.824,42.264 L52.824,10.392 L48.088,10.392 L48.088,42.264 L43.352,42.264 L43.352,10.392 L38.616,10.392 L38.616,47 Z M66.456,19.864 L71.192,19.864 L71.192,17.112 C71.192,13.208 67.992,10.008 64.088,10.008 C60.184,10.008 56.984,13.208 56.984,17.112 L56.984,26.328 C56.984,28.952 59.096,31.064 61.72,31.064 L66.456,31.064 L66.456,42.264 L61.72,42.264 L61.72,37.528 L56.984,37.528 L56.984,40.28 C56.984,44.184 60.184,47.384 64.088,47.384 C67.992,47.384 71.192,44.184 71.192,40.28 L71.192,31.064 C71.192,28.44 69.08,26.328 66.456,26.328 L61.72,26.328 L61.72,15.128 L66.456,15.128 L66.456,19.864 Z M80.088,15.128 L84.824,15.128 L84.824,26.328 L80.088,26.328 L80.088,15.128 Z M75.352,40.28 C75.352,44.184 78.552,47.384 82.456,47.384 C86.36,47.384 89.56,44.184 89.56,40.28 L89.56,37.528 L84.824,37.528 L84.824,42.264 L80.088,42.264 L80.088,31.064 L89.56,31.064 L89.56,17.112 C89.56,13.208 86.36,10.008 82.456,10.008 C78.552,10.008 75.352,13.208 75.352,17.112 L75.352,40.28 Z M103.768,47 L108.504,47 L108.504,26.52 L113.24,26.52 L113.24,47 L117.976,47 L117.976,8.024 C117.976,4.12 114.776,0.92 110.872,0.92 C106.968,0.92 103.768,4.12 103.768,8.024 L103.768,47 Z M108.504,6.04 L113.24,6.04 L113.24,21.784 L108.504,21.784 L108.504,6.04 Z M136.92,1.304 L132.184,1.304 L132.184,10.392 L127.448,10.392 C124.824,10.392 122.712,12.504 122.712,15.128 L122.712,42.264 C122.712,44.888 124.824,47 127.448,47 L136.92,47 L136.92,1.304 Z M127.448,15.128 L132.184,15.128 L132.184,42.264 L127.448,42.264 L127.448,15.128 Z M146.008,47 L150.36,47 L155.928,10.392 L151.192,10.392 L149.464,24.792 C149.016,28.696 148.44,32.536 148.248,36.504 L148.12,36.504 C147.928,32.536 147.352,28.696 146.904,24.792 L145.176,10.392 L140.44,10.392 L146.008,47 Z M173.656,15.128 C173.656,12.504 171.544,10.392 168.92,10.392 L160.472,10.392 L160.472,15.128 L168.92,15.128 L168.92,20.056 L164.184,20.056 C161.56,20.056 159.448,22.168 159.448,24.792 L159.448,42.264 C159.448,44.888 161.56,47 164.184,47 L173.656,47 L173.656,15.128 Z M164.184,24.792 L168.92,24.792 L168.92,42.264 L164.184,42.264 L164.184,24.792 Z M178.392,47 L183.128,47 L183.128,15.128 L187.864,15.128 L187.864,47 L192.6,47 L192.6,15.128 C192.6,12.504 190.488,10.392 187.864,10.392 L178.392,10.392 L178.392,47 Z M206.808,10.392 L202.072,10.392 L202.072,1.304 L197.336,1.304 L197.336,42.648 C197.336,43.928 197.848,45.144 198.744,45.976 C199.64,46.808 200.792,47.32 202.072,47.384 L202.072,15.128 L206.808,15.128 L206.808,10.392 Z M223.384,15.128 C223.384,12.504 221.272,10.392 218.648,10.392 L210.2,10.392 L210.2,15.128 L218.648,15.128 L218.648,20.056 L213.912,20.056 C211.288,20.056 209.176,22.168 209.176,24.792 L209.176,42.264 C209.176,44.888 211.288,47 213.912,47 L223.384,47 L223.384,15.128 Z M213.912,24.792 L218.648,24.792 L218.648,42.264 L213.912,42.264 L213.912,24.792 Z M229.144,56.344 L237.592,56.344 C240.216,56.344 242.328,54.232 242.328,51.608 L242.328,17.112 C242.328,13.208 239.128,10.008 235.224,10.008 C231.32,10.008 228.12,13.208 228.12,17.112 L228.12,42.264 C228.12,44.888 230.232,47 232.856,47 L237.592,47 L237.592,51.608 L229.144,51.608 L229.144,56.344 Z M232.856,15.128 L237.592,15.128 L237.592,42.264 L232.856,42.264 L232.856,15.128 Z M251.8,15.128 L256.536,15.128 L256.536,26.328 L251.8,26.328 L251.8,15.128 Z M247.064,40.28 C247.064,44.184 250.264,47.384 254.168,47.384 C258.072,47.384 261.272,44.184 261.272,40.28 L261.272,37.528 L256.536,37.528 L256.536,42.264 L251.8,42.264 L251.8,31.064 L261.272,31.064 L261.272,17.112 C261.272,13.208 258.072,10.008 254.168,10.008 C250.264,10.008 247.064,13.208 247.064,17.112 L247.064,40.28 Z" id="masthead-houseadvantage"></path>
        </g>
    </g>
</svg>
