<?xml version="1.0" encoding="UTF-8" standalone="no"?>
<svg width="100px" height="100px" viewBox="0 0 100 100" version="1.1" xmlns="http://www.w3.org/2000/svg" xmlns:xlink="http://www.w3.org/1999/xlink">
    <!-- Generator: Sketch 3.6.1 (26313) - http://www.bohemiancoding.com/sketch -->
    <title>category-printdesign</title>
    <desc>Created with Sketch.</desc>
    <defs></defs>
    <g id="assets" stroke="none" stroke-width="1" fill="none" fill-rule="evenodd">
        <g id="category-printdesign" fill="#737A7E">
            <path d="M50,98 L50,98 C76.509668,98 98,76.509668 98,50 C98,23.490332 76.509668,2 50,2 C23.490332,2 2,23.490332 2,50 C2,76.509668 23.490332,98 50,98 L50,98 Z M50,100 L50,100 C22.3857625,100 0,77.6142375 0,50 C0,22.3857625 22.3857625,0 50,0 C77.6142375,0 100,22.3857625 100,50 C100,77.6142375 77.6142375,100 50,100 L50,100 Z" id="Shape"></path>
            <g id="icon-printdesign" transform="translate(28.000000, 28.000000)">
                <path d="M22,6 C27.0999756,-2.65002436 40.3425451,-1.31490988 44,6 L44,44 C40,35.9999993 26,35.9999993 22,44 C18,36 4,36 0,44 L0,6 C3.65745494,-1.31490986 16.8995209,-2.65002441 22,6 Z M42,6.47998047 C38.4808735,0.37107837 26.9872539,0.497628157 23.7888544,6.89442719 L22,10.472136 L20.2111456,6.89442719 C16.9481942,0.368524278 5.52001953,0.630004883 2,6.47528076 L2,38.7700195 C7.81005859,34.6600342 17.1605689,35.1463297 21.9907808,40.502813 C26.8331194,35.1469942 36.1900024,34.6595449 42,38.7700195 L42,6.47998047 Z" id="Shape"></path>
                <path d="M21,6 L21,42 L23,42 L23,6 L21,6 L21,6 Z" id="Shape"></path>
            </g>
        </g>
    </g>
</svg>