<?xml version="1.0" encoding="UTF-8" standalone="no"?>
<svg width="100px" height="100px" viewBox="0 0 100 100" version="1.1" xmlns="http://www.w3.org/2000/svg" xmlns:xlink="http://www.w3.org/1999/xlink">
    <!-- Generator: Sketch 3.6.1 (26313) - http://www.bohemiancoding.com/sketch -->
    <title>icon-photography</title>
    <desc>Created with Sketch.</desc>
    <defs></defs>
    <g id="assets" stroke="none" stroke-width="1" fill="none" fill-rule="evenodd">
        <g id="icon-photography" fill="#737A7E">
            <path d="M50,98 L50,98 C76.509668,98 98,76.509668 98,50 C98,23.490332 76.509668,2 50,2 C23.490332,2 2,23.490332 2,50 C2,76.509668 23.490332,98 50,98 L50,98 Z M50,100 L50,100 C22.3857625,100 0,77.6142375 0,50 C0,22.3857625 22.3857625,0 50,0 C77.6142375,0 100,22.3857625 100,50 C100,77.6142375 77.6142375,100 50,100 L50,100 Z" id="Shape"></path>
            <g transform="translate(27.000000, 27.000000)">
                <path d="M23,44 L23,44 C34.5979797,44 44,34.5979797 44,23 C44,11.4020203 34.5979797,2 23,2 C11.4020203,2 2,11.4020203 2,23 C2,34.5979797 11.4020203,44 23,44 L23,44 Z M23,46 L23,46 C10.2974508,46 0,35.7025492 0,23 C0,10.2974508 10.2974508,0 23,0 C35.7025492,0 46,10.2974508 46,23 C46,35.7025492 35.7025492,46 23,46 L23,46 Z" id="Shape"></path>
                <path d="M9.28921809,6.77530228 C17.4376716,7.56503754 28.4175137,12.2138413 34.3050039,17.1677552 L35.5926712,15.6374241 C29.3965933,10.4238552 18.0354238,5.6135995 9.48215093,4.7846298 L9.28921809,6.77530228 L9.28921809,6.77530228 Z" id="Shape"></path>
                <path d="M30.1956094,3.0137657 C33.5859054,10.4654011 35.0498443,22.2986251 33.7033741,29.8742982 L35.6725133,30.2242852 C37.0895575,22.2515398 35.5747764,10.0073506 32.0160488,2.1855142 L30.1956094,3.0137657 L30.1956094,3.0137657 Z" id="Path"></path>
                <path d="M43.9063913,19.2384634 C39.1482338,25.9003636 29.6323306,33.0847838 22.3983702,35.706543 L23.0798422,37.5868611 C30.6929643,34.8276847 40.5393526,27.3937511 45.5338979,20.4008844 L43.9063913,19.2384634 L43.9063913,19.2384634 Z" id="Path"></path>
                <path d="M36.7107819,39.2246977 C28.5623284,38.4349625 17.5824863,33.7861587 11.6949961,28.8322448 L10.4073288,30.3625759 C16.6034067,35.5761448 27.9645762,40.3864005 36.5178491,41.2153702 L36.7107819,39.2246977 L36.7107819,39.2246977 Z" id="Path"></path>
                <path d="M15.8043906,42.9862343 C12.4140946,35.5345989 10.9501557,23.7013749 12.2966259,16.1257018 L10.3274867,15.7757148 C8.91044247,23.7484602 10.4252236,35.9926494 13.9839512,43.8144858 L15.8043906,42.9862343 L15.8043906,42.9862343 Z" id="Path"></path>
                <path d="M2.09360865,26.7615366 C6.85176622,20.0996364 16.3676694,12.9152162 23.6016298,10.293457 L22.9201578,8.41313895 C15.3070357,11.1723153 5.46064737,18.6062489 0.466102132,25.5991156 L2.09360865,26.7615366 L2.09360865,26.7615366 Z" id="Path"></path>
            </g>
        </g>
    </g>
</svg>