<?xml version="1.0" encoding="UTF-8"?>
<svg width="100px" height="100px" viewBox="0 0 100 100" version="1.1" xmlns="http://www.w3.org/2000/svg" xmlns:xlink="http://www.w3.org/1999/xlink">
    <!-- Generator: Sketch 40.3 (33839) - http://www.bohemiancoding.com/sketch -->
    <title>icon-ecommerce</title>
    <desc>Created with Sketch.</desc>
    <defs></defs>
    <g id="mockups" stroke="none" stroke-width="1" fill="none" fill-rule="evenodd">
        <g id="Case-Study" transform="translate(-910.000000, -1292.000000)" fill="#737A7E">
            <g id="F2" transform="translate(0.000000, 600.000000)">
                <g id="icon-ecommerce" transform="translate(910.000000, 692.000000)">
                    <g>
                        <path d="M50,98 L50,98 C76.509668,98 98,76.509668 98,50 C98,23.490332 76.509668,2 50,2 C23.490332,2 2,23.490332 2,50 C2,76.509668 23.490332,98 50,98 L50,98 Z M50,100 L50,100 C22.3857625,100 0,77.6142375 0,50 C0,22.3857625 22.3857625,0 50,0 C77.6142375,0 100,22.3857625 100,50 C100,77.6142375 77.6142375,100 50,100 L50,100 Z" id="Shape"></path>
                        <path d="M69.974,67.87 L69.991,67.868 L65.991,37.868 L65.974,37.87 C65.908,37.383 65.506,37 65,37 L58,37 L58,33 C58,28.582 54.418,25 50,25 C45.582,25 42,28.582 42,33 L42,37 L35,37 C34.494,37 34.092,37.383 34.026,37.87 L34.009,37.868 L30.009,67.868 L30.026,67.87 C30.019,67.914 30,67.954 30,68 C30,68.553 30.447,69 31,69 L69,69 C69.553,69 70,68.553 70,68 C70,67.954 69.981,67.914 69.974,67.87 L69.974,67.87 Z M44,33 C44,29.687 46.687,27 50,27 C53.315,27 56,29.687 56,33 L56,37 L44,37 L44,33 L44,33 Z M35.875,39 L42,39 L42,43.277 C41.404,43.624 41,44.262 41,45 C41,46.104 41.895,47 43,47 C44.104,47 45,46.104 45,45 C45,44.262 44.596,43.624 44,43.277 L44,39 L56,39 L56,43.277 C55.404,43.624 55,44.262 55,45 C55,46.104 55.896,47 57,47 C58.104,47 59,46.104 59,45 C59,44.262 58.596,43.624 58,43.277 L58,39 L64.125,39 L67.324,63 L32.676,63 L35.875,39 L35.875,39 Z M32.143,67 L32.408,65 L67.592,65 L67.857,67 L32.143,67 L32.143,67 Z" id="bag"></path>
                    </g>
                </g>
            </g>
        </g>
    </g>
</svg>