<?xml version="1.0" encoding="UTF-8" standalone="no"?>
<svg width="100px" height="100px" viewBox="0 0 100 100" version="1.1" xmlns="http://www.w3.org/2000/svg" xmlns:xlink="http://www.w3.org/1999/xlink">
    <!-- Generator: Sketch 3.6.1 (26313) - http://www.bohemiancoding.com/sketch -->
    <title>icon-userexperience</title>
    <desc>Created with Sketch.</desc>
    <defs></defs>
    <g id="mockups" stroke="none" stroke-width="1" fill="none" fill-rule="evenodd">
        <g id="Main-Frames" transform="translate(-550.000000, -1092.000000)" fill="#737A7E">
            <g id="Frame-2" transform="translate(0.000000, 600.000000)">
                <g id="icon-userexperience" transform="translate(550.000000, 492.000000)">
                    <path d="M50,98 L50,98 C76.509668,98 98,76.509668 98,50 C98,23.490332 76.509668,2 50,2 C23.490332,2 2,23.490332 2,50 C2,76.509668 23.490332,98 50,98 L50,98 Z M50,100 L50,100 C22.3857625,100 0,77.6142375 0,50 C0,22.3857625 22.3857625,0 50,0 C77.6142375,0 100,22.3857625 100,50 C100,77.6142375 77.6142375,100 50,100 L50,100 Z" id="Shape"></path>
                    <g transform="translate(32.000000, 21.000000)">
                        <path d="M14.1339746,20.6961524 L15.8660254,21.6961524 L1.8660254,45.9448637 L0.133974596,44.9448637 L14.1339746,20.6961524 Z M20.1339746,21.6961524 L21.8660254,20.6961524 L35.8660254,44.9448637 L34.1339746,45.9448637 L20.1339746,21.6961524 Z"></path>
                        <path d="M21.621497,42 L21.621497,42 C20.7860953,42 20.0027001,42.3304435 19.4022385,42.9208632 L18,44.299651 L16.5977615,42.9208632 C15.9972999,42.3304435 15.2139047,42 14.378503,42 C12.6040442,42 11.1474519,43.4890402 11.1474519,45.3472968 C11.1474519,47.6385476 12.4343484,49.9072562 14.6399689,51.9436502 C15.4977325,52.7356017 16.4422435,53.4377728 17.3263759,53.9734457 C17.6761916,54.18539 17.992642,54.3559049 18.233261,54.4666261 C18.3195921,54.5063515 18.384295,54.532806 18.4154449,54.5433733 C18.3258802,54.5129895 18.2228115,54.4894 18,54.4894 C17.7771885,54.4894 17.6741198,54.5129895 17.5845551,54.5433733 C17.6157051,54.532806 17.680408,54.5063514 17.7667391,54.466626 C18.0073582,54.3559049 18.3238085,54.1853899 18.6736243,53.9734457 C19.5577567,53.4377728 20.5022678,52.7356017 21.3600315,51.9436501 C23.5656521,49.9072562 24.8525485,47.6385478 24.8525481,45.3472968 C24.8525481,43.4890402 23.3959558,42 21.621497,42 L21.621497,42 Z M21.621497,40 L21.621497,40 C24.5106468,40 26.8525481,42.394355 26.8525481,45.3472968 C26.8525491,52 18.774598,56.4894 18,56.4894 C17.225402,56.4894 9.14745185,52 9.14745185,45.3472968 C9.14745185,42.394355 11.4893532,40 14.378503,40 C15.7852534,40 17.0600203,40.5705154 18,41.4947751 C18.9399797,40.5705154 20.2147466,40 21.621497,40 L21.621497,40 Z" id="Shape"></path>
                        <path d="M32,16 C32,21.0047896 29.3538632,25.5482817 25.1254231,28.0539872 C22.9860752,29.3217303 20.5450788,30 18,30 C15.57778,30 13.2494508,29.3857657 11.184324,28.2322315 L10.1202404,29.9283462 C12.4462536,31.2470881 15.1352008,32 18,32 C20.9743573,32 23.7591552,31.1884 26.1450167,29.7745768 C30.8473419,26.9880547 34,21.8621987 34,16 C33.4548332,15.9999999 32.6005852,16 32,16 Z" id="Shape"></path>
                        <rect id="Rectangle-37" x="17" y="0" width="2" height="10"></rect>
                        <path d="M18,24 C13.581722,24 10,20.418278 10,16 C10,11.581722 13.581722,8 18,8 C22.418278,8 26,11.581722 26,16 C26,20.418278 22.418278,24 18,24 Z M18,22 C21.3137085,22 24,19.3137085 24,16 C24,12.6862915 21.3137085,10 18,10 C14.6862915,10 12,12.6862915 12,16 C12,19.3137085 14.6862915,22 18,22 Z" id="Path"></path>
                    </g>
                </g>
            </g>
        </g>
    </g>
</svg>
