<?xml version="1.0" encoding="UTF-8" standalone="no"?>
<svg width="100px" height="100px" viewBox="0 0 100 100" version="1.1" xmlns="http://www.w3.org/2000/svg" xmlns:xlink="http://www.w3.org/1999/xlink">
    <!-- Generator: Sketch 3.6.1 (26313) - http://www.bohemiancoding.com/sketch -->
    <title>icon-webdesign</title>
    <desc>Created with Sketch.</desc>
    <defs></defs>
    <g id="assets" stroke="none" stroke-width="1" fill="none" fill-rule="evenodd">
        <g id="icon-webdesign" fill="#737A7E">
            <path d="M50,98 L50,98 C76.509668,98 98,76.509668 98,50 C98,23.490332 76.509668,2 50,2 C23.490332,2 2,23.490332 2,50 C2,76.509668 23.490332,98 50,98 L50,98 Z M50,100 L50,100 C22.3857625,100 0,77.6142375 0,50 C0,22.3857625 22.3857625,0 50,0 C77.6142375,0 100,22.3857625 100,50 C100,77.6142375 77.6142375,100 50,100 L50,100 Z" id="Shape"></path>
            <path d="M68,28 L32,28 C29.791,28 28,29.791 28,32 L28,68 C28,70.209 29.791,72 32,72 L68,72 C70.209,72 72,70.209 72,68 L72,32 C72,29.791 70.209,28 68,28 L68,28 Z M70,68 C70,69.104 69.104,70 68,70 L32,70 C30.896,70 30,69.104 30,68 L30,38 L70,38 L70,68 L70,68 Z M70,36 L30,36 L30,32 C30,30.896 30.896,30 32,30 L68,30 C69.104,30 70,30.896 70,32 L70,36 L70,36 Z M33,32 C32.448,32 32,32.448 32,33 C32,33.553 32.448,34 33,34 C33.552,34 34,33.553 34,33 C34,32.448 33.552,32 33,32 Z M37,32 C36.448,32 36,32.448 36,33 C36,33.553 36.448,34 37,34 C37.552,34 38,33.553 38,33 C38,32.448 37.552,32 37,32 Z M41,32 C40.448,32 40,32.448 40,33 C40,33.553 40.448,34 41,34 C41.552,34 42,33.553 42,33 C42,32.448 41.552,32 41,32 Z M67,32 L45,32 C44.448,32 44,32.448 44,33 C44,33.553 44.448,34 45,34 L67,34 C67.552,34 68,33.553 68,33 C68,32.448 67.552,32 67,32 Z M52.0636708,44.6488766 L46.0636708,60.6488766 C45.8697507,61.1659969 46.1317562,61.7424091 46.6488766,61.9363292 C47.1659969,62.1302493 47.7424091,61.8682438 47.9363292,61.3511234 L53.9363292,45.3511234 C54.1302493,44.8340031 53.8682438,44.2575909 53.3511234,44.0636708 C52.8340031,43.8697507 52.2575909,44.1317562 52.0636708,44.6488766 Z M62.6035622,53 L57.2928932,58.2928932 C56.9023689,58.6834175 56.9023689,59.3165825 57.2928932,59.7071068 C57.6834175,60.0976311 58.3165825,60.0976311 58.7071068,59.7071068 L64.7071068,53.7071068 C65.0976311,53.3165825 65.0976311,52.6834175 64.7071068,52.2928932 L58.7071068,46.2928932 C58.3165825,45.9023689 57.6834175,45.9023689 57.2928932,46.2928932 C56.9023689,46.6834175 56.9023689,47.3165825 57.2928932,47.7071068 L62.6035622,53 Z M35.2928932,52.2928932 C34.9023689,52.6834175 34.9023689,53.3165825 35.2928932,53.7071068 L41.2928932,59.7071068 C41.6834175,60.0976311 42.3165825,60.0976311 42.7071068,59.7071068 C43.0976311,59.3165825 43.0976311,58.6834175 42.7071068,58.2928932 L37.3999939,53 L42.7071068,47.7071068 C43.0976311,47.3165825 43.0976311,46.6834175 42.7071068,46.2928932 C42.3165825,45.9023689 41.6834175,45.9023689 41.2928932,46.2928932 L35.2928932,52.2928932 Z"></path>
        </g>
    </g>
</svg>