<?xml version="1.0" encoding="UTF-8"?>
<svg width="100px" height="100px" viewBox="0 0 100 100" version="1.1" xmlns="http://www.w3.org/2000/svg" xmlns:xlink="http://www.w3.org/1999/xlink">
    <!-- Generator: Sketch 40.3 (33839) - http://www.bohemiancoding.com/sketch -->
    <title>icon-brandidentity</title>
    <desc>Created with Sketch.</desc>
    <defs></defs>
    <g id="mockups" stroke="none" stroke-width="1" fill="none" fill-rule="evenodd">
        <g id="Case-Study" transform="translate(-670.000000, -1292.000000)" fill="#737A7E">
            <g id="F2" transform="translate(0.000000, 600.000000)">
                <g id="icon-brandidentity" transform="translate(670.000000, 692.000000)">
                    <path d="M50,98 L50,98 C76.509668,98 98,76.509668 98,50 C98,23.490332 76.509668,2 50,2 C23.490332,2 2,23.490332 2,50 C2,76.509668 23.490332,98 50,98 L50,98 Z M50,100 L50,100 C22.3857625,100 0,77.6142375 0,50 C0,22.3857625 22.3857625,0 50,0 C77.6142375,0 100,22.3857625 100,50 C100,77.6142375 77.6142375,100 50,100 L50,100 Z" id="Shape"></path>
                    <path d="M39.5001813,27.0190395 C39.6038005,32.4603751 42.335736,35.3074589 49.4803219,39.6456804 C49.6074631,39.7228811 50.1115898,40.0285546 50.2363263,40.1042942 C56.4481128,43.8760748 58.5498662,46.05197 58.50008,49.9873501 C58.5512556,54.2492804 56.4168801,56.4330841 49.9051612,60.2955922 C49.6974355,60.4187722 49.6974355,60.4187722 49.4891417,60.5422961 C42.2694767,64.825087 39.6037378,67.5429149 39.5001813,72.9809605 L41.4998187,73.0190395 C41.5854066,68.5245774 43.8565835,66.2090214 50.5095348,62.2624118 C50.7173473,62.1391734 50.7173473,62.1391734 50.9254915,62.0157451 C58.0264125,57.8037444 60.5629873,55.2084271 60.4999271,49.9879215 C60.5620483,45.1016812 58.0684536,42.5201222 51.2743507,38.3947606 C51.1489007,38.3185877 50.6447796,38.0129176 50.5183546,37.9361518 C43.9286306,33.9348447 41.5857453,31.4932092 41.4998187,26.9809605 L39.5001813,27.0190395 L39.5001813,27.0190395 Z" id="Shape"></path>
                    <path d="M58.5009455,26.9809605 C58.4150189,31.4932092 56.0721337,33.9348447 49.4824097,37.9361518 C49.3559846,38.0129176 48.8518636,38.3185877 48.7264136,38.3947606 C41.9323107,42.5201222 39.438716,45.1016812 39.5008443,50.0126499 C39.437777,55.2084271 41.9743518,57.8037444 49.0752727,62.0157451 C49.283417,62.1391734 49.283417,62.1391734 49.4912295,62.2624118 C56.1441808,66.2090214 58.4153576,68.5245774 58.5009455,73.0190395 L60.500583,72.9809605 C60.3970265,67.5429149 57.7312876,64.825087 50.5116226,60.5422961 C50.3033287,60.4187722 50.3033287,60.4187722 50.0956031,60.2955922 C43.5838842,56.4330841 41.4495087,54.2492804 41.5006913,50.0120785 C41.4508981,46.05197 43.5526515,43.8760748 49.764438,40.1042942 C49.8891745,40.0285546 50.3933012,39.7228811 50.5204424,39.6456804 C57.6650283,35.3074589 60.3969638,32.4603751 60.500583,27.0190395 L58.5009455,26.9809605 L58.5009455,26.9809605 Z" id="Shape"></path>
                    <polygon id="Shape" points="41.5 32 58.5 32 58.5 30 41.5 30"></polygon>
                    <polygon id="Shape" points="41.5 51 58.5 51 58.5 49 41.5 49"></polygon>
                    <polygon id="Shape" points="41.5 46 58.5 46 58.5 44 41.5 44"></polygon>
                    <polygon id="Shape" points="41.5 56 58.5 56 58.5 54 41.5 54"></polygon>
                    <polygon id="Shape" points="41.5 70 58.5 70 58.5 68 41.5 68"></polygon>
                </g>
            </g>
        </g>
    </g>
</svg>