<?xml version="1.0" encoding="UTF-8" standalone="no"?>
<svg width="100px" height="100px" viewBox="0 0 100 100" version="1.1" xmlns="http://www.w3.org/2000/svg" xmlns:xlink="http://www.w3.org/1999/xlink">
    <!-- Generator: Sketch 3.6.1 (26313) - http://www.bohemiancoding.com/sketch -->
    <title>icon-3dmodeling</title>
    <desc>Created with Sketch.</desc>
    <defs></defs>
    <g id="assets" stroke="none" stroke-width="1" fill="none" fill-rule="evenodd">
        <g id="icon-3dmodeling" fill="#737A7E">
            <path d="M50,98 L50,98 C76.509668,98 98,76.509668 98,50 C98,23.490332 76.509668,2 50,2 C23.490332,2 2,23.490332 2,50 C2,76.509668 23.490332,98 50,98 L50,98 Z M50,100 L50,100 C22.3857625,100 0,77.6142375 0,50 C0,22.3857625 22.3857625,0 50,0 C77.6142375,0 100,22.3857625 100,50 C100,77.6142375 77.6142375,100 50,100 L50,100 Z" id="Shape"></path>
            <g transform="translate(28.000000, 27.000000)" id="Shape">
                <path d="M2,33.7688238 L22,43.7588683 L42,33.7754517 L42,11.2963581 L22,2.18781659 L2,11.2847734 L2,33.7688238 Z M0,10 L22,0 L44,10 L44,35 L22,46 L0,35 L0,10 Z"></path>
                <path d="M21.6060807,20.919145 L22,21.0879676 L22.3939193,20.919145 L43.3939193,11.919145 L42.6060807,10.080855 L22,18.9188657 L1.3939193,10.080855 L0.606080701,11.919145 L21.6060807,20.919145 Z"></path>
                <path d="M21.5700664,33.9028605 L22,34.1075908 L22.4299336,33.9028605 L43.4299336,23.9028605 L42.5700664,22.0971395 L22,31.9077666 L1.42993358,22.0971395 L0.57006642,23.9028605 L21.5700664,33.9028605 Z"></path>
                <path d="M12.0031575,15.6580429 L32.3939193,6.91914503 L31.6060807,5.08085497 L10.6060807,14.080855 L10,14.3406038 L10,15 L10,40 L12,40 L12.0031575,15.6580429 Z"></path>
                <path d="M34,15 L34,14.3406038 L33.3939193,14.080855 L12.3939193,5.08085497 L11.6060807,6.91914503 L32,15.6518555 L32,40 L34,40 L34,15 Z"></path>
                <path d="M21,44 L23,44 L23,20 L21,20 L21,44 Z"></path>
            </g>
        </g>
    </g>
</svg>