<svg xmlns="http://www.w3.org/2000/svg" width="274" height="98" viewBox="0 0 274 98">
  <path fill="#FFF" fill-rule="evenodd" d="M144.359876,75.0329292 C144.396601,75.2065427 144.365675,75.3791916 144.269515,75.5113308 C144.188334,75.6256263 144.063663,75.710504 143.924013,75.738475 L143.823987,75.7461912 C143.721544,75.7413686 143.630699,75.7061636 143.529707,75.6584199 C143.356231,75.5855987 143.096259,75.4751613 142.621255,75.4524951 C142.239029,75.4365805 141.786253,75.4795016 141.271625,75.5870455 C141.060459,75.6318957 140.793722,75.7259363 140.465616,75.8807416 C140.39265,76.3239382 140.323067,76.7680993 140.248651,77.2117781 C139.147879,84.1162888 138.102677,90.6383675 132.302119,91.8454633 C131.712592,91.9689218 131.140461,92.0190768 130.600222,91.993517 C128.447483,91.8970651 126.853827,90.6084675 126.441158,88.6287918 C125.850182,85.8037151 128.349389,83.5226272 128.859185,83.4141188 L128.950513,83.4088139 C129.179076,83.4189414 129.388793,83.6470502 129.429383,83.8442943 C129.463692,84.0077803 129.379612,84.1240049 129.172311,84.4017864 C128.704555,85.0311352 127.734252,86.3457749 128.088934,88.049598 C128.318463,89.1428805 129.167962,90.3355085 130.868409,90.4131523 C131.220192,90.4285846 131.591304,90.395791 131.980778,90.3138068 C136.609531,89.3492876 137.497687,83.6041291 138.43948,77.5266936 L138.577198,76.6465698 C138.348152,76.7198733 138.123455,76.7791912 137.898758,76.8269349 C137.503485,76.9108481 137.123676,76.9426772 136.764161,76.9277272 C135.614583,76.8761254 134.792628,76.3215269 134.618186,75.4848065 C134.57228,75.2726123 134.611421,75.0247308 134.724011,74.809643 C134.844333,74.5743004 135.031338,74.4151547 135.235257,74.3717513 C135.651308,74.2859091 135.862958,74.5839455 135.967816,74.8014446 C136.159171,75.1968975 136.886898,75.3709932 137.726733,75.195933 C138.023429,75.132757 138.373279,75.019426 138.856498,74.8250753 C139.468253,71.2187381 140.300356,67.506786 142.159781,64.5582508 C140.873453,64.659043 138.86278,64.369205 136.731302,64.0354814 C134.847715,63.739374 132.906142,63.4369972 131.001294,63.349226 C129.530376,63.2841209 128.297202,63.3593534 127.232188,63.5816751 C123.981575,64.257803 120.462293,66.3614194 121.235926,70.0531166 C121.635548,71.9647937 123.123862,73.2061299 125.123421,73.2963124 C125.547204,73.3165673 125.984517,73.2808801 126.417481,73.1897331 C126.915679,73.0831537 127.213825,73.2422993 127.284858,73.5885617 C127.337529,73.8456061 127.2491,74.179812 126.522339,74.330277 C125.900437,74.4604871 125.271769,74.5120889 124.661947,74.4836356 C122.022606,74.3664465 120.071369,72.7981383 119.570271,70.3998613 C119.132475,68.3068546 119.701223,66.3778162 121.211282,64.8210823 C122.533852,63.4577344 124.538726,62.4425779 126.859143,61.9608006 C128.088934,61.7042385 129.420685,61.6106801 130.935093,61.6801255 C132.739432,61.7611451 134.536039,62.056288 136.273694,62.3432324 C137.887644,62.609922 139.413166,62.8602147 140.84446,62.9253198 C141.816213,62.9716167 142.649765,62.9224262 143.389573,62.7763016 C143.942859,62.0017926 144.769646,61.1486754 145.353857,61.027146 C145.937102,60.9056166 146.408724,61.2012417 146.519381,61.7317273 C146.677877,62.4821232 145.912458,63.3038936 144.184468,64.2505692 C142.397042,66.7346883 141.50502,69.9889761 140.754098,74.0809488 C140.882634,74.0418858 141.006821,74.0071631 141.13874,73.9801565 C141.456698,73.9145692 141.783354,73.8890095 142.098896,73.9025127 C143.328204,73.9574903 144.273863,74.620115 144.359876,75.0329292 L144.359876,75.0329292 Z M77.251046,13 C82.679447,13.1367988 88.2970711,15.6186509 88.2970711,22.2429275 C88.2970711,29.8077568 80.92505,30.917726 77.251046,31 L77.251046,13 Z M89.3480867,37.4140429 C88.4374743,35.5481286 87.3169418,33.2555714 84.4882921,31.7795286 C88.8443743,29.9975286 91.3552682,26.4948143 91.3552682,21.7857143 C91.3552682,14.7586 85.9155572,10.1753714 77.4564473,10.0084857 L74.5808292,10 L74.5808292,30.2714286 L71.2259414,30.2714286 L71.2259414,33.1 L74.5808292,33.1 L74.5808292,43 L77.4564473,43 L77.4564473,33.1061286 C84.1139825,33.232 85.4578547,35.9785429 86.7552377,38.6378714 C87.7530772,40.6824571 88.8841537,43 92.3138075,43 L92.3138075,40.1714286 C90.8189654,40.1714286 90.365097,39.4982286 89.3480867,37.4140429 L89.3480867,37.4140429 Z M126.456067,43 L98.3389121,43 L98.3389121,10 L101.247583,10 L101.247583,40.1714286 L126.456067,40.1714286 L126.456067,43 Z M160.27002,71.0146653 C160.327877,71.0013441 160.380311,70.9976693 160.425512,71.0013441 C160.55072,71.0068563 160.585525,71.0642753 160.585525,71.0642753 C160.780343,72.0119177 158.719614,73.8052264 156.58159,75 C157.234749,73.1497317 158.901323,71.3022194 160.27002,71.0146653 L160.27002,71.0146653 Z M195.241107,54.0169765 C195.317133,54.005394 195.3796,53.9984445 195.438677,54.0002977 C195.550536,54.0063206 195.671112,54.0368985 195.718568,54.2356548 C196.023155,55.6422379 193.671199,59.2638651 188.715481,65 C190.681498,58.7713757 193.251362,54.415879 195.241107,54.0169765 L195.241107,54.0169765 Z M200.002931,65.5971404 C199.730344,65.653618 199.566792,65.936006 199.539292,65.9900905 C199.520476,66.0235942 197.66978,69.2763212 195.536366,69.7204841 C195.422507,69.7420222 195.329875,69.7515946 195.253647,69.7482443 C195.126279,69.7429794 195.045227,69.7214413 194.991675,69.4783005 C194.862859,68.8623117 195.391147,67.8897482 195.896277,66.9459021 C196.50224,65.8259225 197.133773,64.6662172 196.934519,63.7166276 C196.732371,62.7593801 195.968163,62.2410305 195.044262,62.4315228 C193.373039,62.7742174 189.783577,66.921971 187.628935,69.9358648 C187.75968,69.5089324 187.906828,69.0776924 188.048188,68.7440916 L188.20981,68.5583856 C191.797342,64.3570262 197.80342,57.3246072 197.202764,54.4686593 C196.982282,53.4281312 195.984566,52.8150141 194.84935,53.0500184 C191.180283,53.8043295 188.452002,60.8420133 186.814069,66.6123014 C186.634596,67.2407344 186.408324,68.0735397 186.183018,68.9393701 C185.473327,70.1024259 183.662675,72.8425469 180.706676,73.455664 C179.680495,73.6653012 178.966944,73.2733083 178.779752,72.3687094 C178.26642,69.9305999 180.700886,66.4883378 182.677985,66.0776786 C182.92066,66.0293376 183.072633,66.092516 183.110264,66.274393 C183.165747,66.5294995 183.029212,66.7822128 182.917765,66.9870638 C182.827064,67.1569752 182.753731,67.2900326 182.787985,67.4407991 C182.858906,67.7878013 183.220747,68.0295063 183.578728,67.9572342 C183.992674,67.8677315 184.733724,66.8563995 184.552321,65.976689 C184.390217,65.2324291 183.749034,64.738968 182.877721,64.7006781 C182.649038,64.6915842 182.411188,64.7131223 182.16996,64.7609847 C179.773608,65.2573175 177.681685,68.2147337 177.162564,70.7471321 C176.807477,71.3645567 175.246737,73.8849895 173.200164,74.3090501 C172.79056,74.3942452 172.57442,74.3080929 172.500605,73.9668341 C172.375649,73.3618537 172.886568,72.3979054 173.383979,71.4679395 C174.000074,70.3149348 174.638361,69.118854 174.424634,68.1056075 C174.266871,67.35704 173.620382,66.8276821 172.817577,66.7913067 C172.658367,66.7841273 172.491921,66.7956143 172.333193,66.8329469 C170.513857,67.2077093 168.038382,69.6687927 166.028476,72.425187 C166.454001,71.4803837 166.910403,70.5911007 167.433384,69.66975 C167.634085,69.3179615 167.727199,69.1308196 167.685225,68.9350625 C167.632155,68.6938361 167.392375,68.3296034 166.937903,68.308544 C166.862158,68.3056723 166.784965,68.3114157 166.705842,68.3296034 C166.036195,68.4679257 164.608612,71.8072837 163.848746,73.794051 C163.157388,74.8877063 161.186561,77.5952809 158.250825,78.2050476 C157.192802,78.4223427 156.365392,77.9532915 156.167103,77.0080095 C156.140086,76.8873963 156.113551,76.7696549 156.109691,76.6547852 C158.490605,75.4754562 162.632478,72.8066501 162.176076,70.644228 C161.976822,69.6999033 161.01915,69.171024 159.892618,69.4074642 C158.618455,69.66975 157.113197,70.8016952 155.966402,72.3581797 C155.197852,73.4039726 154.698512,74.4851837 154.501188,75.4960371 C153.085183,77.8623529 151.66146,79.2996601 150.471244,79.5475872 C150.384402,79.5638604 150.30142,79.571997 150.226157,79.5691253 C150.062123,79.5614673 149.835851,79.5054683 149.752387,79.1067747 C149.561335,78.2040903 150.145105,77.0218896 150.660366,75.9789684 C151.146681,74.9906104 151.607907,74.053465 151.455934,73.3259569 C151.347864,72.8037784 150.874576,72.6448753 150.547472,72.5692527 C149.710896,72.3189325 148.836688,71.9829386 148.604145,71.8321721 C148.63068,71.6321074 148.887346,71.1673637 149.044626,70.8768391 C149.399712,70.2259108 149.609098,69.8104654 149.543001,69.4969668 C149.456642,69.0848717 148.821249,68.666076 148.370637,68.7622793 C147.580858,68.92549 147.359894,70.2115521 147.16643,71.3415828 C147.114807,71.6435944 147.066562,71.93029 147.016869,72.1188678 C146.711475,73.2106086 145.479769,75.9430717 144.659113,77.35214 C144.610868,77.444993 144.498938,77.6862194 144.540429,77.88772 C144.600736,78.1758515 144.968367,78.4055909 145.284857,78.3438485 C145.543935,78.2911998 145.713759,78.0504521 145.754768,77.988231 C146.642484,76.4355755 147.632964,74.4435434 148.001559,73.6083449 C148.081646,73.4350831 148.139058,73.3388798 148.167041,73.3187776 C148.356645,73.3297859 148.878179,73.5518673 149.396818,73.7782564 C149.470151,73.8103242 149.691597,73.908442 149.718132,73.952954 C149.801115,74.3415965 149.458572,75.0552246 149.095283,75.8148005 C148.540461,76.9725914 147.910857,78.2835419 148.167041,79.5025966 C148.353751,80.3837429 149.040766,80.956177 149.958877,80.99686 C150.156684,81.0073897 150.361244,80.9915951 150.565323,80.9470831 C152.073958,80.635499 153.546892,79.0407246 154.591889,77.6259128 C155.000528,78.8971375 156.046972,79.6883026 157.473591,79.7524382 C157.826265,79.76919 158.190036,79.7371222 158.559113,79.6605424 C160.228406,79.3130616 161.693139,78.2112697 162.8216,77.0668802 C162.789758,77.2731671 162.794583,77.3899513 162.811469,77.4698815 C162.895416,77.858524 163.263046,78.0523666 163.566028,78.0652894 C163.630194,78.0672039 163.693878,78.0628963 163.751773,78.0523666 C164.20142,77.9590349 164.392955,77.7331245 164.563261,77.3861223 C167.189262,72.6281235 170.580435,68.7488779 172.452842,68.3621499 C172.668017,68.3166806 172.730253,68.457396 172.730253,68.457396 C172.846042,69.0102064 172.370342,69.8870452 171.869072,70.8165325 C171.238503,71.9791096 170.525918,73.295325 170.762803,74.4263129 C170.942759,75.2830495 171.629292,75.8416034 172.556087,75.8827651 C172.770297,75.8913803 172.992709,75.8736712 173.217532,75.8262875 C174.795641,75.4979516 176.225637,74.0706955 177.172213,72.8947169 C177.515721,74.0936694 178.50813,74.8723903 179.826678,74.9322183 C180.157642,74.9451411 180.506939,74.9149878 180.863956,74.8441515 C182.733467,74.4559876 184.290348,73.2311894 185.451134,71.9771951 C185.30881,72.6348242 185.229688,73.117277 185.261047,73.254642 C185.335828,73.6188747 185.664862,73.8945619 186.049861,73.9108352 C186.115474,73.9141855 186.181088,73.9074848 186.246702,73.8945619 C186.786086,73.7830426 186.957358,73.4872531 187.148892,73.1440799 L187.236699,73.0038431 C189.447788,69.3753964 193.988169,64.2349771 195.240621,63.9803493 C195.240621,63.9803493 195.260402,63.9966225 195.273911,64.0569291 C195.366542,64.5068354 194.934262,65.2889067 194.476895,66.1126182 C193.81931,67.2924257 193.078742,68.6287433 193.335408,69.851627 C193.5501,70.882104 194.480273,71.4234275 195.607287,71.1889018 C198.239077,70.6475783 200.534113,66.7927425 200.634946,66.6228311 C200.683192,66.5294995 200.797051,66.2863586 200.75749,66.0872511 C200.690911,65.7723167 200.322316,65.5310903 200.002931,65.5971404 L200.002931,65.5971404 Z M247.578379,60.951689 C247.266207,61.0437389 247.007136,60.9767935 246.968517,60.9722291 L246.959935,60.9767935 C246.954571,60.9243023 246.96208,60.8976763 246.972808,60.8687681 C247.126748,60.5340413 248.009628,60.2799533 248.939172,60.0076074 C248.948827,60.0045645 248.958482,60.003043 248.966527,60 C248.497196,60.4982864 248.027865,60.8177983 247.578379,60.951689 L247.578379,60.951689 Z M256.990085,54.4540553 C256.929697,54.1552158 256.550943,53.9041906 256.239341,53.9644366 C255.965421,54.0218138 255.801165,54.3034402 255.776527,54.3526889 C255.063465,55.5442219 253.997737,56.6004404 252.823793,57.2970951 C253.718502,55.4495496 254.125759,53.4432605 253.843143,52.1073282 C253.592412,50.9157953 252.66775,50.2798647 251.51458,50.5155894 C250.014541,50.8259043 248.308699,52.4731078 247.239589,53.6708567 C247.59612,52.7795977 247.890814,52.149883 248.128984,51.6387479 L248.325607,51.2155911 C248.443485,50.9502216 248.520299,50.774743 248.476336,50.557666 C248.408701,50.2569139 247.956516,49.9179103 247.474377,50.0178422 C247.123161,50.0929107 247.002384,50.3401108 246.82122,50.7006308 C246.237147,51.9610164 245.281567,54.2087678 244.464154,56.9308373 C243.939986,57.7647192 242.249603,60.2438919 240.570332,60.5915021 C240.073218,60.6923903 239.71717,60.4824854 239.614269,60.0014733 C239.25967,58.3179309 240.964545,54.9331549 241.500791,53.9319229 C241.586784,53.7664853 241.674709,53.5068535 241.63751,53.3337657 C241.567943,52.9985873 241.247645,52.6395017 240.696906,52.7513872 C240.037951,52.8847892 238.916183,55.6608889 238.870771,55.7809028 C238.419068,56.9093209 237.701658,58.9997632 237.984757,60.3385643 C238.198289,61.3498373 238.955797,62.0120657 239.956306,62.0570111 C240.176602,62.0660958 240.403178,62.0474483 240.628788,61.9986777 C241.731715,61.772994 242.802758,60.9104236 243.677177,59.9813913 C243.058803,62.8105649 242.218684,67.6866697 242.880538,70.8357212 C243.029334,71.5309415 243.632248,71.9827868 243.999407,72 L244.109555,71.993306 C244.5429,71.9005462 244.684933,71.4640014 244.522126,70.6965815 C244.01535,68.2943898 244.271878,64.6719766 245.285431,59.9455305 C245.499447,59.0375365 245.726023,58.244775 246.152604,57.3582974 C246.60334,56.4503034 249.675884,52.54722 251.688497,52.1321917 C251.74647,52.1221507 251.80251,52.1178474 251.851304,52.1188037 C251.935364,52.1221507 252.108798,52.129801 252.199139,52.5481763 C252.491417,53.9381388 251.7885,56.3886229 250.585087,58.1639688 C250.025652,58.3078899 249.487957,58.4298164 248.991808,58.5445708 C247.019776,58.9806375 245.463697,59.3301602 245.771918,60.7942348 C245.95598,61.6563271 246.853588,62.0445794 248.109177,61.786382 C249.362833,61.5262721 250.604894,60.6211469 251.711686,59.1666352 C253.846042,58.431729 255.627731,56.9891708 256.870275,54.9857506 C256.920518,54.8939471 257.034048,54.6548755 256.990085,54.4540553 L256.990085,54.4540553 Z M203.704414,26.6753714 C202.727636,34.3276 201.621904,43 190.723849,43 L190.723849,40.1714286 C198.51113,40.1714286 199.740042,34.9404571 200.84,26.3246286 C201.816297,18.6728714 202.92251,10 213.820084,10 L213.820084,12.8285714 C206.033285,12.8285714 204.803891,18.0600143 203.704414,26.6753714 L203.704414,26.6753714 Z M51.1422594,30 L56.1631799,17 L61.1841004,30 L51.1422594,30 Z M43.1087866,43 L46.1897213,43 L50.0276966,33.0037801 L62.2986632,33.0037801 L66.1366385,43 L69.2175732,43 L56.1631799,9 L43.1087866,43 Z M236.62023,51.2676926 C237.533471,55.6460632 236.311045,60.7925018 233.272637,65.3899105 C230.33061,69.833323 226.141347,72.9998103 222.060393,73.851572 C221.488783,73.970656 220.933396,74.0184809 220.399957,73.993612 C218.468983,73.9080054 216.96123,72.8434228 216.650136,71.3450684 C215.935385,67.9121963 220.748744,64.7557522 225.822142,63.6978652 C225.981506,63.6639095 226.121307,63.6471708 226.237728,63.6524315 C226.678603,63.6729962 226.781664,63.9494242 226.805998,64.0670735 C226.939597,64.713188 226.238682,64.86288 226.010134,64.9087919 C221.503574,65.8523774 217.818168,68.7266545 218.279082,70.9395132 C218.464689,71.8281 219.28441,72.3905209 220.472481,72.4440848 C220.873754,72.4622583 221.309857,72.4230419 221.777451,72.3250008 C229.62063,70.6860411 236.649813,59.6509212 234.976493,51.6134667 C234.072318,47.2599651 230.917011,44.7434183 226.095064,44.5253367 C224.642182,44.4602948 223.037093,44.6075955 221.327511,44.9629346 C212.045764,46.9041478 205.611094,53.4508998 206.469941,57.5738853 C206.805845,59.1865413 207.908509,60.1530828 209.498806,60.2243419 C209.840914,60.2396459 210.195427,60.2090379 210.547077,60.1373006 C212.164094,59.8020479 213.156539,58.8876356 213.63797,58.4481247 C213.850773,58.2482166 213.950495,58.158784 214.075028,58.1339151 L214.180952,58.1243501 C214.439561,58.137741 214.671926,58.3916913 214.71964,58.6107294 C214.794551,58.982329 214.040674,59.7264846 213.628905,60.0689109 C213.013875,60.5820722 211.988508,61.2564035 210.572365,61.5510049 C210.121947,61.6461765 209.659125,61.6825234 209.197733,61.6590892 C206.969503,61.5605699 205.362983,60.1679085 204.897774,57.9344852 C203.741671,52.3891868 211.430734,45.5143559 221.02262,43.5061879 C222.932123,43.1082846 224.732361,42.9428104 226.369895,43.0174173 C231.921862,43.2694545 235.567666,46.1982521 236.62023,51.2676926 L236.62023,51.2676926 Z M215.563971,66.3084212 C215.633655,66.6423516 215.341554,66.9203921 215.031793,66.9823876 C214.969746,66.9964775 214.908653,67.0021135 214.845173,66.9992955 C214.496752,66.9823876 214.0691,66.7231337 213.954551,66.1806729 C213.182296,62.544542 215.935302,56.8353186 217.151913,54.5438329 C219.020024,51.0429649 221.6833,47.2687531 222.915662,47.0174833 C223.387701,46.9183845 223.772873,47.2584205 223.844944,47.5871846 C223.935152,48.0145779 223.651642,48.3076476 223.332813,48.5556297 C220.635172,50.726412 214.427067,60.9448698 215.563971,66.3084212 L215.563971,66.3084212 Z M185.702929,43 L169.635983,43 L169.635983,10 L185.702929,10 L185.702929,12.8285714 L172.557246,12.8285714 L172.557246,27.4428571 L185.702929,27.4428571 L185.702929,30.2714286 L172.557246,30.2714286 L172.557246,40.1714286 L185.702929,40.1714286 L185.702929,43 Z M195.242678,16 L193.736402,16 L193.736402,6 L197.753138,6 L195.242678,16 Z M118.422594,12 C122.824335,12 125.451883,15.3650526 125.451883,21 C125.451883,26.6354211 122.824335,30 118.422594,30 C114.020854,30 111.393305,26.6354211 111.393305,21 C111.393305,15.3650526 114.020854,12 118.422594,12 L118.422594,12 Z M118.422594,33 C124.522773,33 128.464435,28.29024 128.464435,21 C128.464435,13.71024 124.522773,9 118.422594,9 C112.322415,9 108.380753,13.71024 108.380753,21 C108.380753,28.29024 112.322415,33 118.422594,33 L118.422594,33 Z M143.691381,44 L130.472803,10 L133.597627,10 L143.691381,36.0243596 L146.994447,27.5103239 L140.186275,10 L143.311099,10 L153.404853,36.0243596 L163.498607,10 L166.623431,10 L153.404853,44 L148.548117,31.5084609 L143.691381,44 Z M241.964119,49.2125892 C241.897564,48.8378016 241.956724,48.3556935 242.11803,47.9269676 C242.302445,47.4365185 242.591316,47.1084404 242.913466,47.028367 C242.999434,47.0050123 243.083553,46.9977835 243.166286,47.0005638 C243.598899,47.0250307 243.855417,47.3981501 243.918737,47.7562557 C243.985755,48.1404965 243.92567,48.6370622 243.757894,49.0785776 C243.569319,49.5723631 243.284607,49.8965488 242.974937,49.9805146 C242.898213,49.9966404 242.81964,50.0027572 242.741067,49.9988647 C242.354673,49.9805146 242.042692,49.6618895 241.964119,49.2125892 L241.964119,49.2125892 Z M20.0125523,31 L36.0794979,31 L36.0794979,28 L20.0125523,28 L20.0125523,31 Z M36.1464435,24.5 L19.9456067,24.5 L19.9456067,6 L17,6 L17,43 L19.9456067,43 L19.9456067,33.0384615 L36.1464435,33.0384615 L36.1464435,43 L39.0920502,43 L39.0920502,6 L36.1464435,6 L36.1464435,24.5 Z"/>
</svg>
