<svg xmlns="http://www.w3.org/2000/svg" width="274" height="98" viewBox="0 0 274 98">
  <g fill="#FFF" fill-rule="evenodd" transform="translate(15 1)">
    <path d="M8.48351852,11.4545455 L5.82324074,11.4545455 L5.82324074,2.22545455 L0.451851852,2.22545455 L0.451851852,0.327272727 L13.7532407,0.327272727 L13.7532407,2.22545455 L8.48351852,2.22545455 L8.48351852,11.4545455 Z M17.5939815,0.327272727 L20.2542593,0.327272727 L20.2542593,4.72909091 L28.7773148,4.72909091 L28.7773148,0.327272727 L31.4375926,0.327272727 L31.4375926,11.4545455 L28.7773148,11.4545455 L28.7773148,6.75818182 L20.2542593,6.75818182 L20.2542593,11.4545455 L17.5939815,11.4545455 L17.5939815,0.327272727 Z M36.9727778,0.327272727 L48.9186111,0.327272727 L48.9186111,2.22545455 L39.6330556,2.22545455 L39.6330556,4.76181818 L45.0722222,4.76181818 L45.0722222,6.75818182 L39.6330556,6.75818182 L39.6330556,9.44181818 L49.0033333,9.44181818 L49.0033333,11.4545455 L36.9727778,11.4545455 L36.9727778,0.327272727 Z M70.4606481,9.55636364 C70.6978716,9.55636364 70.8786105,9.51000046 71.0028704,9.41727273 C71.1271303,9.32454499 71.1892593,9.13636505 71.1892593,8.85272727 L71.1892593,7.42909091 C71.1892593,7.13454398 71.1271303,6.94090955 71.0028704,6.84818182 C70.8786105,6.75545408 70.6978716,6.70909091 70.4606481,6.70909091 L63.6659259,6.70909091 L63.6659259,9.55636364 L70.4606481,9.55636364 Z M71.104537,2.7 C71.104537,2.51454453 71.039584,2.37818225 70.9096759,2.29090909 C70.7797679,2.20363593 70.5679644,2.16 70.2742593,2.16 L63.6659259,2.16 L63.6659259,4.86 L70.2742593,4.86 C70.5679644,4.86 70.7797679,4.82454581 70.9096759,4.75363636 C71.039584,4.68272692 71.104537,4.53818291 71.104537,4.32 L71.104537,2.7 Z M72.0025926,5.77636364 C72.1833342,5.83090936 72.3753694,5.89090876 72.5787037,5.95636364 C72.7820381,6.02181851 72.9712491,6.12272659 73.1463426,6.25909091 C73.3214361,6.39545523 73.4654624,6.58636241 73.5784259,6.83181818 C73.6913895,7.07727395 73.7478704,7.41272515 73.7478704,7.83818182 L73.7478704,9.32727273 C73.7478704,10.0690946 73.4880582,10.6090892 72.9684259,10.9472727 C72.4487937,11.2854562 71.7088937,11.4545455 70.7487037,11.4545455 L61.0903704,11.4545455 L61.0903704,0.327272727 L70.7487037,0.327272727 C71.2344469,0.327272727 71.6608778,0.359999673 72.0280093,0.425454545 C72.3951407,0.490909418 72.6973136,0.608180973 72.934537,0.777272727 C73.1717604,0.946364482 73.3496753,1.16999861 73.468287,1.44818182 C73.5868987,1.72636503 73.6462037,2.07817969 73.6462037,2.50363636 L73.6462037,4.04181818 C73.6462037,4.32545596 73.5925468,4.56545356 73.4852315,4.76181818 C73.3779161,4.9581828 73.245186,5.12454477 73.087037,5.26090909 C72.9288881,5.39727341 72.7537973,5.50363598 72.5617593,5.58 C72.3697213,5.65636402 72.1833342,5.71090893 72.0025926,5.74363636 L72.0025926,5.77636364 Z M81.7061111,11.4545455 C80.7346248,11.4545455 80.0314374,11.2663655 79.5965278,10.89 C79.1616182,10.5136345 78.9441667,9.86727731 78.9441667,8.95090909 L78.9441667,2.55272727 C78.9441667,2.08363402 79.0204159,1.7045469 79.1729167,1.41545455 C79.3254174,1.12636219 79.5287487,0.900000818 79.7829167,0.736363636 C80.0370846,0.572726455 80.3307854,0.463636636 80.6640278,0.409090909 C80.9972702,0.354545182 81.3446278,0.327272727 81.7061111,0.327272727 L90.4833333,0.327272727 C91.0368546,0.327272727 91.488702,0.379090391 91.8388889,0.482727273 C92.1890758,0.586364155 92.4658323,0.733635409 92.6691667,0.924545455 C92.872501,1.1154555 93.0137033,1.34727136 93.0927778,1.62 C93.1718522,1.89272864 93.2113889,2.20363462 93.2113889,2.55272727 L93.2113889,8.95090909 C93.2113889,9.4090932 93.1633801,9.79636205 93.0673611,10.1127273 C92.9713421,10.4290925 92.8188436,10.6881808 92.6098611,10.89 C92.4008786,11.0918192 92.121298,11.2363632 91.7711111,11.3236364 C91.4209242,11.4109095 90.9916692,11.4545455 90.4833333,11.4545455 L81.7061111,11.4545455 Z M90.5511111,9.40909091 L90.5511111,2.30727273 L81.6044444,2.30727273 L81.6044444,9.40909091 L90.5511111,9.40909091 Z M104.914352,11.4545455 L102.254074,11.4545455 L102.254074,2.22545455 L96.8826852,2.22545455 L96.8826852,0.327272727 L110.184074,0.327272727 L110.184074,2.22545455 L104.914352,2.22545455 L104.914352,11.4545455 Z M120.158704,11.4545455 L117.498426,11.4545455 L117.498426,2.22545455 L112.127037,2.22545455 L112.127037,0.327272727 L125.428426,0.327272727 L125.428426,2.22545455 L120.158704,2.22545455 L120.158704,11.4545455 Z M129.269167,0.327272727 L131.929444,0.327272727 L131.929444,9.40909091 L140.706667,9.40909091 L140.706667,11.4545455 L129.269167,11.4545455 L129.269167,0.327272727 Z M145.39463,0.327272727 L157.340463,0.327272727 L157.340463,2.22545455 L148.054907,2.22545455 L148.054907,4.76181818 L153.494074,4.76181818 L153.494074,6.75818182 L148.054907,6.75818182 L148.054907,9.44181818 L157.425185,9.44181818 L157.425185,11.4545455 L145.39463,11.4545455 L145.39463,0.327272727 Z M177.798056,7.34727273 L182.813611,11.4545455 L179.238333,11.4545455 L174.578611,7.34727273 L172.1725,7.34727273 L172.1725,11.4545455 L169.512222,11.4545455 L169.512222,0.327272727 L179.323056,0.327272727 C180.181578,0.327272727 180.839581,0.488180209 181.297083,0.81 C181.754586,1.13181979 181.983333,1.71272307 181.983333,2.55272727 L181.983333,5.22 C181.983333,5.64545667 181.912732,5.99727134 181.771528,6.27545455 C181.630323,6.55363775 181.435464,6.77181739 181.186944,6.93 C180.938425,7.08818261 180.653196,7.19727243 180.33125,7.25727273 C180.009304,7.31727303 179.673242,7.34727273 179.323056,7.34727273 L177.798056,7.34727273 Z M178.425,5.35090909 C178.617038,5.35090909 178.780833,5.3454546 178.916389,5.33454545 C179.051945,5.32363631 179.162083,5.29363661 179.246806,5.24454545 C179.331528,5.1954543 179.390833,5.11363694 179.424722,4.99909091 C179.458611,4.88454488 179.475556,4.72909189 179.475556,4.53272727 L179.475556,3.10909091 C179.475556,2.90181715 179.458611,2.73818242 179.424722,2.61818182 C179.390833,2.49818122 179.334352,2.40818212 179.255278,2.34818182 C179.176203,2.28818152 179.06889,2.25272733 178.933333,2.24181818 C178.797777,2.23090904 178.628334,2.22545455 178.425,2.22545455 L172.1725,2.22545455 L172.1725,5.35090909 L178.425,5.35090909 Z M189.670463,11.4545455 C188.698977,11.4545455 187.995789,11.2663655 187.56088,10.89 C187.12597,10.5136345 186.908519,9.86727731 186.908519,8.95090909 L186.908519,2.55272727 C186.908519,2.08363402 186.984768,1.7045469 187.137269,1.41545455 C187.289769,1.12636219 187.493101,0.900000818 187.747269,0.736363636 C188.001436,0.572726455 188.295137,0.463636636 188.62838,0.409090909 C188.961622,0.354545182 189.30898,0.327272727 189.670463,0.327272727 L198.447685,0.327272727 C199.001206,0.327272727 199.453054,0.379090391 199.803241,0.482727273 C200.153428,0.586364155 200.430184,0.733635409 200.633519,0.924545455 C200.836853,1.1154555 200.978055,1.34727136 201.05713,1.62 C201.136204,1.89272864 201.175741,2.20363462 201.175741,2.55272727 L201.175741,8.95090909 C201.175741,9.4090932 201.127732,9.79636205 201.031713,10.1127273 C200.935694,10.4290925 200.783195,10.6881808 200.574213,10.89 C200.36523,11.0918192 200.08565,11.2363632 199.735463,11.3236364 C199.385276,11.4109095 198.956021,11.4545455 198.447685,11.4545455 L189.670463,11.4545455 Z M198.515463,9.40909091 L198.515463,2.30727273 L189.568796,2.30727273 L189.568796,9.40909091 L198.515463,9.40909091 Z M209.133981,11.4545455 C208.162495,11.4545455 207.459308,11.2663655 207.024398,10.89 C206.589489,10.5136345 206.372037,9.86727731 206.372037,8.95090909 L206.372037,2.55272727 C206.372037,2.08363402 206.448286,1.7045469 206.600787,1.41545455 C206.753288,1.12636219 206.956619,0.900000818 207.210787,0.736363636 C207.464955,0.572726455 207.758656,0.463636636 208.091898,0.409090909 C208.425141,0.354545182 208.772498,0.327272727 209.133981,0.327272727 L217.911204,0.327272727 C218.464725,0.327272727 218.916572,0.379090391 219.266759,0.482727273 C219.616946,0.586364155 219.893703,0.733635409 220.097037,0.924545455 C220.300371,1.1154555 220.441574,1.34727136 220.520648,1.62 C220.599723,1.89272864 220.639259,2.20363462 220.639259,2.55272727 L220.639259,8.95090909 C220.639259,9.4090932 220.59125,9.79636205 220.495231,10.1127273 C220.399212,10.4290925 220.246714,10.6881808 220.037731,10.89 C219.828749,11.0918192 219.549168,11.2363632 219.198981,11.3236364 C218.848795,11.4109095 218.41954,11.4545455 217.911204,11.4545455 L209.133981,11.4545455 Z M217.978981,9.40909091 L217.978981,2.30727273 L209.032315,2.30727273 L209.032315,9.40909091 L217.978981,9.40909091 Z M226.005,0.327272727 L228.512778,0.327272727 L233.748611,6.87272727 L238.984444,0.327272727 L241.576944,0.327272727 L241.576944,11.4545455 L238.916667,11.4545455 L238.916667,3.73090909 L233.816389,10.1127273 L233.308056,10.1127273 L228.377222,3.86181818 L228.377222,11.4545455 L226.005,11.4545455 L226.005,0.327272727 Z" transform="translate(0 84)"/>
    <path d="M32.4117646,52.1985973 C32.4117646,52.551567 32.3379999,52.7857488 32.1904705,52.9011427 C32.0429411,53.0165367 31.8283529,53.0742336 31.5467058,53.0742336 L23.4710353,53.0723879 L23.4710353,49.778004 L31.5467058,49.7798498 C31.8283529,49.7798498 32.0429411,49.8375468 32.1904705,49.9529407 C32.3379999,50.0683347 32.4117646,50.3093043 32.4117646,50.6758498 L32.4117646,52.1985973 Z M23.4710353,44.1395394 L31.4264471,44.1395394 C31.7751529,44.1395394 32.0266235,44.1938424 32.1819765,44.3024485 C32.3350941,44.4110545 32.4122118,44.5807515 32.4122118,44.8115394 L32.4122118,46.8433778 C32.4122118,47.1148929 32.3350941,47.2947717 32.1819765,47.3830141 C32.0266235,47.4712566 31.7751529,47.5153778 31.4264471,47.5153778 L23.4710353,47.5153778 L23.4710353,44.1395394 Z M33.9333294,49.2406303 C34.1400941,49.4103273 34.3122118,49.647903 34.4463294,49.9533576 C34.5793294,50.2588121 34.6475059,50.6762667 34.6475059,51.2057212 L34.6475059,52.787297 C34.6475059,53.7104485 34.3379176,54.3824485 33.7209765,54.803297 C33.1051529,55.2241455 32.2266824,55.4345697 31.0855647,55.4345697 L21.2357412,55.4345697 L21.2357412,41.8588121 L31.2062706,41.8588121 C31.7840941,41.8588121 32.2903882,41.8995394 32.7262706,41.9809939 C33.1610353,42.0624485 33.5209176,42.2083879 33.8025647,42.4188121 C34.0842118,42.6292364 34.2954471,42.9075394 34.4362706,43.2537212 C34.5770941,43.599903 34.6475059,44.0377212 34.6475059,44.5671758 L34.6475059,46.497196 C34.6475059,46.8501657 34.5838,47.1488323 34.4563882,47.393196 C34.3278588,47.6375596 34.1713882,47.8287515 33.9836235,47.9984485 C33.7958588,48.1681455 33.5868588,48.3005091 33.3599765,48.3955394 C33.1319765,48.4905697 32.9106824,48.5584485 32.6949765,48.5991758 L32.5742706,48.639903 C32.7888588,48.7077818 33.0179765,48.7824485 33.2582706,48.863903 C33.4996824,48.9453576 33.7243294,49.0709333 33.9333294,49.2406303 Z M6.70621765,18.1006707 L8.94151176,18.1006707 L8.94151176,24.8885495 L8.94151176,27.1511758 L5.58857059,27.1511758 L5.58857059,38.4643071 L3.35215882,38.4643071 L3.35215882,27.1511758 L0.000335294118,27.1511758 L0.000335294118,24.8885495 L0.000335294118,18.1006707 L2.23451176,18.1006707 L2.23451176,24.8885495 L3.35215882,24.8885495 L3.35215882,18.1006707 L5.58857059,18.1006707 L5.58857059,24.8885495 L6.70621765,24.8885495 L6.70621765,18.1006707 Z M22.2631941,0.000452525253 L33.6184882,0.000452525253 L32.3287235,16.9690182 L23.5540765,16.9690182 L22.2631941,0.000452525253 Z M24.6773118,2.26307879 L24.7633706,3.39439192 L31.1183118,3.39439192 L31.2043706,2.26307879 L24.6773118,2.26307879 Z M24.9343706,5.65588687 L25.6228412,14.7075232 L30.2588412,14.7075232 L30.9473118,5.65588687 L24.9343706,5.65588687 Z M27.9414,26.4558707 L52.3262235,1.77061818 L54.1334588,3.59768889 L29.7475176,28.2829414 L54.1323412,52.9670626 L52.3262235,54.7952646 L27.9414,30.1111434 L3.55545882,54.7952646 L1.74934118,52.9670626 L26.1352824,28.2829414 L1.74822353,3.59768889 L3.55545882,1.77061818 L27.9414,26.4558707 Z M50.2941176,18.1006707 L52.5294118,18.1006707 L52.5294118,21.4154182 L55.4185294,18.4898424 L57,20.0895192 L52.5294118,24.6147717 L52.5294118,26.6839434 L55.4185294,23.7572364 L57,25.3580444 L52.5294118,29.883297 L52.5294118,38.4643071 L50.2941176,38.4643071 L50.2941176,29.883297 L45.8235294,25.3569131 L47.4038824,23.7572364 L50.2941176,26.6839434 L50.2941176,24.6147717 L45.8235294,20.0895192 L47.4038824,18.4898424 L50.2941176,21.4154182 L50.2941176,18.1006707 Z" transform="translate(93)"/>
  </g>
</svg>
