<svg xmlns="http://www.w3.org/2000/svg" width="200" height="200" viewBox="0 0 200 200">
  <defs>
    <linearGradient id="masthead-a" x1="100%" x2="0%" y1="50%" y2="50%">
      <stop offset="0%" stop-color="#45CCB0"/>
      <stop offset="63.629%" stop-color="#B1E1A4"/>
      <stop offset="100%" stop-color="#EFDBCC"/>
    </linearGradient>
    <linearGradient id="masthead-b" x1="0%" y1="50%" y2="50%">
      <stop offset="0%" stop-color="#FD9983"/>
      <stop offset="37.407%" stop-color="#FC8A7B"/>
      <stop offset="100%" stop-color="#F42248"/>
    </linearGradient>
  </defs>
  <g fill="none" fill-rule="evenodd" transform="translate(14 10)">
    <g transform="translate(7 -1)">
      <path fill="url(#masthead-a)" d="M99.0072041,63.8601424 L144.825453,63.8601424 C148.97345,63.8601424 152.336066,67.1714273 152.336066,71.2606931 C152.336066,75.3453701 148.97345,78.6566549 144.825453,78.6566549 L99.026601,78.6566549 C100.805036,76.6948073 101.886031,74.1060815 101.886031,71.2672819 C101.886031,68.4205247 100.797173,65.8242019 99.0072041,63.8601424 Z"/>
      <path fill="url(#masthead-b)" d="M97.7570018,45.3645017 L137.320926,45.3645017 C141.468922,45.3645017 144.831538,48.6757866 144.831538,52.7650525 C144.831538,56.8497294 141.468922,60.1610142 137.320926,60.1610142 L97.7760028,60.1610142 C99.5543447,58.1993915 100.635276,55.6109906 100.635276,52.7716412 C100.635276,49.9501584 99.5573266,47.3424235 97.7570018,45.3645017 Z"/>
      <path fill="#F6F6F6" d="M86.2639783,78.6679336 L69.5708595,78.6679336 C68.5338603,78.6679336 67.6932064,79.4957548 67.6932064,80.516924 C67.6932064,81.5392405 68.5338603,82.3670617 69.5708595,82.3670617 L88.0935008,82.3670617 C91.8317869,82.5642211 94.8013514,85.611729 94.8013514,89.3455679 C94.8013514,93.2033183 91.6255478,96.3306429 87.7079955,96.3306429 L79.7922955,96.3306429 L79.7922955,96.3415458 L69.5708595,96.3415458 C68.5326166,96.3409982 67.6925198,97.1693677 67.6932068,98.1905367 C67.6963822,99.2123738 68.5368347,100.039449 69.5733481,100.039449 L80.5970745,100.040349 C84.3315485,100.24148 87.2968235,103.287282 87.2968235,107.018423 C87.2968235,110.876173 84.1210199,114.003498 80.2034676,114.003498 L79.7922955,114.003879 L42.3766606,114.003879 C37.6346974,114.003879 32.9471533,113.008979 28.6262047,111.085437 L11.924883,103.650564 C9.08833935,102.38783 7.20130341,99.67538 7.03001532,96.6146191 L5.2778084,65.3045655 C5.07335309,61.6511365 6.52769608,58.0970789 9.24735624,55.603964 C12.3754503,52.7364374 14.7665736,50.556326 16.4207263,49.0636298 C19.7468327,46.0621739 23.3184027,45.3462086 26.8436818,39.6103024 C31.5930475,31.882711 36.3279371,21.8363233 41.0483953,9.47115568 C42.0556988,6.8325111 44.6185057,5.08510638 47.4811336,5.08510638 C50.1916607,5.08510638 52.4501745,7.13012063 52.6771079,9.7899 L53.376154,17.9830913 C53.890466,24.0111003 53.5007762,30.0808321 52.2196187,35.9970606 L50.8366161,42.383597 C50.5482543,43.7152162 51.4107156,45.0249017 52.7629772,45.3088616 C52.9349923,45.3449829 53.1103939,45.3631534 53.2862765,45.3630721 L89.7983328,45.3462086 C90.2781641,45.3475245 90.7388723,45.4284649 91.1675937,45.5762921 C94.45021,46.3677076 96.8859425,49.2839293 96.8859425,52.7641441 C96.8859425,56.848821 93.5233269,60.1601059 89.1230374,60.1601059 L86.2639783,60.1601059 L86.2639783,60.1722929 L69.5733481,60.1722929 C68.536349,60.1722929 67.6956951,61.0001141 67.6956951,62.0212833 C67.6956951,63.0435998 68.536349,63.871421 69.5733481,63.871421 L91.0462758,63.871421 C94.99881,64.0860638 98.1366972,67.3103073 98.1366972,71.2597848 C98.1366972,75.3444617 94.7740816,78.6557466 90.626085,78.6557466 L86.2639783,78.6475628 L86.2639783,78.6679336 Z"/>
      <path fill="#F6F6F6" d="M88.2181395,82.3747086 C91.8975773,82.6322016 94.8013514,85.6533221 94.8013514,89.3455679 C94.8013514,93.2033183 91.6255478,96.3306429 87.7079955,96.3306429 L84.6175964,96.3306429 C84.6048822,96.3303928 84.5921369,96.3302672 84.5793619,96.3302672 L69.5708595,96.3302672 C68.5326166,96.3297195 67.6925198,97.158089 67.6932068,98.179258 C67.6963822,99.2010951 68.5368347,100.02817 69.5733481,100.02817 L79.7922955,100.029004 L79.7922955,100.029777 L80.2034676,100.029777 C84.1210199,100.029777 87.2968235,103.157101 87.2968235,107.018423 C87.2968235,110.876173 84.1210199,114.003498 80.2034676,114.003498 L79.7922955,114.003879 L42.3766606,114.003879 C37.6346974,114.003879 32.9471533,113.008979 28.6262047,111.085437 L11.924883,103.650564 C9.08833935,102.38783 7.20130341,99.67538 7.03001532,96.6146191 L5.2778084,65.3045655 C5.07335309,61.6511365 6.52769608,58.0970789 9.24735624,55.603964 C12.3754503,52.7364374 14.7665736,50.556326 16.4207263,49.0636298 C19.7468327,46.0621739 23.3184027,45.3462086 26.8436818,39.6103024 C31.5930475,31.882711 36.3279371,21.8363233 41.0483953,9.47115568 C42.0556988,6.8325111 44.6185057,5.08510638 47.4811336,5.08510638 C50.1916607,5.08510638 52.4501745,7.13012063 52.6771079,9.7899 L53.376154,17.9830913 C53.890466,24.0111003 53.5007762,30.0808321 52.2196187,35.9970606 L50.8366161,42.383597 C50.5482543,43.7152162 51.4107156,45.0249017 52.7629772,45.3088616 C52.9349923,45.3449829 53.1103939,45.3631534 53.2862765,45.3630721 L64.7312027,45.3577862 C62.9432685,47.3220105 61.8557979,49.9179792 61.8557979,52.7650525 C61.8557979,56.3795233 63.6111329,59.5902722 66.3281465,61.6157579 C62.9111065,63.5213247 60.6050433,67.1348023 60.6050433,71.2807659 C60.6050433,77.4077813 65.6489667,82.3747086 71.8709615,82.3747086 L88.2181395,82.3747086 Z"/>
    </g>
    <path fill="#FFF" d="M17.8015878,160.2828 L13.8087878,161.5064 C13.5833878,160.2506 12.5529878,158.2864 9.65498779,158.2864 C7.49758779,158.2864 6.08078779,159.671 6.08078779,161.1844 C6.08078779,162.4402 6.88578779,163.4384 8.56018779,163.7604 L11.7479878,164.3722 C15.9017878,165.1772 18.1235878,167.882 18.1235878,171.102 C18.1235878,174.6118 15.1933878,178.1538 9.88038779,178.1538 C3.82678779,178.1538 1.15418779,174.2576 0.799987793,171.0054 L4.92158779,169.9106 C5.11478779,172.1646 6.69258779,174.1932 9.91258779,174.1932 C12.2953878,174.1932 13.6155878,173.0018 13.6155878,171.3918 C13.6155878,170.0716 12.6173878,169.0412 10.8463878,168.687 L7.65858779,168.043 C4.01998779,167.3024 1.66938779,164.9518 1.66938779,161.5064 C1.66938779,157.4492 5.30798779,154.358 9.62278779,154.358 C15.1611878,154.358 17.2863878,157.7068 17.8015878,160.2828 Z M43.1995817,177.6708 L38.7237817,177.6708 L38.7237817,168.204 L28.7739817,168.204 L28.7739817,177.6708 L24.3303817,177.6708 L24.3303817,154.841 L28.7739817,154.841 L28.7739817,164.018 L38.7237817,164.018 L38.7237817,154.841 L43.1995817,154.841 L43.1995817,177.6708 Z M54.1075757,166.2398 C54.1075757,171.3918 57.7139757,173.839 61.2237757,173.839 C64.7657757,173.839 68.3721757,171.3918 68.3721757,166.2398 C68.3721757,161.0878 64.7657757,158.6406 61.2237757,158.6406 C57.7139757,158.6406 54.1075757,161.0878 54.1075757,166.2398 Z M49.5029757,166.272 C49.5029757,158.8982 55.0413757,154.358 61.2237757,154.358 C67.4383757,154.358 72.9767757,158.8982 72.9767757,166.272 C72.9767757,173.6136 67.4383757,178.1538 61.2237757,178.1538 C55.0413757,178.1538 49.5029757,173.6136 49.5029757,166.272 Z M95.4767696,159.0592 L88.2639696,159.0592 L88.2639696,177.6708 L83.7881696,177.6708 L83.7881696,159.0592 L76.5753696,159.0592 L76.5753696,154.841 L95.4767696,154.841 L95.4767696,159.0592 Z M101.039564,154.841 L109.250564,154.841 C113.694164,154.841 116.205764,157.4492 116.205764,160.9912 C116.205764,163.3418 114.788964,165.2416 112.889164,165.8856 C115.110964,166.433 116.914164,168.4616 116.914164,171.2952 C116.914164,174.9982 114.144964,177.6708 109.862364,177.6708 L101.039564,177.6708 L101.039564,154.841 Z M105.418764,164.2756 L108.574364,164.2756 C110.602964,164.2756 111.826564,163.1486 111.826564,161.4098 C111.826564,159.671 110.699564,158.5762 108.542164,158.5762 L105.418764,158.5762 L105.418764,164.2756 Z M105.418764,173.9678 L109.025164,173.9678 C111.182564,173.9678 112.470564,172.8408 112.470564,171.0054 C112.470564,169.2022 111.311364,167.9464 109.089564,167.9464 L105.418764,167.9464 L105.418764,173.9678 Z M131.653957,178.186 C126.791757,178.186 122.895557,175.1914 122.895557,169.5886 L122.895557,154.841 L127.339157,154.841 L127.339157,169.2666 C127.339157,172.2612 129.013557,173.839 131.653957,173.839 C134.358757,173.839 136.000957,172.2612 136.000957,169.2666 L136.000957,154.841 L140.444557,154.841 L140.444557,169.5886 C140.444557,175.1914 136.548357,178.186 131.653957,178.186 Z M152.318551,173.5492 L155.860551,173.5492 C159.595751,173.5492 162.719151,171.2308 162.719151,166.272 C162.719151,161.3132 159.627951,158.9626 155.892751,158.9626 L152.318551,158.9626 L152.318551,173.5492 Z M156.021551,177.6708 L147.874951,177.6708 L147.874951,154.841 L156.053751,154.841 C162.558151,154.841 167.323751,159.0592 167.323751,166.272 C167.323751,173.4848 162.525951,177.6708 156.021551,177.6708 Z"/>
  </g>
</svg>
