<?xml version="1.0" encoding="UTF-8"?>
<svg width="587px" height="254px" viewBox="0 0 587 254" version="1.1" xmlns="http://www.w3.org/2000/svg" xmlns:xlink="http://www.w3.org/1999/xlink">
    <!-- Generator: Sketch 40.3 (33839) - http://www.bohemiancoding.com/sketch -->
    <title>process--graph</title>
    <desc>Created with Sketch.</desc>
    <defs>
        <linearGradient x1="0%" y1="102.991629%" x2="100%" y2="11.954539%" id="linearGradient-1">
            <stop stop-color="#C64846" offset="0%"></stop>
            <stop stop-color="#F67161" offset="100%"></stop>
        </linearGradient>
    </defs>
    <g id="Process-Stages" stroke="none" stroke-width="1" fill="none" fill-rule="evenodd">
        <g id="process--graph" transform="translate(1.000000, -2.000000)">
            <path d="M524.853234,27.8247682 C514.682281,15.031181 501.711912,3.39954485 480.225729,3.39954485 C420.019388,3.39954485 406.838118,117.526103 373.350567,117.526103 C346.988027,117.526103 341.288018,60.1061785 293.550446,60.1061785 C233.344104,60.1061785 220.162834,174.23345 186.675996,174.23345 C153.188445,174.23345 154.612735,116.873442 106.875162,116.873442 C46.6688208,116.873442 43.7333164,210.5635 0,231" id="Page-1" stroke="url(#linearGradient-1)" stroke-width="2" stroke-linecap="round"></path>
            <path d="M524.853234,32.8247682 C514.682281,20.031181 501.711912,8.39954485 480.225729,8.39954485 C420.019388,8.39954485 406.838118,122.526103 373.350567,122.526103 C346.988027,122.526103 341.288018,65.1061785 293.550446,65.1061785 C233.344104,65.1061785 220.162834,179.23345 186.675996,179.23345 C153.188445,179.23345 154.612735,121.873442 106.875162,121.873442 C46.6688208,121.873442 43.7333164,210.5635 0,231" id="Page-1" stroke="url(#linearGradient-1)" stroke-width="2" stroke-linecap="round"></path>
            <path d="M487.97,73.636 C487.97,73.832 488.138,74 488.334,74 L498.218,74 C498.414,74 498.582,73.888 498.582,73.692 L498.582,73.188 C498.582,72.992 498.554,72.824 498.218,72.824 L489.286,72.824 L489.286,54.764 C489.286,54.568 489.118,54.4 488.95,54.4 L488.334,54.4 C488.138,54.4 487.97,54.568 487.97,54.764 L487.97,73.636 Z M500.206,70.024 C500.206,72.684 501.998,74.308 504.406,74.308 C506.45,74.308 508.13,73.272 508.942,72.46 L509.082,73.636 C509.11,73.888 509.25,74 509.474,74 L509.698,74 C509.922,74 510.146,73.804 510.146,73.58 L510.146,66.412 C510.146,63.08 510.034,60.784 506.114,60.784 C503.398,60.784 501.746,61.68 501.662,61.736 C501.522,61.82 501.354,61.96 501.494,62.212 L501.634,62.604 C501.69,62.8 501.858,62.912 502.138,62.8 C502.39,62.716 503.874,61.932 506.002,61.932 C508.55,61.932 508.914,63.388 508.914,66.244 C508.578,66.132 507.066,65.656 505.582,65.656 C502.194,65.656 500.206,67.532 500.206,70.024 L500.206,70.024 Z M501.41,69.996 C501.41,68.092 503.118,66.748 505.582,66.748 C507.122,66.748 508.494,67.224 508.914,67.42 L508.914,71.144 C508.298,71.928 506.506,73.104 504.546,73.104 C502.754,73.104 501.41,71.844 501.41,69.996 L501.41,69.996 Z M514.598,68.736 C514.598,72.376 515.774,74.308 519.414,74.308 C521.962,74.308 523.334,72.796 523.67,72.348 L523.782,73.608 C523.81,73.804 523.95,74 524.174,74 L524.426,74 C524.622,74 524.818,73.804 524.818,73.58 L524.818,61.484 C524.818,61.26 524.622,61.064 524.426,61.064 L524.006,61.064 C523.726,61.064 523.586,61.204 523.586,61.484 L523.586,70.696 C523.194,71.256 521.934,73.104 519.498,73.104 C516.838,73.104 515.83,71.732 515.83,68.736 L515.83,61.484 C515.83,61.26 515.662,61.064 515.438,61.064 L515.018,61.064 C514.794,61.064 514.598,61.26 514.598,61.484 L514.598,68.736 Z M529.522,73.58 C529.522,73.804 529.634,74 529.886,74 L530.334,74 C530.614,74 530.754,73.86 530.754,73.58 L530.754,64.2 C530.866,64.032 532.518,61.988 535.15,61.988 C537.642,61.988 538.846,63.5 538.846,66.496 L538.846,73.58 C538.846,73.804 539.042,74 539.266,74 L539.658,74 C539.882,74 540.078,73.804 540.078,73.58 L540.078,66.44 C540.078,63.052 538.874,60.784 535.206,60.784 C532.63,60.784 531.062,62.324 530.642,62.772 L530.502,61.4 C530.474,61.176 530.362,61.064 530.11,61.064 L529.97,61.064 C529.69,61.064 529.522,61.26 529.522,61.484 L529.522,73.58 Z M543.746,67.532 C543.746,71.452 546.77,74.308 550.438,74.308 C553.126,74.308 554.974,72.6 555.506,71.816 C555.618,71.648 555.59,71.48 555.422,71.312 L555.17,71.088 C554.974,70.892 554.778,70.864 554.554,71.116 C554.19,71.508 552.818,73.104 550.466,73.104 C547.386,73.104 544.978,70.64 544.978,67.504 C544.978,64.424 547.498,61.988 550.438,61.988 C552.482,61.988 553.938,63.192 554.246,63.528 C554.47,63.752 554.694,63.836 554.946,63.584 L555.17,63.36 C555.338,63.192 555.366,62.968 555.198,62.772 C554.638,62.044 552.93,60.784 550.438,60.784 C546.77,60.784 543.746,63.64 543.746,67.532 L543.746,67.532 Z M559.118,73.58 C559.118,73.804 559.23,74 559.482,74 L559.93,74 C560.21,74 560.35,73.86 560.35,73.58 L560.35,64.368 C560.714,63.92 562.254,61.988 564.746,61.988 C567.238,61.988 568.414,63.5 568.414,66.496 L568.414,73.58 C568.414,73.804 568.61,74 568.834,74 L569.226,74 C569.45,74 569.646,73.804 569.646,73.58 L569.646,66.496 C569.646,62.884 568.19,60.784 564.802,60.784 C562.282,60.784 560.742,62.38 560.35,62.8 L560.35,54.82 C560.35,54.596 560.126,54.4 559.93,54.4 L559.566,54.4 C559.286,54.4 559.118,54.596 559.118,54.82 L559.118,73.58 Z" id="Launch" fill="#F67161"></path>
            <path d="M73.177,223.658 C73.177,223.838 73.321,224 73.501,224 L77.533,224 C81.007,224 83.851,221.174 83.851,217.682 C83.851,214.226 81.007,211.4 77.533,211.4 L73.501,211.4 C73.321,211.4 73.177,211.562 73.177,211.742 L73.177,223.658 Z M74.545,222.758 L74.545,212.624 L77.371,212.624 C80.323,212.624 82.393,214.73 82.393,217.682 C82.393,220.652 80.323,222.758 77.371,222.758 L74.545,222.758 Z M86.839,213.542 C87.397,213.542 87.829,213.092 87.829,212.57 C87.829,211.994 87.397,211.562 86.839,211.562 C86.299,211.562 85.867,211.994 85.867,212.57 C85.867,213.092 86.299,213.542 86.839,213.542 L86.839,213.542 Z M86.209,223.604 C86.209,223.82 86.389,224 86.605,224 L87.145,224 C87.343,224 87.541,223.82 87.541,223.604 L87.541,216.08 C87.541,215.882 87.343,215.684 87.145,215.684 L86.605,215.684 C86.389,215.684 86.209,215.882 86.209,216.08 L86.209,223.604 Z M92.671,224.198 C94.363,224.198 95.497,223.136 95.497,221.822 C95.497,220.31 94.255,219.77 92.815,219.104 C91.807,218.636 91.231,218.366 91.231,217.628 C91.231,217.232 91.537,216.71 92.455,216.71 C93.229,216.71 93.805,216.98 94.165,217.196 C94.345,217.304 94.615,217.286 94.741,217.052 L94.921,216.71 C95.047,216.476 95.011,216.296 94.831,216.152 C94.435,215.864 93.535,215.504 92.455,215.504 C90.529,215.504 89.881,216.818 89.881,217.682 C89.881,219.104 91.141,219.698 92.239,220.238 C93.445,220.832 94.093,221.156 94.093,221.948 C94.093,222.596 93.517,222.992 92.671,222.992 C91.609,222.992 90.889,222.47 90.601,222.254 C90.367,222.092 90.223,222.164 90.115,222.362 L89.863,222.83 C89.791,222.974 89.827,223.1 89.917,223.19 C90.349,223.586 91.285,224.198 92.671,224.198 L92.671,224.198 Z M97.117,219.86 C97.117,222.362 98.845,224.198 101.311,224.198 C102.697,224.198 103.813,223.442 104.443,222.524 C104.587,222.308 104.515,222.128 104.335,221.948 L104.227,221.84 C103.993,221.606 103.759,221.534 103.525,221.804 C103.057,222.344 102.517,222.992 101.257,222.992 C99.709,222.992 98.467,221.606 98.467,219.842 C98.467,218.114 99.727,216.71 101.311,216.71 C102.157,216.71 102.823,216.962 103.399,217.61 C103.561,217.79 103.723,217.97 103.993,217.736 L104.281,217.466 C104.479,217.304 104.515,217.07 104.353,216.872 C103.579,215.99 102.571,215.504 101.329,215.504 C98.917,215.504 97.117,217.412 97.117,219.86 L97.117,219.86 Z M106.117,219.824 C106.117,222.2 107.989,224.198 110.293,224.198 C112.597,224.198 114.469,222.2 114.469,219.824 C114.469,217.484 112.597,215.504 110.293,215.504 C107.989,215.504 106.117,217.484 106.117,219.824 L106.117,219.824 Z M107.431,219.824 C107.431,218.132 108.655,216.71 110.293,216.71 C111.931,216.71 113.137,218.132 113.137,219.824 C113.137,221.552 111.931,222.992 110.293,222.992 C108.655,222.992 107.431,221.552 107.431,219.824 L107.431,219.824 Z M119.311,223.982 C119.347,224.09 119.473,224.198 119.653,224.198 L119.761,224.198 C119.959,224.198 120.067,224.09 120.103,223.982 L123.685,216.152 C123.793,215.9 123.685,215.684 123.361,215.684 L122.785,215.684 C122.641,215.684 122.515,215.774 122.461,215.918 L119.725,222.038 L119.689,222.038 L117.115,215.918 C117.061,215.774 116.935,215.684 116.737,215.684 L116.107,215.684 C115.801,215.684 115.675,215.9 115.801,216.152 L119.311,223.982 Z M125.035,219.842 C125.035,222.218 126.547,224.198 129.067,224.198 C130.507,224.198 131.605,223.64 132.109,223.244 C132.415,223.01 132.343,222.92 132.181,222.668 L131.965,222.362 C131.749,222.038 131.623,222.11 131.335,222.308 C130.867,222.614 130.183,222.992 129.085,222.992 C127.573,222.992 126.403,221.534 126.367,220.148 L132.415,220.148 C132.595,220.148 132.775,220.004 132.793,219.788 C132.811,219.644 132.829,219.428 132.829,219.284 C132.829,217.106 131.245,215.504 129.067,215.504 C126.547,215.504 125.035,217.502 125.035,219.842 L125.035,219.842 Z M126.385,219.086 C126.547,217.79 127.663,216.71 129.067,216.71 C130.489,216.71 131.461,217.862 131.497,219.086 L126.385,219.086 Z M135.007,223.604 C135.007,223.82 135.187,224 135.403,224 L135.943,224 C136.141,224 136.339,223.82 136.339,223.604 L136.339,217.844 C136.339,217.844 136.987,216.782 138.589,216.782 C138.985,216.782 139.291,216.926 139.489,217.016 C139.687,217.106 139.885,217.088 139.975,216.818 L140.209,216.17 C140.407,215.594 139.381,215.504 138.751,215.504 C137.023,215.504 136.195,216.566 136.195,216.566 L136.051,215.972 C135.997,215.774 135.853,215.684 135.691,215.684 L135.403,215.684 C135.187,215.684 135.007,215.882 135.007,216.08 L135.007,223.604 Z" id="Discover" fill="#DDDDDD"></path>
            <path d="M449.576,223.658 C449.576,223.838 449.72,224 449.9,224 L453.932,224 C457.406,224 460.25,221.174 460.25,217.682 C460.25,214.226 457.406,211.4 453.932,211.4 L449.9,211.4 C449.72,211.4 449.576,211.562 449.576,211.742 L449.576,223.658 Z M450.944,222.758 L450.944,212.624 L453.77,212.624 C456.722,212.624 458.792,214.73 458.792,217.682 C458.792,220.652 456.722,222.758 453.77,222.758 L450.944,222.758 Z M462.086,219.842 C462.086,222.218 463.598,224.198 466.118,224.198 C467.558,224.198 468.656,223.64 469.16,223.244 C469.466,223.01 469.394,222.92 469.232,222.668 L469.016,222.362 C468.8,222.038 468.674,222.11 468.386,222.308 C467.918,222.614 467.234,222.992 466.136,222.992 C464.624,222.992 463.454,221.534 463.418,220.148 L469.466,220.148 C469.646,220.148 469.826,220.004 469.844,219.788 C469.862,219.644 469.88,219.428 469.88,219.284 C469.88,217.106 468.296,215.504 466.118,215.504 C463.598,215.504 462.086,217.502 462.086,219.842 L462.086,219.842 Z M463.436,219.086 C463.598,217.79 464.714,216.71 466.118,216.71 C467.54,216.71 468.512,217.862 468.548,219.086 L463.436,219.086 Z M474.632,223.982 C474.668,224.09 474.794,224.198 474.974,224.198 L475.082,224.198 C475.28,224.198 475.388,224.09 475.424,223.982 L479.006,216.152 C479.114,215.9 479.006,215.684 478.682,215.684 L478.106,215.684 C477.962,215.684 477.836,215.774 477.782,215.918 L475.046,222.038 L475.01,222.038 L472.436,215.918 C472.382,215.774 472.256,215.684 472.058,215.684 L471.428,215.684 C471.122,215.684 470.996,215.9 471.122,216.152 L474.632,223.982 Z M480.356,219.842 C480.356,222.218 481.868,224.198 484.388,224.198 C485.828,224.198 486.926,223.64 487.43,223.244 C487.736,223.01 487.664,222.92 487.502,222.668 L487.286,222.362 C487.07,222.038 486.944,222.11 486.656,222.308 C486.188,222.614 485.504,222.992 484.406,222.992 C482.894,222.992 481.724,221.534 481.688,220.148 L487.736,220.148 C487.916,220.148 488.096,220.004 488.114,219.788 C488.132,219.644 488.15,219.428 488.15,219.284 C488.15,217.106 486.566,215.504 484.388,215.504 C481.868,215.504 480.356,217.502 480.356,219.842 L480.356,219.842 Z M481.706,219.086 C481.868,217.79 482.984,216.71 484.388,216.71 C485.81,216.71 486.782,217.862 486.818,219.086 L481.706,219.086 Z M490.418,223.604 C490.418,223.82 490.598,224 490.814,224 L491.354,224 C491.552,224 491.75,223.82 491.75,223.604 L491.75,211.796 C491.75,211.598 491.552,211.4 491.354,211.4 L490.814,211.4 C490.598,211.4 490.418,211.598 490.418,211.796 L490.418,223.604 Z M494.108,219.824 C494.108,222.2 495.98,224.198 498.284,224.198 C500.588,224.198 502.46,222.2 502.46,219.824 C502.46,217.484 500.588,215.504 498.284,215.504 C495.98,215.504 494.108,217.484 494.108,219.824 L494.108,219.824 Z M495.422,219.824 C495.422,218.132 496.646,216.71 498.284,216.71 C499.922,216.71 501.128,218.132 501.128,219.824 C501.128,221.552 499.922,222.992 498.284,222.992 C496.646,222.992 495.422,221.552 495.422,219.824 L495.422,219.824 Z M506.042,223.514 C506.042,223.514 506.96,224.198 508.346,224.198 C510.632,224.198 512.27,222.272 512.27,219.842 C512.27,217.466 510.668,215.504 508.4,215.504 C506.906,215.504 505.898,216.35 505.898,216.35 L505.772,215.954 C505.682,215.738 505.628,215.684 505.43,215.684 L505.124,215.684 C504.908,215.684 504.728,215.882 504.728,216.08 L504.728,227.888 C504.728,228.104 504.908,228.284 505.124,228.284 L505.646,228.284 C505.844,228.284 506.042,228.104 506.042,227.888 L506.042,223.514 Z M506.042,222.272 L506.042,217.718 C506.042,217.718 506.906,216.71 508.238,216.71 C509.912,216.71 510.92,218.204 510.92,219.824 C510.92,221.642 509.75,222.992 508.148,222.992 C506.996,222.992 506.042,222.272 506.042,222.272 L506.042,222.272 Z" id="Develop" fill="#DDDDDD"></path>
            <path d="M271.99,215.198 C271.99,214.802 271.702,214.316 271.126,214.316 C270.946,214.316 270.658,214.388 270.532,214.478 C270.478,214.334 270.46,214.19 270.46,214.064 C270.46,213.128 270.964,212.462 271.468,211.922 C271.558,211.832 271.612,211.724 271.486,211.598 L271.144,211.292 C271.054,211.22 270.964,211.202 270.856,211.31 C270.226,211.994 269.632,212.948 269.632,214.316 C269.632,215.414 270.1,216.296 270.982,216.296 C271.63,216.296 271.99,215.828 271.99,215.198 L271.99,215.198 Z M275.23,215.198 C275.23,214.802 274.942,214.316 274.366,214.316 C274.186,214.316 273.898,214.388 273.772,214.478 C273.718,214.334 273.7,214.19 273.7,214.064 C273.7,213.128 274.204,212.462 274.708,211.922 C274.798,211.832 274.852,211.724 274.726,211.598 L274.384,211.292 C274.294,211.22 274.204,211.202 274.096,211.31 C273.466,211.994 272.872,212.948 272.872,214.316 C272.872,215.414 273.34,216.296 274.222,216.296 C274.87,216.296 275.23,215.828 275.23,215.198 L275.23,215.198 Z M283.222,213.704 L283.222,223.64 C283.222,223.838 283.384,224 283.582,224 L284.248,224 C284.428,224 284.59,223.838 284.59,223.64 L284.59,211.742 C284.59,211.562 284.428,211.4 284.248,211.4 L283.924,211.4 C283.798,211.4 283.708,211.436 283.618,211.526 L281.152,213.92 C281.062,214.01 280.99,214.172 281.116,214.316 L281.476,214.712 C281.602,214.856 281.746,214.838 281.89,214.73 L283.204,213.704 L283.222,213.704 Z M292.258,224.18 C295.138,224.18 296.776,221.75 296.776,217.7 C296.776,213.632 295.138,211.22 292.258,211.22 C289.396,211.22 287.758,213.632 287.758,217.7 C287.758,221.75 289.396,224.18 292.258,224.18 L292.258,224.18 Z M292.258,222.92 C290.224,222.92 289.162,221.084 289.162,217.7 C289.162,214.334 290.224,212.48 292.258,212.48 C294.31,212.48 295.372,214.334 295.372,217.7 C295.372,221.084 294.31,222.92 292.258,222.92 L292.258,222.92 Z M299.044,224 L299.728,224 C299.854,224 299.98,223.928 300.052,223.838 L302.302,220.688 L302.338,220.688 L304.606,223.82 C304.678,223.91 304.804,224 304.93,224 L305.614,224 C305.938,224 306.082,223.73 305.884,223.46 L303.166,219.734 L305.866,216.224 C306.064,215.954 305.938,215.684 305.596,215.684 L304.822,215.684 C304.678,215.684 304.57,215.756 304.498,215.846 L302.338,218.726 L302.302,218.726 L300.214,215.846 C300.16,215.756 300.034,215.684 299.89,215.684 L299.116,215.684 C298.774,215.684 298.648,215.954 298.846,216.224 L301.546,219.77 L298.774,223.46 C298.576,223.712 298.684,224 299.044,224 L299.044,224 Z M311.806,212.3 C311.806,212.696 312.094,213.182 312.67,213.182 C312.85,213.182 313.138,213.11 313.264,213.02 C313.318,213.164 313.336,213.308 313.336,213.434 C313.336,214.37 312.832,215.036 312.328,215.576 C312.238,215.666 312.184,215.774 312.31,215.9 L312.652,216.206 C312.742,216.278 312.832,216.296 312.94,216.188 C313.57,215.504 314.164,214.55 314.164,213.182 C314.164,212.084 313.696,211.202 312.814,211.202 C312.166,211.202 311.806,211.67 311.806,212.3 L311.806,212.3 Z M315.046,212.3 C315.046,212.696 315.334,213.182 315.91,213.182 C316.09,213.182 316.378,213.11 316.504,213.02 C316.558,213.164 316.576,213.308 316.576,213.434 C316.576,214.37 316.072,215.036 315.568,215.576 C315.478,215.666 315.424,215.774 315.55,215.9 L315.892,216.206 C315.982,216.278 316.072,216.296 316.18,216.188 C316.81,215.504 317.404,214.55 317.404,213.182 C317.404,212.084 316.936,211.202 316.054,211.202 C315.406,211.202 315.046,211.67 315.046,212.3 L315.046,212.3 Z" id="“-10x-”" fill="#DDDDDD"></path>
            <circle id="Oval" fill="#F67161" cx="525" cy="30" r="5"></circle>
            <rect id="Rectangle" fill="#737A7E" x="0" y="250" width="576" height="2"></rect>
            <polygon id="Triangle" fill="#737A7E" transform="translate(581.000000, 251.000000) rotate(-270.000000) translate(-581.000000, -251.000000) " points="581 246 586 256 576 256"></polygon>
        </g>
    </g>
</svg>