<?xml version="1.0" encoding="UTF-8"?>
<svg width="316px" height="298px" viewBox="0 0 316 298" version="1.1" xmlns="http://www.w3.org/2000/svg" xmlns:xlink="http://www.w3.org/1999/xlink">
    <!-- Generator: Sketch 40.3 (33839) - http://www.bohemiancoding.com/sketch -->
    <title>process--stage-2</title>
    <desc>Created with Sketch.</desc>
    <defs>
        <linearGradient x1="40.6710519%" y1="74.1046687%" x2="0%" y2="100%" id="linearGradient-1">
            <stop stop-color="#DDDDDD" offset="0%"></stop>
            <stop stop-color="#DDDDDD" stop-opacity="0" offset="100%"></stop>
        </linearGradient>
        <path d="M30,60 L30,60 C46.5685425,60 60,46.5685425 60,30 C60,13.4314575 46.5685425,0 30,0 C13.4314575,0 0,13.4314575 0,30 C0,46.5685425 13.4314575,60 30,60 L30,60 Z" id="path-2"></path>
        <mask id="mask-3" maskContentUnits="userSpaceOnUse" maskUnits="objectBoundingBox" x="0" y="0" width="60" height="60" fill="white">
            <use xlink:href="#path-2"></use>
        </mask>
    </defs>
    <g id="Process-Stages" stroke="none" stroke-width="1" fill="none" fill-rule="evenodd">
        <g id="process--stage-2" transform="translate(21.000000, 0.000000)">
            <g id="10x--hump-2" transform="translate(0.000000, 120.000000)">
                <path d="M137,0.5 L137,178" id="Line" stroke="#737A7E" stroke-width="2" stroke-linecap="square" stroke-dasharray="1,5"></path>
                <path d="M1.25018523,161.804124 C49.5,121.319946 58.7786477,11 137.000069,11 C171.564759,11 192.667692,32.3710307 209.618394,59.7748508 L207.821833,60.6724526 C188.015715,28.71106 166.976131,13 137.000069,13 C115.339194,13 98.0719294,21.55679 82.9204469,38.2018428 C71.1855622,51.0935038 62.7346706,65.3065943 47.860884,94.6421724 C47.3421221,95.6653268 45.5035987,99.2957753 45.1416156,100.009958 C34.2156232,121.56664 28.215694,132.374103 20.5552713,143.191878 C14.8827588,151.202397 9.04998779,157.819946 2.8450613,163.083452 C1.25718619,164.430412 -0.540439178,163.306554 1.25018523,161.804124 Z" id="Path-3" fill="url(#linearGradient-1)"></path>
                <circle id="Oval" fill="#37BEAC" cx="208" cy="60" r="5"></circle>
                <path d="M199.556,110.636 C199.5,110.916 199.612,111 199.864,111 L200.536,111 C200.704,111 200.844,110.86 200.872,110.692 L204.036,94.284 L204.092,94.284 L209.748,111.056 C209.804,111.252 209.972,111.28 210.112,111.28 L210.224,111.28 C210.392,111.28 210.56,111.224 210.616,111.056 L216.272,94.284 L216.328,94.284 L219.492,110.692 C219.52,110.86 219.66,111 219.828,111 L220.5,111 C220.752,111 220.864,110.916 220.808,110.636 L216.832,91.316 C216.804,91.204 216.692,91.12 216.58,91.12 L216.272,91.12 C216.132,91.12 216.048,91.176 215.992,91.316 L210.196,108.508 L210.14,108.508 L204.372,91.316 C204.316,91.176 204.232,91.12 204.092,91.12 L203.784,91.12 C203.672,91.12 203.56,91.204 203.532,91.316 L199.556,110.636 Z M230.776,111.028 C230.804,111.112 230.916,111.28 231.084,111.28 L231.224,111.28 C231.392,111.28 231.504,111.168 231.56,111.028 L240.156,91.792 C240.268,91.568 240.156,91.4 239.904,91.4 L239.176,91.4 C239.008,91.4 238.896,91.512 238.868,91.596 L231.224,108.984 L231.168,108.984 L223.608,91.596 C223.58,91.512 223.468,91.4 223.3,91.4 L222.544,91.4 C222.292,91.4 222.208,91.54 222.32,91.764 L230.776,111.028 Z M243.068,110.636 C243.068,110.832 243.236,111 243.432,111 L243.936,111 C244.216,111 244.384,110.832 244.384,110.636 L244.384,104.028 L249.48,104.028 C252.924,104.028 255.78,101.34 255.78,97.672 C255.78,94.06 252.924,91.4 249.452,91.4 L243.432,91.4 C243.236,91.4 243.068,91.568 243.068,91.764 L243.068,110.636 Z M244.384,102.74 L244.384,92.716 L249.368,92.716 C252.14,92.716 254.464,94.676 254.464,97.644 C254.464,100.668 252.14,102.74 249.396,102.74 L244.384,102.74 Z" id="MVP" fill="#37BEAC"></path>
                <path d="M219.728,18.658 C219.728,18.838 219.872,19 220.07,19 L220.772,19 C220.952,19 221.114,18.838 221.114,18.658 L221.114,13.744 L226.28,13.744 C226.46,13.744 226.622,13.582 226.622,13.402 L226.622,12.88 C226.622,12.7 226.46,12.538 226.28,12.538 L221.114,12.538 L221.114,7.606 L227.162,7.606 C227.36,7.606 227.504,7.444 227.504,7.264 L227.504,6.742 C227.504,6.562 227.36,6.4 227.162,6.4 L220.07,6.4 C219.872,6.4 219.728,6.562 219.728,6.742 L219.728,18.658 Z M229.476,14.824 C229.476,17.2 231.348,19.198 233.652,19.198 C235.956,19.198 237.828,17.2 237.828,14.824 C237.828,12.484 235.956,10.504 233.652,10.504 C231.348,10.504 229.476,12.484 229.476,14.824 L229.476,14.824 Z M230.79,14.824 C230.79,13.132 232.014,11.71 233.652,11.71 C235.29,11.71 236.496,13.132 236.496,14.824 C236.496,16.552 235.29,17.992 233.652,17.992 C232.014,17.992 230.79,16.552 230.79,14.824 L230.79,14.824 Z M240.556,14.86 C240.556,17.362 242.284,19.198 244.75,19.198 C246.136,19.198 247.252,18.442 247.882,17.524 C248.026,17.308 247.954,17.128 247.774,16.948 L247.666,16.84 C247.432,16.606 247.198,16.534 246.964,16.804 C246.496,17.344 245.956,17.992 244.696,17.992 C243.148,17.992 241.906,16.606 241.906,14.842 C241.906,13.114 243.166,11.71 244.75,11.71 C245.596,11.71 246.262,11.962 246.838,12.61 C247,12.79 247.162,12.97 247.432,12.736 L247.72,12.466 C247.918,12.304 247.954,12.07 247.792,11.872 C247.018,10.99 246.01,10.504 244.768,10.504 C242.356,10.504 240.556,12.412 240.556,14.86 L240.556,14.86 Z M251.006,15.562 C251.006,17.758 251.582,19.198 253.976,19.198 C255.47,19.198 256.244,18.442 256.55,18.118 L256.712,18.64 C256.766,18.856 256.856,19 257.09,19 L257.378,19 C257.576,19 257.756,18.82 257.756,18.604 L257.756,11.08 C257.756,10.882 257.576,10.684 257.378,10.684 L256.82,10.684 C256.604,10.684 256.442,10.882 256.442,11.08 L256.442,16.786 C256.064,17.218 255.326,17.992 254.084,17.992 C252.878,17.992 252.338,17.236 252.338,15.58 L252.338,11.08 C252.338,10.882 252.158,10.684 251.942,10.684 L251.402,10.684 C251.168,10.684 251.006,10.882 251.006,11.08 L251.006,15.562 Z M263.886,19.198 C265.578,19.198 266.712,18.136 266.712,16.822 C266.712,15.31 265.47,14.77 264.03,14.104 C263.022,13.636 262.446,13.366 262.446,12.628 C262.446,12.232 262.752,11.71 263.67,11.71 C264.444,11.71 265.02,11.98 265.38,12.196 C265.56,12.304 265.83,12.286 265.956,12.052 L266.136,11.71 C266.262,11.476 266.226,11.296 266.046,11.152 C265.65,10.864 264.75,10.504 263.67,10.504 C261.744,10.504 261.096,11.818 261.096,12.682 C261.096,14.104 262.356,14.698 263.454,15.238 C264.66,15.832 265.308,16.156 265.308,16.948 C265.308,17.596 264.732,17.992 263.886,17.992 C262.824,17.992 262.104,17.47 261.816,17.254 C261.582,17.092 261.438,17.164 261.33,17.362 L261.078,17.83 C261.006,17.974 261.042,18.1 261.132,18.19 C261.564,18.586 262.5,19.198 263.886,19.198 L263.886,19.198 Z" id="Focus" fill="#FFFFFF"></path>
                <path d="M2.668,10.198 C2.668,9.802 2.38,9.316 1.804,9.316 C1.624,9.316 1.336,9.388 1.21,9.478 C1.156,9.334 1.138,9.19 1.138,9.064 C1.138,8.128 1.642,7.462 2.146,6.922 C2.236,6.832 2.29,6.724 2.164,6.598 L1.822,6.292 C1.732,6.22 1.642,6.202 1.534,6.31 C0.904,6.994 0.31,7.948 0.31,9.316 C0.31,10.414 0.778,11.296 1.66,11.296 C2.308,11.296 2.668,10.828 2.668,10.198 L2.668,10.198 Z M5.908,10.198 C5.908,9.802 5.62,9.316 5.044,9.316 C4.864,9.316 4.576,9.388 4.45,9.478 C4.396,9.334 4.378,9.19 4.378,9.064 C4.378,8.128 4.882,7.462 5.386,6.922 C5.476,6.832 5.53,6.724 5.404,6.598 L5.062,6.292 C4.972,6.22 4.882,6.202 4.774,6.31 C4.144,6.994 3.55,7.948 3.55,9.316 C3.55,10.414 4.018,11.296 4.9,11.296 C5.548,11.296 5.908,10.828 5.908,10.198 L5.908,10.198 Z M15.9,8.704 L15.9,18.64 C15.9,18.838 16.062,19 16.26,19 L16.926,19 C17.106,19 17.268,18.838 17.268,18.64 L17.268,6.742 C17.268,6.562 17.106,6.4 16.926,6.4 L16.602,6.4 C16.476,6.4 16.386,6.436 16.296,6.526 L13.83,8.92 C13.74,9.01 13.668,9.172 13.794,9.316 L14.154,9.712 C14.28,9.856 14.424,9.838 14.568,9.73 L15.882,8.704 L15.9,8.704 Z M25.936,19.18 C28.816,19.18 30.454,16.75 30.454,12.7 C30.454,8.632 28.816,6.22 25.936,6.22 C23.074,6.22 21.436,8.632 21.436,12.7 C21.436,16.75 23.074,19.18 25.936,19.18 L25.936,19.18 Z M25.936,17.92 C23.902,17.92 22.84,16.084 22.84,12.7 C22.84,9.334 23.902,7.48 25.936,7.48 C27.988,7.48 29.05,9.334 29.05,12.7 C29.05,16.084 27.988,17.92 25.936,17.92 L25.936,17.92 Z M33.722,19 L34.406,19 C34.532,19 34.658,18.928 34.73,18.838 L36.98,15.688 L37.016,15.688 L39.284,18.82 C39.356,18.91 39.482,19 39.608,19 L40.292,19 C40.616,19 40.76,18.73 40.562,18.46 L37.844,14.734 L40.544,11.224 C40.742,10.954 40.616,10.684 40.274,10.684 L39.5,10.684 C39.356,10.684 39.248,10.756 39.176,10.846 L37.016,13.726 L36.98,13.726 L34.892,10.846 C34.838,10.756 34.712,10.684 34.568,10.684 L33.794,10.684 C33.452,10.684 33.326,10.954 33.524,11.224 L36.224,14.77 L33.452,18.46 C33.254,18.712 33.362,19 33.722,19 L33.722,19 Z M48.484,7.3 C48.484,7.696 48.772,8.182 49.348,8.182 C49.528,8.182 49.816,8.11 49.942,8.02 C49.996,8.164 50.014,8.308 50.014,8.434 C50.014,9.37 49.51,10.036 49.006,10.576 C48.916,10.666 48.862,10.774 48.988,10.9 L49.33,11.206 C49.42,11.278 49.51,11.296 49.618,11.188 C50.248,10.504 50.842,9.55 50.842,8.182 C50.842,7.084 50.374,6.202 49.492,6.202 C48.844,6.202 48.484,6.67 48.484,7.3 L48.484,7.3 Z M51.724,7.3 C51.724,7.696 52.012,8.182 52.588,8.182 C52.768,8.182 53.056,8.11 53.182,8.02 C53.236,8.164 53.254,8.308 53.254,8.434 C53.254,9.37 52.75,10.036 52.246,10.576 C52.156,10.666 52.102,10.774 52.228,10.9 L52.57,11.206 C52.66,11.278 52.75,11.296 52.858,11.188 C53.488,10.504 54.082,9.55 54.082,8.182 C54.082,7.084 53.614,6.202 52.732,6.202 C52.084,6.202 51.724,6.67 51.724,7.3 L51.724,7.3 Z" id="“-10x-”" fill="#FFFFFF"></path>
            </g>
            <g id="2" transform="translate(107.000000, 0.000000)">
                <use id="Shape" stroke="#737A7E" mask="url(#mask-3)" stroke-width="4" xlink:href="#path-2"></use>
                <path d="M26.794,37.068 L32.282,31.216 C34.27,29.088 35.894,27.212 35.894,24.664 C35.894,21.724 33.794,19.12 29.65,19.12 C26.234,19.12 24.19,21.948 24.19,21.948 C23.994,22.172 24.05,22.508 24.218,22.704 L24.778,23.264 C25.03,23.488 25.338,23.488 25.562,23.264 C26.458,22.312 27.886,21.08 29.65,21.08 C32.646,21.08 33.71,23.068 33.71,24.72 C33.71,26.092 32.758,27.8 30.798,29.956 C28.53,32.336 26.318,34.8 24.078,37.208 C23.714,37.6 23.714,37.74 23.714,38.048 L23.714,38.44 C23.714,38.748 23.938,39 24.274,39 L35.222,39 C35.53,39 35.782,38.748 35.782,38.44 L35.782,37.684 C35.782,37.376 35.53,37.124 35.222,37.124 L26.794,37.124 L26.794,37.068 Z" fill="#DDDDDD"></path>
            </g>
        </g>
    </g>
</svg>