<?xml version="1.0" encoding="UTF-8"?>
<svg width="316px" height="298px" viewBox="0 0 316 298" version="1.1" xmlns="http://www.w3.org/2000/svg" xmlns:xlink="http://www.w3.org/1999/xlink">
    <!-- Generator: Sketch 40.3 (33839) - http://www.bohemiancoding.com/sketch -->
    <title>process--stage-1</title>
    <desc>Created with Sketch.</desc>
    <defs>
        <linearGradient x1="40.6710519%" y1="74.1046687%" x2="0%" y2="100%" id="linearGradient-1">
            <stop stop-color="#DDDDDD" offset="0%"></stop>
            <stop stop-color="#DDDDDD" stop-opacity="0" offset="100%"></stop>
        </linearGradient>
        <path d="M30,60 L30,60 C46.5685425,60 60,46.5685425 60,30 C60,13.4314575 46.5685425,0 30,0 C13.4314575,0 0,13.4314575 0,30 C0,46.5685425 13.4314575,60 30,60 L30,60 Z" id="path-2"></path>
        <mask id="mask-3" maskContentUnits="userSpaceOnUse" maskUnits="objectBoundingBox" x="0" y="0" width="60" height="60" fill="white">
            <use xlink:href="#path-2"></use>
        </mask>
    </defs>
    <g id="Process-Stages" stroke="none" stroke-width="1" fill="none" fill-rule="evenodd">
        <g id="process--stage-1" transform="translate(2.000000, 0.000000)">
            <g id="10x--hump-1" transform="translate(0.000000, 120.000000)">
                <path d="M156,0.5 L156,178" id="Line" stroke="#737A7E" stroke-width="2" stroke-linecap="square" stroke-dasharray="1,5"></path>
                <path d="M20.2501852,161.804124 C68.5,121.319946 77.7786477,11 156.000069,11 C190.564759,11 211.667692,32.3710307 228.618394,59.7748508 L226.821833,60.6724526 C207.015715,28.71106 185.976131,13 156.000069,13 C134.339194,13 117.071929,21.55679 101.920447,38.2018428 C90.1855622,51.0935038 81.7346706,65.3065943 66.860884,94.6421724 C66.3421221,95.6653268 64.5035987,99.2957753 64.1416156,100.009958 C53.2156232,121.56664 47.215694,132.374103 39.5552713,143.191878 C33.8827588,151.202397 28.0499878,157.819946 21.8450613,163.083452 C20.2571862,164.430412 18.4595608,163.306554 20.2501852,161.804124 Z" id="Path-3" fill="url(#linearGradient-1)"></path>
                <circle id="Oval" fill="#37BEAC" cx="227" cy="60" r="5"></circle>
                <path d="M218.916,108.984 C219.28,109.32 221.52,111.28 224.852,111.28 C228.072,111.28 230.956,109.404 230.956,106.296 C230.956,103.048 228.52,101.704 224.684,100.388 C221.856,99.464 220.036,98.428 220.036,96.048 C220.036,94.452 221.324,92.324 224.768,92.324 C226.924,92.324 228.8,93.584 228.884,93.64 C229.164,93.808 229.36,93.752 229.5,93.5 L229.724,93.136 C229.92,92.828 229.724,92.632 229.612,92.548 C229.612,92.548 227.568,91.12 224.796,91.12 C220.428,91.12 218.748,93.976 218.748,96.076 C218.748,99.296 220.904,100.444 224.152,101.592 C227.54,102.74 229.584,103.86 229.584,106.352 C229.584,108.732 227.428,110.104 224.88,110.104 C222.052,110.104 219.98,108.2 219.7,107.948 C219.476,107.752 219.28,107.836 219.084,108.06 L218.832,108.396 C218.608,108.704 218.748,108.844 218.916,108.984 L218.916,108.984 Z M235.8,109.964 C236.164,110.272 237.564,111.308 239.72,111.308 C243.472,111.308 246.16,108.312 246.16,104.504 C246.16,100.724 243.612,97.784 240.028,97.784 C237.648,97.784 236.052,98.988 235.66,99.296 L235.548,98.4 C235.52,98.148 235.408,98.064 235.184,98.064 L235.016,98.064 C234.792,98.064 234.568,98.204 234.568,98.484 L234.568,117.244 C234.568,117.468 234.736,117.664 234.988,117.664 L235.352,117.664 C235.548,117.664 235.8,117.468 235.8,117.244 L235.8,109.964 Z M235.8,108.536 L235.8,100.696 C235.968,100.472 237.48,98.988 239.972,98.988 C242.94,98.988 244.928,101.48 244.928,104.476 C244.928,107.64 242.828,110.104 239.692,110.104 C237.508,110.104 235.968,108.704 235.8,108.536 L235.8,108.536 Z M249.128,104.504 C249.128,108.284 251.564,111.308 255.372,111.308 C257.416,111.308 259.32,110.412 260.076,109.796 C260.3,109.628 260.328,109.404 260.216,109.292 L259.908,108.816 C259.768,108.62 259.628,108.648 259.348,108.816 C258.564,109.348 257.192,110.104 255.372,110.104 C252.6,110.104 250.416,107.808 250.36,104.924 L260.692,104.924 C261.168,104.924 261.168,104.168 261.168,103.664 C261.168,100.36 258.788,97.784 255.372,97.784 C251.564,97.784 249.128,100.836 249.128,104.504 L249.128,104.504 Z M250.388,103.776 C250.556,101.088 252.572,98.988 255.372,98.988 C258.284,98.988 259.936,101.228 259.936,103.776 L250.388,103.776 Z M263.912,104.532 C263.912,108.452 266.936,111.308 270.604,111.308 C273.292,111.308 275.14,109.6 275.672,108.816 C275.784,108.648 275.756,108.48 275.588,108.312 L275.336,108.088 C275.14,107.892 274.944,107.864 274.72,108.116 C274.356,108.508 272.984,110.104 270.632,110.104 C267.552,110.104 265.144,107.64 265.144,104.504 C265.144,101.424 267.664,98.988 270.604,98.988 C272.648,98.988 274.104,100.192 274.412,100.528 C274.636,100.752 274.86,100.836 275.112,100.584 L275.336,100.36 C275.504,100.192 275.532,99.968 275.364,99.772 C274.804,99.044 273.096,97.784 270.604,97.784 C266.936,97.784 263.912,100.64 263.912,104.532 L263.912,104.532 Z" id="Spec" fill="#37BEAC"></path>
                <path d="M238.728,18.658 C238.728,18.838 238.872,19 239.052,19 L243.084,19 C246.558,19 249.402,16.174 249.402,12.682 C249.402,9.226 246.558,6.4 243.084,6.4 L239.052,6.4 C238.872,6.4 238.728,6.562 238.728,6.742 L238.728,18.658 Z M240.096,17.758 L240.096,7.624 L242.922,7.624 C245.874,7.624 247.944,9.73 247.944,12.682 C247.944,15.652 245.874,17.758 242.922,17.758 L240.096,17.758 Z M252.148,14.842 C252.148,17.218 253.66,19.198 256.18,19.198 C257.62,19.198 258.718,18.64 259.222,18.244 C259.528,18.01 259.456,17.92 259.294,17.668 L259.078,17.362 C258.862,17.038 258.736,17.11 258.448,17.308 C257.98,17.614 257.296,17.992 256.198,17.992 C254.686,17.992 253.516,16.534 253.48,15.148 L259.528,15.148 C259.708,15.148 259.888,15.004 259.906,14.788 C259.924,14.644 259.942,14.428 259.942,14.284 C259.942,12.106 258.358,10.504 256.18,10.504 C253.66,10.504 252.148,12.502 252.148,14.842 L252.148,14.842 Z M253.498,14.086 C253.66,12.79 254.776,11.71 256.18,11.71 C257.602,11.71 258.574,12.862 258.61,14.086 L253.498,14.086 Z M263.858,18.604 C263.858,18.82 264.038,19 264.254,19 L264.794,19 C265.01,19 265.19,18.82 265.19,18.604 L265.19,11.836 L269.402,11.836 L269.402,18.604 C269.402,18.82 269.6,19 269.798,19 L270.338,19 C270.554,19 270.734,18.82 270.734,18.604 L270.734,11.08 C270.734,10.882 270.554,10.684 270.338,10.684 L265.19,10.684 L265.19,9.586 C265.19,8.164 265.856,7.426 267.008,7.426 C267.998,7.426 268.7,7.894 269.114,8.2 C269.312,8.344 269.51,8.362 269.636,8.182 L269.978,7.678 C270.068,7.552 270.032,7.3 269.888,7.21 C269.528,6.922 268.412,6.22 267.026,6.22 C265.154,6.22 263.858,7.408 263.858,9.586 L263.858,10.684 L262.526,10.684 C262.31,10.684 262.13,10.846 262.13,11.08 L262.13,11.44 C262.13,11.656 262.31,11.836 262.526,11.836 L263.858,11.836 L263.858,18.604 Z M274.506,18.604 C274.506,18.82 274.686,19 274.902,19 L275.442,19 C275.64,19 275.838,18.82 275.838,18.604 L275.838,12.862 C275.838,12.862 276.828,11.71 278.394,11.71 C279.618,11.71 280.158,12.448 280.158,14.032 L280.158,18.604 C280.158,18.82 280.338,19 280.554,19 L281.094,19 C281.292,19 281.49,18.82 281.49,18.604 L281.49,14.212 C281.49,12.07 280.896,10.504 278.484,10.504 C276.756,10.504 275.694,11.566 275.694,11.566 L275.514,10.936 C275.478,10.756 275.37,10.684 275.19,10.684 L274.902,10.684 C274.686,10.684 274.506,10.882 274.506,11.08 L274.506,18.604 Z M284.686,14.842 C284.686,17.218 286.198,19.198 288.718,19.198 C290.158,19.198 291.256,18.64 291.76,18.244 C292.066,18.01 291.994,17.92 291.832,17.668 L291.616,17.362 C291.4,17.038 291.274,17.11 290.986,17.308 C290.518,17.614 289.834,17.992 288.736,17.992 C287.224,17.992 286.054,16.534 286.018,15.148 L292.066,15.148 C292.246,15.148 292.426,15.004 292.444,14.788 C292.462,14.644 292.48,14.428 292.48,14.284 C292.48,12.106 290.896,10.504 288.718,10.504 C286.198,10.504 284.686,12.502 284.686,14.842 L284.686,14.842 Z M286.036,14.086 C286.198,12.79 287.314,11.71 288.718,11.71 C290.14,11.71 291.112,12.862 291.148,14.086 L286.036,14.086 Z" id="Define" fill="#FFFFFF"></path>
                <path d="M0.31,18.658 C0.31,18.838 0.454,19 0.634,19 L4.666,19 C8.14,19 10.984,16.174 10.984,12.682 C10.984,9.226 8.14,6.4 4.666,6.4 L0.634,6.4 C0.454,6.4 0.31,6.562 0.31,6.742 L0.31,18.658 Z M1.678,17.758 L1.678,7.624 L4.504,7.624 C7.456,7.624 9.526,9.73 9.526,12.682 C9.526,15.652 7.456,17.758 4.504,17.758 L1.678,17.758 Z M14.81,8.542 C15.368,8.542 15.8,8.092 15.8,7.57 C15.8,6.994 15.368,6.562 14.81,6.562 C14.27,6.562 13.838,6.994 13.838,7.57 C13.838,8.092 14.27,8.542 14.81,8.542 L14.81,8.542 Z M14.18,18.604 C14.18,18.82 14.36,19 14.576,19 L15.116,19 C15.314,19 15.512,18.82 15.512,18.604 L15.512,11.08 C15.512,10.882 15.314,10.684 15.116,10.684 L14.576,10.684 C14.36,10.684 14.18,10.882 14.18,11.08 L14.18,18.604 Z M21.642,19.198 C23.334,19.198 24.468,18.136 24.468,16.822 C24.468,15.31 23.226,14.77 21.786,14.104 C20.778,13.636 20.202,13.366 20.202,12.628 C20.202,12.232 20.508,11.71 21.426,11.71 C22.2,11.71 22.776,11.98 23.136,12.196 C23.316,12.304 23.586,12.286 23.712,12.052 L23.892,11.71 C24.018,11.476 23.982,11.296 23.802,11.152 C23.406,10.864 22.506,10.504 21.426,10.504 C19.5,10.504 18.852,11.818 18.852,12.682 C18.852,14.104 20.112,14.698 21.21,15.238 C22.416,15.832 23.064,16.156 23.064,16.948 C23.064,17.596 22.488,17.992 21.642,17.992 C20.58,17.992 19.86,17.47 19.572,17.254 C19.338,17.092 19.194,17.164 19.086,17.362 L18.834,17.83 C18.762,17.974 18.798,18.1 18.888,18.19 C19.32,18.586 20.256,19.198 21.642,19.198 L21.642,19.198 Z M27.088,14.86 C27.088,17.362 28.816,19.198 31.282,19.198 C32.668,19.198 33.784,18.442 34.414,17.524 C34.558,17.308 34.486,17.128 34.306,16.948 L34.198,16.84 C33.964,16.606 33.73,16.534 33.496,16.804 C33.028,17.344 32.488,17.992 31.228,17.992 C29.68,17.992 28.438,16.606 28.438,14.842 C28.438,13.114 29.698,11.71 31.282,11.71 C32.128,11.71 32.794,11.962 33.37,12.61 C33.532,12.79 33.694,12.97 33.964,12.736 L34.252,12.466 C34.45,12.304 34.486,12.07 34.324,11.872 C33.55,10.99 32.542,10.504 31.3,10.504 C28.888,10.504 27.088,12.412 27.088,14.86 L27.088,14.86 Z M36.998,14.824 C36.998,17.2 38.87,19.198 41.174,19.198 C43.478,19.198 45.35,17.2 45.35,14.824 C45.35,12.484 43.478,10.504 41.174,10.504 C38.87,10.504 36.998,12.484 36.998,14.824 L36.998,14.824 Z M38.312,14.824 C38.312,13.132 39.536,11.71 41.174,11.71 C42.812,11.71 44.018,13.132 44.018,14.824 C44.018,16.552 42.812,17.992 41.174,17.992 C39.536,17.992 38.312,16.552 38.312,14.824 L38.312,14.824 Z M50.976,18.982 C51.012,19.09 51.138,19.198 51.318,19.198 L51.426,19.198 C51.624,19.198 51.732,19.09 51.768,18.982 L55.35,11.152 C55.458,10.9 55.35,10.684 55.026,10.684 L54.45,10.684 C54.306,10.684 54.18,10.774 54.126,10.918 L51.39,17.038 L51.354,17.038 L48.78,10.918 C48.726,10.774 48.6,10.684 48.402,10.684 L47.772,10.684 C47.466,10.684 47.34,10.9 47.466,11.152 L50.976,18.982 Z M57.484,14.842 C57.484,17.218 58.996,19.198 61.516,19.198 C62.956,19.198 64.054,18.64 64.558,18.244 C64.864,18.01 64.792,17.92 64.63,17.668 L64.414,17.362 C64.198,17.038 64.072,17.11 63.784,17.308 C63.316,17.614 62.632,17.992 61.534,17.992 C60.022,17.992 58.852,16.534 58.816,15.148 L64.864,15.148 C65.044,15.148 65.224,15.004 65.242,14.788 C65.26,14.644 65.278,14.428 65.278,14.284 C65.278,12.106 63.694,10.504 61.516,10.504 C58.996,10.504 57.484,12.502 57.484,14.842 L57.484,14.842 Z M58.834,14.086 C58.996,12.79 60.112,11.71 61.516,11.71 C62.938,11.71 63.91,12.862 63.946,14.086 L58.834,14.086 Z M68.456,18.604 C68.456,18.82 68.636,19 68.852,19 L69.392,19 C69.59,19 69.788,18.82 69.788,18.604 L69.788,12.844 C69.788,12.844 70.436,11.782 72.038,11.782 C72.434,11.782 72.74,11.926 72.938,12.016 C73.136,12.106 73.334,12.088 73.424,11.818 L73.658,11.17 C73.856,10.594 72.83,10.504 72.2,10.504 C70.472,10.504 69.644,11.566 69.644,11.566 L69.5,10.972 C69.446,10.774 69.302,10.684 69.14,10.684 L68.852,10.684 C68.636,10.684 68.456,10.882 68.456,11.08 L68.456,18.604 Z" id="Discover" fill="#FFFFFF"></path>
            </g>
            <g id="1" transform="translate(126.000000, 0.000000)">
                <use id="Shape" stroke="#737A7E" mask="url(#mask-3)" stroke-width="4" xlink:href="#path-2"></use>
                <path d="M29.622,22.984 L29.622,38.44 C29.622,38.748 29.874,39 30.182,39 L31.218,39 C31.498,39 31.75,38.748 31.75,38.44 L31.75,19.932 C31.75,19.652 31.498,19.4 31.218,19.4 L30.714,19.4 C30.518,19.4 30.378,19.456 30.238,19.596 L26.402,23.32 C26.262,23.46 26.15,23.712 26.346,23.936 L26.906,24.552 C27.102,24.776 27.326,24.748 27.55,24.58 L29.594,22.984 L29.622,22.984 Z" fill="#DDDDDD"></path>
            </g>
        </g>
    </g>
</svg>