<?xml version="1.0" encoding="UTF-8" standalone="no"?>
<svg width="336px" height="101px" viewBox="0 0 336 101" version="1.1" xmlns="http://www.w3.org/2000/svg" xmlns:xlink="http://www.w3.org/1999/xlink">
    <!-- Generator: Sketch 39.1 (31720) - http://www.bohemiancoding.com/sketch -->
    <title>icons--devices</title>
    <desc>Created with Sketch.</desc>
    <defs>
        <rect id="path-1" x="0" y="0" width="16" height="28" rx="2"></rect>
        <mask id="mask-2" maskContentUnits="userSpaceOnUse" maskUnits="objectBoundingBox" x="0" y="0" width="16" height="28" fill="white">
            <use xlink:href="#path-1"></use>
        </mask>
        <linearGradient x1="100%" y1="0%" x2="50%" y2="100%" id="linearGradient-3">
            <stop stop-color="#37BEAC" stop-opacity="0.4" offset="0%"></stop>
            <stop stop-color="#37BEAC" stop-opacity="0" offset="100%"></stop>
        </linearGradient>
        <rect id="path-4" x="0" y="3" width="16" height="22"></rect>
        <mask id="mask-5" maskContentUnits="userSpaceOnUse" maskUnits="objectBoundingBox" x="0" y="0" width="16" height="22" fill="white">
            <use xlink:href="#path-4"></use>
        </mask>
        <rect id="path-6" x="2" y="0" width="6" height="6" rx="1"></rect>
        <mask id="mask-7" maskContentUnits="userSpaceOnUse" maskUnits="objectBoundingBox" x="0" y="0" width="6" height="6" fill="white">
            <use xlink:href="#path-6"></use>
        </mask>
        <rect id="path-8" x="2" y="14" width="6" height="6"></rect>
        <mask id="mask-9" maskContentUnits="userSpaceOnUse" maskUnits="objectBoundingBox" x="0" y="0" width="6" height="6" fill="white">
            <use xlink:href="#path-8"></use>
        </mask>
        <rect id="path-10" x="0" y="5" width="10" height="10" rx="1"></rect>
        <mask id="mask-11" maskContentUnits="userSpaceOnUse" maskUnits="objectBoundingBox" x="0" y="0" width="10" height="10" fill="white">
            <use xlink:href="#path-10"></use>
        </mask>
        <rect id="path-12" x="0" y="0" width="111" height="82" rx="2"></rect>
        <mask id="mask-13" maskContentUnits="userSpaceOnUse" maskUnits="objectBoundingBox" x="0" y="0" width="111" height="82" fill="white">
            <use xlink:href="#path-12"></use>
        </mask>
        <rect id="path-14" x="4" y="4" width="103" height="64" rx="2"></rect>
        <mask id="mask-15" maskContentUnits="userSpaceOnUse" maskUnits="objectBoundingBox" x="0" y="0" width="103" height="64" fill="white">
            <use xlink:href="#path-14"></use>
        </mask>
        <path d="M45.2619048,81 L65.7380952,81 C65.7380952,98 77,101 77,101 L34,101 C34,101 45.2619048,98 45.2619048,81 Z" id="path-16"></path>
        <mask id="mask-17" maskContentUnits="userSpaceOnUse" maskUnits="objectBoundingBox" x="0" y="0" width="43" height="20" fill="white">
            <use xlink:href="#path-16"></use>
        </mask>
        <path d="M1.48137316e-15,44 C6.91860465,44 77.0930233,44 85,44 C85,47 79.9536694,48.3389798 79.9536694,48.3389798 C78.919641,48.7040512 77.1816347,49 76.0850829,49 L8.91491714,49 C7.8123842,49 6.07024792,48.7233582 5.02806553,48.3316345 C5.02806553,48.3316345 0,47 1.48137316e-15,44 Z" id="path-18"></path>
        <mask id="mask-19" maskContentUnits="userSpaceOnUse" maskUnits="objectBoundingBox" x="0" y="0" width="85" height="5" fill="white">
            <use xlink:href="#path-18"></use>
        </mask>
        <rect id="path-20" x="7" y="0" width="71" height="45" rx="2"></rect>
        <mask id="mask-21" maskContentUnits="userSpaceOnUse" maskUnits="objectBoundingBox" x="0" y="0" width="71" height="45" fill="white">
            <use xlink:href="#path-20"></use>
        </mask>
        <rect id="path-22" x="9" y="2" width="67" height="43" rx="1"></rect>
        <mask id="mask-23" maskContentUnits="userSpaceOnUse" maskUnits="objectBoundingBox" x="0" y="0" width="67" height="43" fill="white">
            <use xlink:href="#path-22"></use>
        </mask>
        <rect id="path-24" x="0" y="0" width="35" height="49" rx="2"></rect>
        <mask id="mask-25" maskContentUnits="userSpaceOnUse" maskUnits="objectBoundingBox" x="0" y="0" width="35" height="49" fill="white">
            <use xlink:href="#path-24"></use>
        </mask>
        <rect id="path-26" x="2" y="3" width="31" height="43" rx="1"></rect>
        <mask id="mask-27" maskContentUnits="userSpaceOnUse" maskUnits="objectBoundingBox" x="0" y="0" width="31" height="43" fill="white">
            <use xlink:href="#path-26"></use>
        </mask>
    </defs>
    <g id="services" stroke="none" stroke-width="1" fill="none" fill-rule="evenodd">
        <g transform="translate(-552.000000, -452.000000)" id="icons--devices" stroke="#37BEAC">
            <g transform="translate(552.000000, 452.000000)">
                <g>
                    <g id="icon--phone" transform="translate(30.000000, 73.000000)" stroke-width="2">
                        <use id="Rectangle-24" mask="url(#mask-2)" xlink:href="#path-1"></use>
                        <use id="Rectangle-24" mask="url(#mask-5)" fill="url(#linearGradient-3)" xlink:href="#path-4"></use>
                    </g>
                    <g id="icon--wearable" transform="translate(0.000000, 81.000000)" stroke-width="2">
                        <use id="Rectangle-27" mask="url(#mask-7)" xlink:href="#path-6"></use>
                        <use id="Rectangle-27-Copy" mask="url(#mask-9)" xlink:href="#path-8"></use>
                        <use id="Rectangle-26" mask="url(#mask-11)" fill="url(#linearGradient-3)" xlink:href="#path-10"></use>
                    </g>
                    <g id="icon--desktop" transform="translate(225.000000, 0.000000)" stroke-width="2">
                        <use id="Rectangle-17" mask="url(#mask-13)" xlink:href="#path-12"></use>
                        <use id="Rectangle-17" mask="url(#mask-15)" fill="url(#linearGradient-3)" xlink:href="#path-14"></use>
                        <use id="Rectangle-19" mask="url(#mask-17)" xlink:href="#path-16"></use>
                    </g>
                    <g id="icon--laptop" transform="translate(120.000000, 52.000000)" stroke-width="2">
                        <use id="Rectangle-21" mask="url(#mask-19)" xlink:href="#path-18"></use>
                        <use id="Rectangle-17" mask="url(#mask-21)" xlink:href="#path-20"></use>
                        <use id="Rectangle-17" mask="url(#mask-23)" fill="url(#linearGradient-3)" xlink:href="#path-22"></use>
                    </g>
                    <g id="icon--tablet" transform="translate(64.000000, 52.000000)" stroke-width="2">
                        <use id="Rectangle-17" mask="url(#mask-25)" xlink:href="#path-24"></use>
                        <use id="Rectangle-17" mask="url(#mask-27)" fill="url(#linearGradient-3)" xlink:href="#path-26"></use>
                    </g>
                </g>
            </g>
        </g>
    </g>
</svg>