<?xml version="1.0" encoding="UTF-8"?>
<svg width="316px" height="298px" viewBox="0 0 316 298" version="1.1" xmlns="http://www.w3.org/2000/svg" xmlns:xlink="http://www.w3.org/1999/xlink">
    <!-- Generator: Sketch 40.3 (33839) - http://www.bohemiancoding.com/sketch -->
    <title>process--stage-3</title>
    <desc>Created with Sketch.</desc>
    <defs>
        <linearGradient x1="40.6710519%" y1="74.1046687%" x2="0%" y2="100%" id="linearGradient-1">
            <stop stop-color="#DDDDDD" offset="0%"></stop>
            <stop stop-color="#DDDDDD" stop-opacity="0" offset="100%"></stop>
        </linearGradient>
        <path d="M30,60 L30,60 C46.5685425,60 60,46.5685425 60,30 C60,13.4314575 46.5685425,0 30,0 C13.4314575,0 0,13.4314575 0,30 C0,46.5685425 13.4314575,60 30,60 L30,60 Z" id="path-2"></path>
        <mask id="mask-3" maskContentUnits="userSpaceOnUse" maskUnits="objectBoundingBox" x="0" y="0" width="60" height="60" fill="white">
            <use xlink:href="#path-2"></use>
        </mask>
    </defs>
    <g id="Process-Stages" stroke="none" stroke-width="1" fill="none" fill-rule="evenodd">
        <g id="process--stage-3" transform="translate(6.000000, 0.000000)">
            <g id="10x--hump-3" transform="translate(0.000000, 114.000000)">
                <path d="M152,6.5 L152,184" id="Line" stroke="#737A7E" stroke-width="2" stroke-linecap="square" stroke-dasharray="1,5"></path>
                <path d="M16.2501852,167.804124 C64.5,127.319946 73.7786477,17 152.000069,17 C186.564759,17 207.667692,38.3710307 224.618394,65.7748508 L222.821833,66.6724526 C203.015715,34.71106 181.976131,19 152.000069,19 C130.339194,19 113.071929,27.55679 97.9204469,44.2018428 C86.1855622,57.0935038 77.7346706,71.3065943 62.860884,100.642172 C62.3421221,101.665327 60.5035987,105.295775 60.1416156,106.009958 C49.2156232,127.56664 43.215694,138.374103 35.5552713,149.191878 C29.8827588,157.202397 24.0499878,163.819946 17.8450613,169.083452 C16.2571862,170.430412 14.4595608,169.306554 16.2501852,167.804124 Z" id="Path-3" fill="url(#linearGradient-1)"></path>
                <circle id="Oval" fill="#37BEAC" cx="223" cy="66" r="5"></circle>
                <path d="M202.138,116.636 C202.138,116.832 202.306,117 202.474,117 L208.41,117 C213.842,117 218.266,112.632 218.266,107.172 C218.266,101.796 213.842,97.4 208.41,97.4 L202.474,97.4 C202.306,97.4 202.138,97.568 202.138,97.764 L202.138,116.636 Z M203.454,115.796 L203.454,98.604 L208.186,98.604 C213.198,98.604 216.866,102.328 216.866,107.172 C216.866,112.072 213.17,115.796 208.186,115.796 L203.454,115.796 Z M221.346,110.504 C221.346,114.284 223.782,117.308 227.59,117.308 C229.634,117.308 231.538,116.412 232.294,115.796 C232.518,115.628 232.546,115.404 232.434,115.292 L232.126,114.816 C231.986,114.62 231.846,114.648 231.566,114.816 C230.782,115.348 229.41,116.104 227.59,116.104 C224.818,116.104 222.634,113.808 222.578,110.924 L232.91,110.924 C233.386,110.924 233.386,110.168 233.386,109.664 C233.386,106.36 231.006,103.784 227.59,103.784 C223.782,103.784 221.346,106.836 221.346,110.504 L221.346,110.504 Z M222.606,109.776 C222.774,107.088 224.79,104.988 227.59,104.988 C230.502,104.988 232.154,107.228 232.154,109.776 L222.606,109.776 Z M238.258,115.964 C238.622,116.272 240.022,117.308 242.178,117.308 C245.93,117.308 248.618,114.312 248.618,110.504 C248.618,106.724 246.07,103.784 242.486,103.784 C240.106,103.784 238.51,104.988 238.118,105.296 L238.006,104.4 C237.978,104.148 237.866,104.064 237.642,104.064 L237.474,104.064 C237.25,104.064 237.026,104.204 237.026,104.484 L237.026,123.244 C237.026,123.468 237.194,123.664 237.446,123.664 L237.81,123.664 C238.006,123.664 238.258,123.468 238.258,123.244 L238.258,115.964 Z M238.258,114.536 L238.258,106.696 C238.426,106.472 239.938,104.988 242.43,104.988 C245.398,104.988 247.386,107.48 247.386,110.476 C247.386,113.64 245.286,116.104 242.15,116.104 C239.966,116.104 238.426,114.704 238.258,114.536 L238.258,114.536 Z M252.622,116.58 C252.622,116.804 252.734,117 252.986,117 L253.434,117 C253.714,117 253.854,116.86 253.854,116.58 L253.854,97.82 C253.854,97.596 253.63,97.4 253.434,97.4 L253.042,97.4 C252.79,97.4 252.622,97.596 252.622,97.82 L252.622,116.58 Z M257.83,110.504 C257.83,114.284 260.63,117.308 264.326,117.308 C267.938,117.308 270.822,114.284 270.822,110.504 C270.822,106.836 267.938,103.784 264.326,103.784 C260.63,103.784 257.83,106.836 257.83,110.504 L257.83,110.504 Z M259.062,110.504 C259.062,107.48 261.386,104.988 264.326,104.988 C267.21,104.988 269.506,107.48 269.506,110.504 C269.506,113.612 267.21,116.104 264.326,116.104 C261.386,116.104 259.062,113.612 259.062,110.504 L259.062,110.504 Z M278.214,116.972 L275.526,123.216 C275.386,123.524 275.498,123.664 275.778,123.664 L276.422,123.664 C276.562,123.664 276.758,123.58 276.842,123.412 L284.934,104.596 C285.074,104.316 285.046,104.064 284.738,104.064 L284.122,104.064 C283.954,104.064 283.786,104.148 283.702,104.372 L278.942,115.544 L278.858,115.544 L274.294,104.372 C274.21,104.148 274.042,104.064 273.846,104.064 L273.258,104.064 C272.978,104.064 272.95,104.316 273.062,104.596 L278.214,116.972 Z" id="Deploy" fill="#37BEAC"></path>
                <path d="M233.936,6.718 C233.936,10.318 236.798,13.18 240.398,13.18 C240.812,13.18 241.316,13.144 241.712,13.072 L243.674,16.384 C243.746,16.51 243.89,16.564 243.962,16.564 L244.862,16.564 C245.15,16.564 245.312,16.276 245.15,16.024 L243.044,12.64 C245.312,11.632 246.878,9.382 246.878,6.718 C246.878,3.118 243.998,0.22 240.398,0.22 C236.798,0.22 233.936,3.118 233.936,6.718 L233.936,6.718 Z M235.196,6.718 C235.196,3.856 237.536,1.48 240.398,1.48 C243.26,1.48 245.618,3.856 245.618,6.718 C245.618,9.58 243.26,11.92 240.398,11.92 C237.536,11.92 235.196,9.58 235.196,6.718 L235.196,6.718 Z M250.002,9.562 C250.002,11.758 250.578,13.198 252.972,13.198 C254.466,13.198 255.24,12.442 255.546,12.118 L255.708,12.64 C255.762,12.856 255.852,13 256.086,13 L256.374,13 C256.572,13 256.752,12.82 256.752,12.604 L256.752,5.08 C256.752,4.882 256.572,4.684 256.374,4.684 L255.816,4.684 C255.6,4.684 255.438,4.882 255.438,5.08 L255.438,10.786 C255.06,11.218 254.322,11.992 253.08,11.992 C251.874,11.992 251.334,11.236 251.334,9.58 L251.334,5.08 C251.334,4.882 251.154,4.684 250.938,4.684 L250.398,4.684 C250.164,4.684 250.002,4.882 250.002,5.08 L250.002,9.562 Z M259.912,10.48 C259.912,12.154 261.028,13.198 262.486,13.198 C263.764,13.198 264.628,12.568 265.06,12.136 L265.222,12.694 C265.276,12.874 265.348,13 265.564,13 L265.906,13 C266.122,13 266.302,12.82 266.302,12.604 L266.302,7.996 C266.302,5.548 265.852,4.504 263.728,4.504 C262.36,4.504 261.28,4.864 260.866,5.044 C260.668,5.134 260.542,5.242 260.614,5.494 L260.794,5.98 C260.866,6.178 260.974,6.286 261.19,6.196 C261.568,6.07 262.522,5.71 263.656,5.71 C264.844,5.71 265.042,6.466 265.024,7.996 C265.024,7.996 264.124,7.726 263.242,7.726 C261.1,7.726 259.912,8.896 259.912,10.48 L259.912,10.48 Z M261.226,10.48 C261.226,9.418 262.09,8.86 263.242,8.86 C264.07,8.86 264.736,9.04 265.006,9.184 L265.006,10.876 C264.646,11.416 263.746,11.992 262.72,11.992 C261.802,11.992 261.226,11.326 261.226,10.48 L261.226,10.48 Z M270.128,12.604 C270.128,12.82 270.308,13 270.524,13 L271.064,13 C271.262,13 271.46,12.82 271.46,12.604 L271.46,0.796 C271.46,0.598 271.262,0.4 271.064,0.4 L270.524,0.4 C270.308,0.4 270.128,0.598 270.128,0.796 L270.128,12.604 Z M275.988,2.542 C276.546,2.542 276.978,2.092 276.978,1.57 C276.978,0.994 276.546,0.562 275.988,0.562 C275.448,0.562 275.016,0.994 275.016,1.57 C275.016,2.092 275.448,2.542 275.988,2.542 L275.988,2.542 Z M275.358,12.604 C275.358,12.82 275.538,13 275.754,13 L276.294,13 C276.492,13 276.69,12.82 276.69,12.604 L276.69,5.08 C276.69,4.882 276.492,4.684 276.294,4.684 L275.754,4.684 C275.538,4.684 275.358,4.882 275.358,5.08 L275.358,12.604 Z M281.038,5.836 L281.038,10.894 C281.038,12.19 281.362,13.198 282.946,13.198 C284.062,13.198 284.926,12.784 285.286,12.532 C285.502,12.388 285.538,12.262 285.43,11.992 L285.268,11.614 C285.178,11.416 285.07,11.254 284.746,11.452 C284.404,11.668 283.882,11.992 283.108,11.992 C282.64,11.992 282.37,11.668 282.37,10.804 L282.37,5.836 L284.818,5.836 C285.052,5.836 285.232,5.656 285.232,5.44 L285.232,5.08 C285.232,4.846 285.052,4.684 284.818,4.684 L282.37,4.684 L282.37,2.344 C282.37,2.128 282.208,1.93 281.992,1.948 L281.434,1.984 C281.236,2.002 281.038,2.164 281.038,2.38 L281.038,4.684 L279.94,4.684 C279.688,4.684 279.526,4.846 279.526,5.08 L279.526,5.44 C279.526,5.656 279.688,5.836 279.94,5.836 L281.038,5.836 Z M290.48,12.982 L288.878,16.78 C288.752,17.068 288.896,17.284 289.22,17.284 L289.868,17.284 C290.012,17.284 290.174,17.158 290.228,17.032 L295.43,5.152 C295.556,4.882 295.43,4.684 295.106,4.684 L294.44,4.684 C294.278,4.684 294.134,4.774 294.08,4.918 L291.272,11.524 L291.236,11.524 L288.878,4.918 C288.824,4.774 288.68,4.684 288.518,4.684 L287.762,4.684 C287.438,4.684 287.33,4.864 287.438,5.134 L290.48,12.982 Z M233.936,31.718 C233.936,35.318 236.834,38.18 240.434,38.18 C242.036,38.18 243.53,37.514 244.718,36.434 C244.844,36.308 244.88,36.056 244.736,35.948 L244.322,35.534 C244.178,35.39 244.034,35.372 243.854,35.516 C242.9,36.326 241.982,36.866 240.416,36.866 C237.572,36.866 235.394,34.472 235.394,31.7 C235.394,28.91 237.572,26.516 240.416,26.516 C241.73,26.516 242.918,27.056 243.854,27.866 C244.034,28.046 244.178,28.064 244.322,27.884 L244.808,27.398 C244.952,27.254 244.934,27.038 244.79,26.894 C243.566,25.85 242.252,25.22 240.434,25.22 C236.834,25.22 233.936,28.118 233.936,31.718 L233.936,31.718 Z M247.446,33.824 C247.446,36.2 249.318,38.198 251.622,38.198 C253.926,38.198 255.798,36.2 255.798,33.824 C255.798,31.484 253.926,29.504 251.622,29.504 C249.318,29.504 247.446,31.484 247.446,33.824 L247.446,33.824 Z M248.76,33.824 C248.76,32.132 249.984,30.71 251.622,30.71 C253.26,30.71 254.466,32.132 254.466,33.824 C254.466,35.552 253.26,36.992 251.622,36.992 C249.984,36.992 248.76,35.552 248.76,33.824 L248.76,33.824 Z M259.066,37.604 C259.066,37.82 259.246,38 259.462,38 L260.002,38 C260.2,38 260.398,37.82 260.398,37.604 L260.398,31.862 C260.398,31.862 261.388,30.71 262.954,30.71 C264.178,30.71 264.718,31.448 264.718,33.032 L264.718,37.604 C264.718,37.82 264.898,38 265.114,38 L265.654,38 C265.852,38 266.05,37.82 266.05,37.604 L266.05,33.212 C266.05,31.07 265.456,29.504 263.044,29.504 C261.316,29.504 260.254,30.566 260.254,30.566 L260.074,29.936 C260.038,29.756 259.93,29.684 259.75,29.684 L259.462,29.684 C259.246,29.684 259.066,29.882 259.066,30.08 L259.066,37.604 Z M270.218,30.836 L270.218,35.894 C270.218,37.19 270.542,38.198 272.126,38.198 C273.242,38.198 274.106,37.784 274.466,37.532 C274.682,37.388 274.718,37.262 274.61,36.992 L274.448,36.614 C274.358,36.416 274.25,36.254 273.926,36.452 C273.584,36.668 273.062,36.992 272.288,36.992 C271.82,36.992 271.55,36.668 271.55,35.804 L271.55,30.836 L273.998,30.836 C274.232,30.836 274.412,30.656 274.412,30.44 L274.412,30.08 C274.412,29.846 274.232,29.684 273.998,29.684 L271.55,29.684 L271.55,27.344 C271.55,27.128 271.388,26.93 271.172,26.948 L270.614,26.984 C270.416,27.002 270.218,27.164 270.218,27.38 L270.218,29.684 L269.12,29.684 C268.868,29.684 268.706,29.846 268.706,30.08 L268.706,30.44 C268.706,30.656 268.868,30.836 269.12,30.836 L270.218,30.836 Z M277.5,37.604 C277.5,37.82 277.68,38 277.896,38 L278.436,38 C278.634,38 278.832,37.82 278.832,37.604 L278.832,31.844 C278.832,31.844 279.48,30.782 281.082,30.782 C281.478,30.782 281.784,30.926 281.982,31.016 C282.18,31.106 282.378,31.088 282.468,30.818 L282.702,30.17 C282.9,29.594 281.874,29.504 281.244,29.504 C279.516,29.504 278.688,30.566 278.688,30.566 L278.544,29.972 C278.49,29.774 278.346,29.684 278.184,29.684 L277.896,29.684 C277.68,29.684 277.5,29.882 277.5,30.08 L277.5,37.604 Z M284.638,33.824 C284.638,36.2 286.51,38.198 288.814,38.198 C291.118,38.198 292.99,36.2 292.99,33.824 C292.99,31.484 291.118,29.504 288.814,29.504 C286.51,29.504 284.638,31.484 284.638,33.824 L284.638,33.824 Z M285.952,33.824 C285.952,32.132 287.176,30.71 288.814,30.71 C290.452,30.71 291.658,32.132 291.658,33.824 C291.658,35.552 290.452,36.992 288.814,36.992 C287.176,36.992 285.952,35.552 285.952,33.824 L285.952,33.824 Z M296.348,37.604 C296.348,37.82 296.528,38 296.744,38 L297.284,38 C297.482,38 297.68,37.82 297.68,37.604 L297.68,25.796 C297.68,25.598 297.482,25.4 297.284,25.4 L296.744,25.4 C296.528,25.4 296.348,25.598 296.348,25.796 L296.348,37.604 Z" id="Quality-Control" fill="#FFFFFF"></path>
                <path d="M0.856,24.658 C0.856,24.838 1,25 1.18,25 L5.212,25 C8.686,25 11.53,22.174 11.53,18.682 C11.53,15.226 8.686,12.4 5.212,12.4 L1.18,12.4 C1,12.4 0.856,12.562 0.856,12.742 L0.856,24.658 Z M2.224,23.758 L2.224,13.624 L5.05,13.624 C8.002,13.624 10.072,15.73 10.072,18.682 C10.072,21.652 8.002,23.758 5.05,23.758 L2.224,23.758 Z M14.276,20.842 C14.276,23.218 15.788,25.198 18.308,25.198 C19.748,25.198 20.846,24.64 21.35,24.244 C21.656,24.01 21.584,23.92 21.422,23.668 L21.206,23.362 C20.99,23.038 20.864,23.11 20.576,23.308 C20.108,23.614 19.424,23.992 18.326,23.992 C16.814,23.992 15.644,22.534 15.608,21.148 L21.656,21.148 C21.836,21.148 22.016,21.004 22.034,20.788 C22.052,20.644 22.07,20.428 22.07,20.284 C22.07,18.106 20.486,16.504 18.308,16.504 C15.788,16.504 14.276,18.502 14.276,20.842 L14.276,20.842 Z M15.626,20.086 C15.788,18.79 16.904,17.71 18.308,17.71 C19.73,17.71 20.702,18.862 20.738,20.086 L15.626,20.086 Z M27.696,24.982 C27.732,25.09 27.858,25.198 28.038,25.198 L28.146,25.198 C28.344,25.198 28.452,25.09 28.488,24.982 L32.07,17.152 C32.178,16.9 32.07,16.684 31.746,16.684 L31.17,16.684 C31.026,16.684 30.9,16.774 30.846,16.918 L28.11,23.038 L28.074,23.038 L25.5,16.918 C25.446,16.774 25.32,16.684 25.122,16.684 L24.492,16.684 C24.186,16.684 24.06,16.9 24.186,17.152 L27.696,24.982 Z M34.204,20.842 C34.204,23.218 35.716,25.198 38.236,25.198 C39.676,25.198 40.774,24.64 41.278,24.244 C41.584,24.01 41.512,23.92 41.35,23.668 L41.134,23.362 C40.918,23.038 40.792,23.11 40.504,23.308 C40.036,23.614 39.352,23.992 38.254,23.992 C36.742,23.992 35.572,22.534 35.536,21.148 L41.584,21.148 C41.764,21.148 41.944,21.004 41.962,20.788 C41.98,20.644 41.998,20.428 41.998,20.284 C41.998,18.106 40.414,16.504 38.236,16.504 C35.716,16.504 34.204,18.502 34.204,20.842 L34.204,20.842 Z M35.554,20.086 C35.716,18.79 36.832,17.71 38.236,17.71 C39.658,17.71 40.63,18.862 40.666,20.086 L35.554,20.086 Z M45.266,24.604 C45.266,24.82 45.446,25 45.662,25 L46.202,25 C46.4,25 46.598,24.82 46.598,24.604 L46.598,12.796 C46.598,12.598 46.4,12.4 46.202,12.4 L45.662,12.4 C45.446,12.4 45.266,12.598 45.266,12.796 L45.266,24.604 Z M49.956,20.824 C49.956,23.2 51.828,25.198 54.132,25.198 C56.436,25.198 58.308,23.2 58.308,20.824 C58.308,18.484 56.436,16.504 54.132,16.504 C51.828,16.504 49.956,18.484 49.956,20.824 L49.956,20.824 Z M51.27,20.824 C51.27,19.132 52.494,17.71 54.132,17.71 C55.77,17.71 56.976,19.132 56.976,20.824 C56.976,22.552 55.77,23.992 54.132,23.992 C52.494,23.992 51.27,22.552 51.27,20.824 L51.27,20.824 Z M62.89,24.514 C62.89,24.514 63.808,25.198 65.194,25.198 C67.48,25.198 69.118,23.272 69.118,20.842 C69.118,18.466 67.516,16.504 65.248,16.504 C63.754,16.504 62.746,17.35 62.746,17.35 L62.62,16.954 C62.53,16.738 62.476,16.684 62.278,16.684 L61.972,16.684 C61.756,16.684 61.576,16.882 61.576,17.08 L61.576,28.888 C61.576,29.104 61.756,29.284 61.972,29.284 L62.494,29.284 C62.692,29.284 62.89,29.104 62.89,28.888 L62.89,24.514 Z M62.89,23.272 L62.89,18.718 C62.89,18.718 63.754,17.71 65.086,17.71 C66.76,17.71 67.768,19.204 67.768,20.824 C67.768,22.642 66.598,23.992 64.996,23.992 C63.844,23.992 62.89,23.272 62.89,23.272 L62.89,23.272 Z" id="Develop" fill="#FFFFFF"></path>
            </g>
            <g id="3" transform="translate(122.000000, 0.000000)">
                <use id="Shape" stroke="#737A7E" mask="url(#mask-3)" stroke-width="4" xlink:href="#path-2"></use>
                <path d="M23.742,36.732 C24.386,37.432 26.01,39.28 29.538,39.28 C33.542,39.28 35.95,36.9 35.95,33.624 C35.95,31.048 33.85,29.592 32.478,29.032 L32.478,28.948 C33.794,28.332 35.474,26.596 35.474,24.384 C35.474,21.136 33.01,19.12 29.51,19.12 C26.374,19.12 24.302,21.668 24.302,21.668 C24.106,21.864 24.078,22.228 24.302,22.424 L25.002,22.956 C25.282,23.236 25.562,23.096 25.73,22.9 C26.374,22.172 27.55,21.024 29.51,21.024 C31.582,21.024 33.29,22.396 33.29,24.664 C33.29,26.568 31.806,28.164 28.726,28.164 L27.13,28.164 C26.654,28.164 26.514,28.332 26.514,28.78 L26.514,29.48 C26.514,29.956 26.766,30.124 27.074,30.124 L28.698,30.124 C32.254,30.124 33.794,31.692 33.794,33.848 C33.794,36.2 31.834,37.488 29.65,37.488 C27.158,37.488 25.59,35.836 25.338,35.5 C25.114,35.192 24.89,35.136 24.554,35.36 L23.77,36.032 C23.546,36.2 23.574,36.508 23.742,36.732 L23.742,36.732 Z" fill="#DDDDDD"></path>
            </g>
        </g>
    </g>
</svg>