<?xml version="1.0" encoding="UTF-8" standalone="no"?>
<svg width="252px" height="44px" viewBox="0 0 252 44" version="1.1" xmlns="http://www.w3.org/2000/svg" xmlns:xlink="http://www.w3.org/1999/xlink" xmlns:sketch="http://www.bohemiancoding.com/sketch/ns">
    <!-- Generator: Sketch 3.5.2 (25235) - http://www.bohemiancoding.com/sketch -->
    <title>Group</title>
    <desc>Created with Sketch.</desc>
    <defs></defs>
    <g id="mockups" stroke="none" stroke-width="1" fill="none" fill-rule="evenodd" sketch:type="MSPage">
        <g id="work" sketch:type="MSArtboardGroup" transform="translate(-594.000000, -3833.000000)" fill="#A3A3A3">
            <g id="Lets-get-started" sketch:type="MSLayerGroup" transform="translate(250.000000, 3702.000000)">
                <g id="Group" transform="translate(344.000000, 131.000000)" sketch:type="MSShapeGroup">
                    <g id="cta-email" transform="translate(208.000000, 0.000000)">
                        <path d="M9.707,29.706 L10.707,28.707 C10.888,28.527 11,28.277 11,28 C11,27.448 10.552,27 10,27 C9.724,27 9.474,27.113 9.293,27.293 L8.293,28.293 C8.112,28.475 8,28.725 8,29.001 C8,29.552 8.448,30 9,30 C9.276,30 9.526,29.889 9.707,29.706 L9.707,29.706 Z M16,29.001 C16,28.448 15.552,28 15,28 C14.724,28 14.474,28.113 14.293,28.293 L4.293,38.293 C4.112,38.475 4,38.725 4,39 C4,39.553 4.448,40 5,40 C5.276,40 5.526,39.889 5.707,39.707 L15.707,29.706 C15.888,29.527 16,29.277 16,29.001 L16,29.001 Z M16,33 C15.724,33 15.474,33.113 15.293,33.293 L12.293,36.293 C12.112,36.474 12,36.725 12,37 C12,37.553 12.448,38 13,38 C13.276,38 13.526,37.889 13.707,37.707 L16.707,34.707 C16.888,34.527 17,34.277 17,34 C17,33.448 16.552,33 16,33 L16,33 Z M44,1 C44,0.448 43.552,0 43,0 C42.846,0 42.704,0.041 42.573,0.105 L42.57,0.098 L0.615,18.078 C0.612,18.079 0.609,18.08 0.606,18.081 L0.57,18.098 L0.573,18.104 C0.237,18.265 0,18.603 0,19 C0,19.454 0.308,19.823 0.723,19.945 L0.718,19.96 L17.238,26.763 L24.04,43.282 L24.056,43.278 C24.178,43.692 24.546,44 25,44 C25.398,44 25.735,43.764 25.896,43.427 L25.903,43.431 L25.918,43.393 C25.92,43.391 25.921,43.388 25.922,43.385 L43.903,1.431 L43.892,1.425 C43.955,1.296 44,1.155 44,1 L44,1 Z M3.574,18.985 L38.622,3.963 L17.76,24.827 L3.574,18.985 L3.574,18.985 Z M25.016,40.427 L19.174,26.24 L40.037,5.378 L25.016,40.427 L25.016,40.427 Z"></path>
                    </g>
                    <g id="cta-chat" transform="translate(104.000000, 2.000000)">
                        <path d="M44,13.5 C44,6.045 36.837,0 28,0 C21.4,0 15.736,3.373 13.291,8.188 C14.08,8.087 14.883,8.021 15.701,8.011 C18.078,4.434 22.699,2 28,2 C35.72,2 42,7.159 42,13.5 C42,16.588 40.512,19.492 37.809,21.68 C37.185,22.186 36.923,23.015 37.144,23.784 L37.976,26.695 L33.841,25.104 C33.76,25.781 33.61,26.44 33.431,27.09 L41,30 L39.066,23.234 C42.102,20.778 44,17.329 44,13.5 M16,10 C7.164,10 0,16.045 0,23.5 C0,27.33 1.898,30.778 4.934,33.235 L3,40 L11.969,36.551 C13.259,36.835 14.603,37 16,37 C24.836,37 32,30.956 32,23.5 C32,16.045 24.836,10 16,10 M16,35 C14.827,35 13.615,34.865 12.397,34.598 C12.256,34.566 12.111,34.551 11.969,34.551 C11.725,34.551 11.481,34.596 11.25,34.684 L6.024,36.694 L6.856,33.784 C7.076,33.013 6.815,32.185 6.191,31.681 C3.488,29.492 2,26.589 2,23.5 C2,17.159 8.28,12 16,12 C23.72,12 30,17.159 30,23.5 C30,29.841 23.72,35 16,35"></path>
                    </g>
                    <g id="cta-phone">
                        <path d="M43.999,34.984 L43.984,34.984 C43.984,34.156 43.648,33.407 43.106,32.863 C42.946,32.703 42.765,32.568 42.572,32.448 L34.106,25.863 C33.562,25.32 32.813,24.984 31.984,24.984 C31.306,24.984 30.687,25.219 30.187,25.6 L27.824,27.98 L27.818,27.975 C27.452,28.384 26.926,28.647 26.334,28.647 C25.658,28.647 25.062,28.309 24.699,27.795 C24.687,27.815 24.67,27.833 24.657,27.854 C21.389,25.482 18.493,22.628 16.125,19.356 C16.148,19.341 16.169,19.323 16.192,19.308 C15.671,18.943 15.328,18.341 15.328,17.656 C15.328,17.044 15.607,16.502 16.038,16.133 L16.035,16.13 L18.386,13.796 C18.768,13.298 19,12.679 19,12 C19,11.172 18.664,10.422 18.121,9.879 L11.536,1.412 C11.416,1.221 11.281,1.039 11.121,0.879 C10.578,0.336 9.828,0 9,0 C5,0 0,4.701 0,10.5 C0,12.106 0.372,13.622 1.016,14.984 L0.983,15.018 C7,27 17,37 28.983,43.017 L29.016,42.984 C30.377,43.63 31.893,44 33.5,44 C39.299,44 44,39 44,35 C44,34.995 43.999,34.991 43.999,34.984 M33.5,42 C32.246,42 31.025,41.723 29.872,41.177 C29.764,41.126 29.652,41.086 29.539,41.057 C18.171,35.257 8.751,25.839 2.95,14.473 C2.918,14.356 2.877,14.24 2.824,14.13 C2.277,12.974 2,11.754 2,10.5 C2,5.65 6.247,2 9,2 C9.36,2 9.598,2.184 9.707,2.294 C9.732,2.319 9.777,2.371 9.843,2.477 C9.878,2.533 9.917,2.588 9.957,2.641 L16.542,11.107 C16.593,11.173 16.648,11.234 16.707,11.294 C16.816,11.402 17,11.641 17,12 C17,12.177 16.952,12.344 16.855,12.497 L14.626,14.709 C14.616,14.72 14.606,14.729 14.597,14.74 C13.788,15.5 13.328,16.553 13.328,17.656 C13.328,18.69 13.729,19.674 14.426,20.412 C14.452,20.451 14.477,20.491 14.505,20.528 C16.963,23.925 19.983,26.934 23.483,29.473 C23.51,29.492 23.537,29.511 23.565,29.529 C24.304,30.238 25.295,30.646 26.334,30.646 C27.378,30.646 28.385,30.229 29.132,29.494 C29.17,29.462 29.208,29.426 29.244,29.389 L31.484,27.132 C31.641,27.035 31.809,26.984 31.984,26.984 C32.344,26.984 32.582,27.168 32.691,27.277 C32.75,27.336 32.812,27.391 32.877,27.443 L41.344,34.027 C41.398,34.069 41.455,34.108 41.513,34.145 C41.619,34.211 41.667,34.254 41.691,34.277 C41.801,34.387 41.984,34.624 41.984,34.984 C41.984,35.052 41.988,35.119 41.995,35.186 C41.838,37.94 38.243,42 33.5,42"></path>
                    </g>
                </g>
            </g>
        </g>
    </g>
</svg>
