<?xml version="1.0" encoding="UTF-8" standalone="no"?>
<svg width="22px" height="22px" viewBox="0 0 22 22" version="1.1" xmlns="http://www.w3.org/2000/svg" xmlns:xlink="http://www.w3.org/1999/xlink" xmlns:sketch="http://www.bohemiancoding.com/sketch/ns">
    <!-- Generator: Sketch 3.3.1 (12005) - http://www.bohemiancoding.com/sketch -->
    <title>clientlogin</title>
    <desc>Created with Sketch.</desc>
    <defs></defs>
    <g id="Page-1" stroke="none" stroke-width="1" fill="none" fill-rule="evenodd" sketch:type="MSPage">
        <g id="Main-Frames" sketch:type="MSArtboardGroup" transform="translate(-1168.000000, -20.000000)" fill="#FFFFFF">
            <g id="Frame-1" sketch:type="MSLayerGroup" transform="translate(-133.000000, -268.000000)">
                <g id="site-header" transform="translate(133.000000, 268.000000)" sketch:type="MSShapeGroup">
                    <g id="clientlogin" transform="translate(1168.000000, 20.000000)">
                        <path d="M11,0 C4.925,0 0,4.92488807 0,10.99975 C0,17.0746119 4.925,22 11,22 C17.075,22 22,17.0746119 22,10.99975 C22,4.92488807 17.075,0 11,0 L11,0 Z M11,20.9995227 C8.51,20.9995227 6.2385,20.0845435 4.4885,18.5795777 C5.836,17.4011045 6.48,17.0776119 7.968,16.4206268 C9.6915,15.6596441 10.278,14.3106748 9.577,12.7197109 C9.451,12.4347174 9.3045,12.1697234 9.15,11.8897298 C8.618,10.9307516 8,9.84377628 8,7.35933274 C8,4.42139951 9.395,4.39890002 10.503,4.38040045 C11.289,4.36690075 11.673,4.23090384 11.9805,4.12240631 C12.186,4.04890798 12.31,4.00540897 12.5365,4.00540897 C13.463,4.00540897 14.4845,4.91988818 14.4845,7.4843299 C14.4845,10.0717711 14.0965,10.7082566 13.5065,11.7617327 C13.351,12.0392264 13.1825,12.3397196 13.005,12.7007113 C12.6605,13.3986955 12.591,14.0536806 12.7975,14.6466671 C13.0625,15.4056499 13.7525,16.0281357 14.9685,16.6036226 C15.965,17.073612 17.0095,17.9935911 17.571,18.525579 C15.8125,20.062044 13.518,20.9995227 11,20.9995227 L11,20.9995227 Z M18.291,17.8290948 C17.6935,17.2581078 16.5425,16.2406309 15.3965,15.6986432 C14.4515,15.2526533 13.91,14.8001636 13.741,14.3171746 C13.625,13.9816822 13.6765,13.597691 13.9015,13.1432013 C14.071,12.7997091 14.231,12.5137156 14.379,12.2507216 C15.0025,11.1372469 15.4845,10.3332652 15.4845,7.4843299 C15.4845,3.2209268 13.0235,3.00543169 12.5365,3.00543169 C12.1375,3.00543169 11.888,3.09392968 11.6465,3.17942774 C11.3825,3.2734256 11.109,3.36992341 10.4865,3.38042317 C9.36,3.39892275 7,3.43842185 7,7.35933274 C7,10.1027704 7.714,11.3622418 8.2755,12.3747188 C8.419,12.6337129 8.5545,12.8792073 8.662,13.1237017 C9.1395,14.2071771 8.791,14.9646599 7.564,15.5056476 C6.014,16.190632 5.284,16.5471239 3.7615,17.8870935 C2.0545,16.0931342 1,13.6716893 1,10.99975 C1,5.47737551 5.477,1.00047726 11,1.00047726 C16.523,1.00047726 21,5.47737551 21,10.99975 C21,13.6436899 19.9665,16.0411354 18.291,17.8290948 L18.291,17.8290948 Z"></path>
                    </g>
                </g>
            </g>
        </g>
    </g>
</svg>
