<?xml version="1.0" standalone="no"?>
<!DOCTYPE svg PUBLIC "-//W3C//DTD SVG 20010904//EN"
 "http://www.w3.org/TR/2001/REC-SVG-20010904/DTD/svg10.dtd">
<svg version="1.0" xmlns="http://www.w3.org/2000/svg"
 width="700.000000pt" height="700.000000pt" viewBox="0 0 700.000000 700.000000"
 preserveAspectRatio="xMidYMid meet">
<metadata>
Created by potrace 1.11, written by Peter Selinger 2001-2013
</metadata>
<g transform="translate(0.000000,700.000000) scale(0.100000,-0.100000)"
fill="#000000" stroke="none">
<path d="M2118 4854 c-2 -2 -29 -6 -59 -10 -117 -13 -294 -74 -413 -141 -258
-146 -458 -379 -565 -661 -22 -56 -38 -102 -36 -102 2 0 -2 -21 -10 -47 -22
-79 -27 -121 -30 -278 -3 -103 1 -174 11 -225 25 -132 30 -148 61 -235 142
-386 463 -683 853 -785 201 -53 366 -54 622 -5 102 20 289 109 409 195 77 55
189 155 189 168 0 4 -75 83 -165 175 l-164 169 -43 -40 c-83 -78 -104 -93
-193 -137 -127 -62 -196 -78 -340 -78 -140 0 -211 15 -330 73 -159 77 -274
193 -355 355 -258 520 110 1125 685 1127 50 0 101 -2 115 -5 78 -17 120 -28
161 -44 75 -30 178 -95 238 -150 31 -29 59 -53 62 -53 8 0 329 330 329 339 0
12 -89 93 -170 155 -135 104 -363 201 -545 232 -44 7 -311 14 -317 8z"/>
<path d="M5018 4854 c-2 -1 -26 -6 -53 -9 -122 -16 -256 -59 -377 -120 -295
-150 -491 -380 -638 -750 l-48 -120 -132 0 c-109 -1 -133 -3 -141 -17 -12 -22
-116 -362 -134 -438 -2 -8 -6 -27 -10 -41 l-6 -25 133 -1 c154 -1 144 14 96
-133 -100 -309 -209 -500 -393 -686 -127 -128 -236 -210 -372 -281 -29 -15
-53 -30 -53 -33 0 -3 35 -82 78 -176 43 -93 87 -188 97 -211 10 -24 24 -43 31
-43 25 0 190 95 293 168 122 86 271 223 367 337 90 105 211 291 253 387 10 24
30 69 45 100 57 123 125 326 221 658 99 342 171 521 252 633 150 206 373 320
625 319 152 -1 235 -25 409 -118 14 -8 56 -41 92 -74 36 -33 68 -60 71 -60 3
0 80 75 171 168 l166 167 -75 72 c-161 152 -364 258 -596 309 -65 14 -362 29
-372 18z"/>
</g>
</svg>
