<?xml version="1.0" standalone="no"?>
<!DOCTYPE svg PUBLIC "-//W3C//DTD SVG 20010904//EN"
 "http://www.w3.org/TR/2001/REC-SVG-20010904/DTD/svg10.dtd">
<svg version="1.0" xmlns="http://www.w3.org/2000/svg"
 width="700.000000pt" height="700.000000pt" viewBox="0 0 700.000000 700.000000"
 preserveAspectRatio="xMidYMid meet">
<metadata>
Created by potrace 1.11, written by Peter Selinger 2001-2013
</metadata>
<g transform="translate(0.000000,700.000000) scale(0.100000,-0.100000)"
fill="#000000" stroke="none">
<path d="M1560 5209 c-321 -29 -579 -129 -870 -336 -87 -62 -260 -236 -335
-338 -194 -263 -300 -532 -341 -870 -8 -66 -8 -300 -1 -350 4 -22 9 -60 12
-85 19 -144 89 -369 160 -511 227 -454 620 -777 1099 -903 89 -24 122 -30 256
-46 84 -11 346 -4 430 10 349 60 637 204 905 453 l80 74 -232 234 -231 233
-69 -65 c-146 -137 -319 -228 -518 -270 -67 -14 -273 -18 -350 -7 -209 31
-415 133 -570 284 -177 173 -277 369 -320 629 -7 43 -8 271 -1 283 2 4 7 28
10 54 4 27 20 88 36 137 139 426 520 719 955 734 284 10 546 -89 760 -286 l69
-65 124 127 c68 69 171 174 229 232 l106 107 -79 75 c-216 206 -455 341 -739
417 -38 10 -86 22 -105 25 -19 3 -60 10 -90 15 -73 13 -286 18 -380 9z"/>
<path d="M5495 5208 c-236 -23 -507 -115 -710 -240 -143 -89 -298 -223 -410
-353 -125 -145 -255 -383 -360 -660 l-42 -110 -181 0 c-100 -1 -184 -4 -188
-8 -13 -12 -47 -125 -210 -688 -4 -14 16 -16 176 -16 99 0 183 -2 186 -6 13
-12 -115 -380 -183 -527 -19 -41 -39 -84 -43 -95 -10 -26 -120 -208 -129 -215
-4 -3 -22 -27 -41 -54 -148 -218 -445 -474 -706 -610 l-71 -37 119 -257 c66
-141 128 -276 139 -299 10 -24 20 -43 22 -43 6 0 153 77 197 103 87 50 264
173 346 239 96 77 301 279 375 368 46 55 209 276 209 283 0 2 31 59 69 125
133 237 234 507 396 1062 32 107 70 238 85 290 63 215 152 440 219 555 79 137
204 276 316 352 103 70 261 141 345 157 14 2 48 9 75 15 67 15 201 19 289 9
239 -28 439 -123 617 -294 l57 -54 231 233 231 232 -77 73 c-208 198 -470 351
-703 412 -19 5 -53 14 -75 19 -145 38 -402 55 -570 39z"/>
</g>
</svg>
