<svg xmlns="http://www.w3.org/2000/svg" width="207" height="142" viewBox="0 0 207 142">
  <g fill-rule="evenodd" transform="translate(0 22)">
    <path d="M9.37186813,111.126214 L23.1567033,111.126214 L23.1567033,104.032466 L20.9456703,104.032466 L20.9456703,108.734136 L14.3125714,108.734136 L14.3125714,94.959068 L17.3970989,94.959068 L17.3970989,92.5669903 L9.48105495,92.5669903 L9.48105495,94.959068 L11.6920879,94.959068 L11.6920879,108.734136 L9.37186813,108.734136 L9.37186813,111.126214 Z M28.0883077,111.126214 L39.8258901,111.126214 L39.8258901,108.926602 L35.240044,108.926602 L35.240044,98.4784466 L28.0883077,98.4784466 L28.0883077,100.678058 L32.8379341,100.678058 L32.8379341,108.926602 L28.0883077,108.926602 L28.0883077,111.126214 Z M32.4830769,94.7940971 L35.5949011,94.7940971 L35.5949011,90.9172816 L32.4830769,90.9172816 L32.4830769,94.7940971 Z M50.1895385,118 C46.4225934,118 44.4299341,114.728078 44.4299341,110.933748 C44.4299341,107.496854 45.8766593,103.702524 48.8792967,101.227961 C47.8966154,99.5232621 47.1323077,97.8185631 47.1323077,95.9488932 C47.1323077,93.4193398 48.579033,90.5048544 52.9192088,90.5048544 C54.3932308,90.5048544 56.9045275,90.8897864 57.8872088,91.577165 L57.2593846,93.9417476 C56.4404835,93.4743301 54.5297143,92.9794175 53.1921758,92.9794175 C51.0084396,92.9794175 49.861978,94.2991845 49.861978,96.1963495 C49.861978,97.4336311 50.326022,98.6159223 50.9811429,99.8532039 C52.6735385,99.0008544 54.6934945,98.4784466 57.0683077,98.4784466 L57.0683077,100.678058 C55.1302418,100.678058 53.4924396,101.06299 52.1276044,101.722874 C53.8472967,104.417398 55.8945495,107.359379 55.8945495,111.291184 C55.8945495,115.607922 53.4378462,118 50.1895385,118 Z M53.3832527,111.263689 C53.3832527,108.156738 51.6908571,105.599689 50.0530549,103.097631 C47.8147253,105.049786 46.832044,107.909282 46.832044,110.383845 C46.832044,113.270835 48.114989,115.580427 50.2714286,115.580427 C51.9911209,115.580427 53.3832527,114.095689 53.3832527,111.263689 Z M74.1469451,102.02532 C74.1469451,105.269748 70.7894505,106.507029 65.0571429,106.589515 C65.7122637,108.459184 67.4592527,109.201553 69.2608352,109.201553 C70.652967,109.201553 72.1815824,108.761631 73.4918242,107.63433 L74.2015385,109.806447 C73.0550769,110.741282 71.2807912,111.538641 69.0151648,111.538641 C65.8214505,111.538641 62.3547692,109.586485 62.3547692,104.994796 C62.3547692,101.200466 65.1663297,98.0660194 69.2062418,98.0660194 C71.9905055,98.0660194 74.1469451,99.7157282 74.1469451,102.02532 Z M69.2062418,100.210641 C67.1043956,100.210641 64.947956,101.750369 64.7841758,104.499883 C69.370022,104.389903 71.7721319,103.647534 71.7721319,101.997825 C71.7721319,101.008 70.652967,100.210641 69.2062418,100.210641 Z M109.013934,101.392932 L100.060615,101.392932 L100.060615,94.959068 L110.487956,94.959068 L110.487956,92.5669903 L97.4401319,92.5669903 L97.4401319,111.126214 L100.060615,111.126214 L100.060615,103.78501 L109.013934,103.78501 L109.013934,101.392932 Z M115.528747,107.661825 L114.76444,105.792155 C115.883604,105.324738 116.948176,104.74734 117.958154,104.114951 L117.958154,96.3613204 C117.958154,92.4570097 119.868923,90.5048544 122.38022,90.5048544 C124.618549,90.5048544 126.392835,92.2095534 126.392835,95.0690485 C126.392835,98.5884272 123.936132,102.355262 120.360264,105.049786 L120.360264,105.187262 C120.360264,108.294214 121.342945,109.201553 122.926154,109.201553 C124.154505,109.201553 125.573934,108.871612 127.293626,107.606835 L127.894154,109.888932 C126.720396,110.686291 124.94611,111.538641 122.653187,111.538641 C119.81433,111.538641 118.258418,109.971417 117.985451,106.534524 C117.193846,106.974447 116.374945,107.359379 115.528747,107.661825 Z M120.360264,96.7737476 L120.360264,102.217786 C122.680484,100.04567 124.181802,97.4611262 124.181802,95.2340194 C124.181802,93.639301 123.362901,92.7869515 122.434813,92.7869515 C121.315648,92.7869515 120.360264,93.6667961 120.360264,96.7737476 Z M138.558066,98.0660194 C142.625275,98.0660194 144.945495,101.117981 144.945495,104.80233 C144.945495,108.48668 142.597978,111.538641 138.530769,111.538641 C134.46356,111.538641 132.116044,108.48668 132.116044,104.829825 C132.116044,101.145476 134.46356,98.0660194 138.558066,98.0660194 Z M142.488791,104.829825 C142.488791,101.997825 140.632615,100.403107 138.558066,100.403107 C136.428923,100.403107 134.545451,102.052816 134.545451,104.829825 C134.545451,107.551845 136.37433,109.201553 138.530769,109.201553 C140.605319,109.201553 142.488791,107.68932 142.488791,104.829825 Z M154.926989,100.210641 L153.207297,108.679146 L153.070813,108.679146 L150.85978,98.4784466 L148.13011,98.4784466 L151.351121,111.126214 L154.408352,111.126214 L155.964264,104.884816 L156.100747,104.884816 L157.656659,111.126214 L160.71389,111.126214 L163.934901,98.4784466 L161.232527,98.4784466 L159.103385,108.679146 L158.966901,108.679146 L157.192615,100.210641 L154.926989,100.210641 Z M179.239253,102.02532 C179.239253,105.269748 175.881758,106.507029 170.149451,106.589515 C170.804571,108.459184 172.55156,109.201553 174.353143,109.201553 C175.745275,109.201553 177.27389,108.761631 178.584132,107.63433 L179.293846,109.806447 C178.147385,110.741282 176.373099,111.538641 174.107473,111.538641 C170.913758,111.538641 167.447077,109.586485 167.447077,104.994796 C167.447077,101.200466 170.258637,98.0660194 174.298549,98.0660194 C177.082813,98.0660194 179.239253,99.7157282 179.239253,102.02532 Z M174.298549,100.210641 C172.196703,100.210641 170.040264,101.750369 169.876484,104.499883 C174.46233,104.389903 176.86444,103.647534 176.86444,101.997825 C176.86444,101.008 175.745275,100.210641 174.298549,100.210641 Z M185.481099,111.126214 L195.144132,111.126214 L195.144132,108.926602 L190.503692,108.926602 L190.503692,107.249398 C190.503692,104.004971 191.786637,100.568078 195.007648,100.568078 C195.662769,100.568078 196.618154,100.733049 197.409758,101.502913 L197.873802,99.0833398 C197.164088,98.2859806 195.717363,98.0660194 194.871165,98.0660194 C192.469055,98.0660194 190.803956,99.7157282 190.039648,102.437748 L189.930462,102.437748 L189.630198,98.4784466 L185.481099,98.4784466 L185.481099,100.485592 L187.937802,100.485592 L187.937802,108.926602 L185.481099,108.926602 L185.481099,111.126214 Z"/>
    <path fill-rule="nonzero" d="M201.333942,63.0097087 L201.333942,5.72815534 L190.001825,5.72815534 L190.001825,0 L201.333942,0 L207,0 L207,68.7378641 L201.333942,68.7378641 L190.001825,68.7378641 L190.001825,63.0097087 L201.333942,63.0097087 Z M5.66605839,68.7378641 L0,68.7378641 L0,0 L5.66605839,0 L16.9981752,0 L16.9981752,5.72815534 L5.66605839,5.72815534 L5.66605839,63.0097087 L16.9981752,63.0097087 L16.9981752,68.7378641 L5.66605839,68.7378641 Z M110.305974,34.368932 C113.734918,36.3752031 116.36632,38.8257455 118.252373,41.643862 C121.286548,46.1774884 122.049495,50.9339249 121.5466,55.0553281 C121.495865,55.4711199 121.440971,55.7875325 121.395673,55.993574 C121.056201,57.5376812 119.542827,58.5112145 118.015459,58.1680216 C116.488091,57.8248287 115.525112,56.2948697 115.872428,54.7046213 C115.888801,54.6102434 115.906227,54.4928534 115.923166,54.3540319 C116.272233,51.4933011 115.726629,48.0918404 113.559541,44.8538051 C111.547624,41.847623 108.298988,39.3116021 103.52064,37.4261099 C98.7422909,39.3116021 95.4936556,41.8476231 93.4817383,44.8538051 C91.3146508,48.0918404 90.7690459,51.4933011 91.1181134,54.3540319 C91.1350524,54.4928534 91.152478,54.6102434 91.1766951,54.7507625 C91.5161676,56.2948697 90.553188,57.8248287 89.0258199,58.1680216 C87.4984519,58.5112145 85.9850787,57.5376812 85.6456062,55.993574 C85.6003079,55.7875325 85.5454147,55.4711199 85.4946796,55.0553281 C84.9917844,50.9339249 85.7547318,46.1774884 88.7889064,41.643862 C90.6749591,38.8257455 93.3063613,36.3752031 96.7353056,34.368932 C93.3063613,32.362661 90.6749591,29.9121186 88.7889064,27.094002 C85.7547318,22.5603757 84.9917844,17.8039392 85.4946796,13.682536 C85.5454147,13.2667442 85.6003079,12.9503315 85.6456062,12.74429 C85.9850787,11.2001829 87.4984519,10.2266496 89.0258199,10.5698425 C90.553188,10.9130354 91.5161676,12.4429944 91.1688513,14.0332428 C91.152478,14.1276206 91.1350524,14.2450107 91.1181134,14.3838321 C90.7690459,17.244563 91.3146508,20.6460236 93.4817383,23.884059 C95.4936556,26.890241 98.7422909,29.426262 103.52064,31.3117541 C108.298989,29.426262 111.547624,26.890241 113.559541,23.884059 C115.726629,20.6460236 116.272233,17.244563 115.923166,14.3838321 C115.906227,14.2450107 115.888801,14.1276206 115.864584,13.9871015 C115.525112,12.4429944 116.488091,10.9130354 118.015459,10.5698425 C119.542827,10.2266496 121.056201,11.2001829 121.395673,12.74429 C121.440971,12.9503315 121.495865,13.2667442 121.5466,13.682536 C122.049495,17.8039392 121.286548,22.5603757 118.252373,27.094002 C116.36632,29.9121186 113.734918,32.362661 110.305974,34.368932 Z M161.104927,40.3950142 L175.332634,54.0594676 C176.466996,55.1489222 176.512976,56.96176 175.435331,58.1085543 C174.357687,59.2553485 172.564502,59.3018316 171.43014,58.212377 L158.271898,45.5750505 L145.113656,58.212377 C143.979294,59.3018316 142.186108,59.2553485 141.108464,58.1085543 C140.03082,56.96176 140.076799,55.1489222 141.211161,54.0594676 L155.438869,40.3950142 L155.438869,30.0769904 L140.543832,26.0618905 C139.032012,25.654365 138.133223,24.0849967 138.536331,22.5566082 C138.939439,21.0282198 140.491794,20.1195808 142.003614,20.5271063 L155.438869,24.148708 L155.438869,12.6019417 C155.438869,11.0201553 156.707259,9.73786408 158.271898,9.73786408 C159.836537,9.73786408 161.104927,11.0201553 161.104927,12.6019417 L161.104927,24.1495037 L174.540032,20.5271467 C176.05183,20.1195376 177.604234,21.0280907 178.007425,22.5564569 C178.410615,24.084823 177.511911,25.654241 176.000114,26.0618501 L161.104927,30.0778725 L161.104927,40.3950142 Z M45.895073,32.0776699 L45.895073,30.0769904 L31.000036,26.0618905 C29.4882163,25.654365 28.5894276,24.0849967 28.9925353,22.5566082 C29.3956429,21.0282198 30.9479983,20.1195808 32.459818,20.5271063 L45.895073,24.148708 L45.895073,21.9783217 L37.9776458,17.8161387 C36.5894719,17.0863772 36.04931,15.3571183 36.7711604,13.9537308 C37.4930108,12.5503433 39.2035235,12.0042616 40.5916973,12.7340231 L45.895073,15.5220019 L45.895073,12.6019417 C45.895073,11.0201553 47.1634634,9.73786408 48.7281022,9.73786408 C50.292741,9.73786408 51.5611314,11.0201553 51.5611314,12.6019417 L51.5611314,15.5220019 L56.8645071,12.7340231 C58.2526809,12.0042616 59.9631935,12.5503433 60.6850439,13.9537308 C61.4068944,15.3571183 60.8667325,17.0863772 59.4785586,17.8161387 L51.5611314,21.9783217 L51.5611314,24.1495037 L64.9962367,20.5271467 C66.5080344,20.1195376 68.0604389,21.0280907 68.4636292,22.5564569 C68.8668195,24.084823 67.9681157,25.654241 66.456318,26.0618501 L51.5611314,30.0778725 L51.5611314,32.0776699 L69.1259124,32.0776699 C70.6905512,32.0776699 71.9589416,33.3599612 71.9589416,34.9417476 C71.9589416,36.523534 70.6905512,37.8058252 69.1259124,37.8058252 L51.5611314,37.8058252 L51.5611314,56.1359223 C51.5611314,57.7177087 50.292741,59 48.7281022,59 C47.1634634,59 45.895073,57.7177087 45.895073,56.1359223 L45.895073,37.8058252 L28.330292,37.8058252 C26.7656531,37.8058252 25.4972628,36.523534 25.4972628,34.9417476 C25.4972628,33.3599612 26.7656531,32.0776699 28.330292,32.0776699 L45.895073,32.0776699 Z"/>
  </g>
</svg>
