<?xml version="1.0" encoding="UTF-8"?>
<svg width="80px" height="80px" viewBox="0 0 80 80" version="1.1" xmlns="http://www.w3.org/2000/svg" xmlns:xlink="http://www.w3.org/1999/xlink">
    <!-- Generator: Sketch 40.3 (33839) - http://www.bohemiancoding.com/sketch -->
    <title>avatar</title>
    <desc>Created with Sketch.</desc>
    <defs></defs>
    <g id="mockups" stroke="none" stroke-width="1" fill="none" fill-rule="evenodd">
        <g id="avatar">
            <circle id="Oval-22" fill="#737A7E" cx="40" cy="40" r="40"></circle>
            <g id="logo-carousel" transform="translate(8.000000, 22.000000)" fill="#FFFFFF">
                <path d="M7.20319314,24.8838665 L2.92798742,21.4031222 C2.54695974,21.0929009 2.63653437,20.873776 3.130666,20.9158165 L26.4800924,22.9023736 C26.9799258,22.9448991 27.4029489,23.3813723 27.4376762,23.8783472 L27.4103238,23.4869126 C27.445267,23.9869783 27.0798485,24.4650083 26.5946211,24.561526 L17.614514,26.3477804 C16.5788664,23.7077545 13.7315749,22.1119118 10.8034075,22.6943605 C9.3195432,22.9895195 8.06893517,23.7935369 7.20319314,24.8838665 Z M40.9392266,21.535835 C42.245434,20.752711 43.1663791,19.2621532 43.1460715,17.7361938 L43.1016404,14.3975335 C43.0949957,13.8982347 42.7775948,13.2488362 42.3926139,12.9401742 L36.6523205,8.33784058 C36.2710143,8.0321248 35.5587684,7.85782397 35.0696824,7.95510924 L28.6136498,9.23929395 L28.8603154,24.1826001 L29.3318727,24.0888016 C29.2838997,21.2578496 31.30229,18.6998389 34.2266113,18.1181552 C37.0665594,17.5532544 39.8304316,19.037368 40.9392266,21.535835 Z M30.3602334,11.1205831 C30.3512469,10.8775255 30.5418901,10.6411181 30.7783073,10.5940918 L34.8040172,9.79332831 C35.0438996,9.74561274 35.3947444,9.83336488 35.5865837,9.98846517 L40.7367183,14.1523017 C40.9290354,14.3077884 40.891362,14.4723402 40.6400922,14.5223208 L39.4321861,14.7625883 C39.1865038,14.8114576 38.8339301,14.732765 38.6291974,14.5748752 L36.7697693,13.1408849 C36.5719731,12.9883446 36.2138867,12.9040194 35.9649216,12.9535416 L30.9151327,13.9580071 C30.6684238,14.0070805 30.4610136,13.8463618 30.4521551,13.6067678 L30.3602334,11.1205831 Z M0.0247334033,17.0170179 C0.0105734817,16.5161378 0.397148037,16.0309166 0.88105381,15.9346617 L19.0443386,12.3217598 C19.5314313,12.224871 20.1493151,11.8189626 20.4330836,11.4024219 L23.3576909,7.10942295 C23.6375809,6.69857542 24.2541834,6.28800019 24.7471608,6.1899409 L28.4005934,5.46322797 C28.8880864,5.36625959 29.2624026,5.68196834 29.2362011,6.17690156 L29.2539602,5.84144132 C29.2279606,6.33256074 28.8128563,6.80906863 28.316863,6.90772784 L26.775704,7.21428342 C26.2841591,7.31205778 25.9042636,7.7893735 25.927508,8.28734577 L26.5124718,20.8192271 C26.5355709,21.3140887 26.1596475,21.6793079 25.6585978,21.6336713 L0.985107409,19.3863626 C0.490426646,19.3413062 0.0779703162,18.9001714 0.0637698477,18.3978571 L0.0247334033,17.0170179 Z M12.954907,33.5106789 C15.7545493,32.9537954 17.5807028,30.2732047 17.033735,27.523412 C16.4867672,24.7736192 13.7738037,22.995915 10.9741614,23.5527985 C8.17451911,24.109682 6.3483656,26.7902727 6.89533338,29.5400654 C7.44230117,32.2898582 10.1552647,34.0675624 12.954907,33.5106789 Z M12.2718913,30.076927 C13.1407458,29.9041011 13.7074831,29.0721937 13.5377345,28.2188097 C13.3679858,27.3654258 12.5260316,26.8137245 11.6571771,26.9865504 C10.7883226,27.1593763 10.2215853,27.9912837 10.391334,28.8446677 C10.5610826,29.6980516 11.4030368,30.249753 12.2718913,30.076927 Z M36.3781108,28.9344736 C39.1777531,28.3775902 41.0039066,25.6969994 40.4569388,22.9472067 C39.9099711,20.1974139 37.1970075,18.4197097 34.3973652,18.9765932 C31.5977229,19.5334767 29.7715694,22.2140674 30.3185372,24.9638602 C30.865505,27.7136529 33.5784685,29.4913571 36.3781108,28.9344736 Z M35.6950951,25.5007218 C36.5639496,25.3278959 37.1306869,24.4959884 36.9609383,23.6426044 C36.7911897,22.7892205 35.9492355,22.2375192 35.080381,22.4103451 C34.2115264,22.583171 33.6447891,23.4150785 33.8145378,24.2684624 C33.9842864,25.1218464 34.8262406,25.6735477 35.6950951,25.5007218 Z" id="logo-truck"></path>
                <path d="M53.5029246,15.0439203 L51.4427351,13.2725332 L54.0635366,12.7109341 L55.0656358,10.1995756 L56.4339128,12.5578454 L59.1134337,12.7771275 L57.3382739,14.7962174 L57.9922096,17.4430998 L55.5268235,16.3326963 L53.2514572,17.7492774 L53.5029246,15.0439203 Z M56.5337701,3.64666953 L55.0229645,2.34765234 L56.9448856,1.93581302 L57.6797583,0.0941500841 L58.6831615,1.82354791 L60.6481434,1.98435481 L59.3463595,3.46502077 L59.8259124,5.40606783 L58.0179626,4.59177189 L56.3493607,5.63059805 L56.5337701,3.64666953 Z M46.0338763,8.10447694 L44.7977626,7.04164469 L46.3702435,6.70468525 L46.971503,5.19787012 L47.7924692,6.61283198 L49.4001817,6.74440126 L48.3350858,7.95585522 L48.7274473,9.54398464 L47.2482156,8.87774251 L45.8829959,9.72769119 L46.0338763,8.10447694 Z" id="logo-stars"></path>
            </g>
        </g>
    </g>
</svg>