<?xml version="1.0" encoding="UTF-8"?>
<svg width="202px" height="100px" viewBox="0 0 202 100" version="1.1" xmlns="http://www.w3.org/2000/svg" xmlns:xlink="http://www.w3.org/1999/xlink">
    <!-- Generator: Sketch 40.3 (33839) - http://www.bohemiancoding.com/sketch -->
    <title>masthead-truckadventures</title>
    <desc>Created with Sketch.</desc>
    <defs></defs>
    <g id="mockups" stroke="none" stroke-width="1" fill="none" fill-rule="evenodd">
        <g id="Case-Study" transform="translate(-619.000000, -262.000000)" fill="#FFFFFF">
            <g id="F1">
                <g id="masthead-truckadventures" transform="translate(619.000000, 262.000000)">
                    <g transform="translate(0.000000, 3.000000)">
                        <path d="M14.672,78.72 L0.032,78.72 L0.032,81.72 L5.6,81.72 L5.6,96 L9.104,96 L9.104,81.72 L14.672,81.72 L14.672,78.72 Z M22.904,82.776 C20.888,82.848 19.424,84.096 18.056,84.984 L18.056,82.848 L14.84,82.848 L14.84,96 L18.224,96 L18.224,87.72 C19.904,87.048 21.248,86.52 22.904,86.256 L22.904,82.776 Z M24.68,82.848 L24.68,92.376 C24.68,95.136 26.168,96.288 28.52,96.288 C29.912,96.288 31.472,95.616 33.104,94.632 L33.2,94.632 L33.464,96 L36.368,96 L36.368,82.848 L32.984,82.848 L32.984,92.088 C31.856,92.712 30.512,93.24 29.552,93.24 C28.448,93.24 28.064,92.712 28.064,91.704 L28.064,82.848 L24.68,82.848 Z M45.92,93.36 C43.304,93.36 42.2,91.728 42.2,89.424 C42.2,86.592 43.544,85.512 45.92,85.512 C47.096,85.512 48.32,85.728 49.52,86.088 L49.52,83.136 C48.152,82.728 46.88,82.56 45.368,82.56 C42.128,82.56 38.744,84.024 38.744,89.424 C38.744,94.848 42.128,96.288 45.368,96.288 C46.88,96.288 48.152,96.12 49.52,95.712 L49.52,92.784 C48.32,93.12 47.096,93.36 45.92,93.36 L45.92,93.36 Z M62.768,82.848 L59.384,82.848 L59.384,83.448 C59.384,86.064 57.992,87.168 56.72,87.72 L55.376,88.296 L55.376,77.736 L51.992,77.736 L51.992,96.048 L55.376,96.048 L55.376,91.2 L56.576,90.696 L57.848,93.024 C59.096,95.304 60.776,96.216 62.744,96.216 C63.128,96.216 63.488,96.216 63.848,96.144 L63.848,93.096 C62.504,93.072 61.544,92.544 60.896,91.416 L59.648,89.304 C62.048,87.84 62.768,85.488 62.768,83.28 L62.768,82.848 Z M69.488,96 L73.16,96 L74.288,92.544 L81.104,92.544 L82.208,96 L85.88,96 L80.048,78.696 L75.296,78.696 L69.488,96 Z M77.528,81.672 L77.744,81.672 L80.216,89.496 L75.008,89.496 L77.528,81.672 Z M86.576,89.784 C86.576,94.536 89.096,96.24 91.808,96.24 C93.152,96.24 94.496,95.856 95.744,95.136 C95.792,95.232 96.008,95.928 96.056,96 L98.816,96 L98.816,77.688 L95.456,77.688 L95.456,82.728 C94.736,82.632 93.992,82.56 93.32,82.56 C89.528,82.56 86.576,84.24 86.576,89.784 L86.576,89.784 Z M90.032,89.592 C90.032,86.592 91.16,85.368 93.68,85.368 C94.208,85.368 94.784,85.416 95.432,85.536 L95.432,92.544 C94.424,93.048 93.44,93.36 92.624,93.36 C91.016,93.36 90.032,92.208 90.032,89.592 L90.032,89.592 Z M100.544,82.848 L104.864,96.024 L109.232,96.024 L113.576,82.848 L110.024,82.848 L107.168,92.304 L107.024,92.304 L104.144,82.848 L100.544,82.848 Z M126.224,92.544 C124.76,93 122.96,93.336 121.808,93.336 C119.36,93.336 117.872,92.544 117.848,90.336 L126.464,90.336 L126.464,88.824 C126.464,85.512 125.264,82.56 120.68,82.56 C116.768,82.56 114.32,84.792 114.32,89.424 C114.32,94.152 116.624,96.288 120.968,96.288 C122.816,96.288 124.424,95.976 126.224,95.448 L126.224,92.544 Z M117.848,87.912 C117.848,86.448 118.76,85.2 120.464,85.2 C122.6,85.2 122.984,86.688 123.008,87.912 L117.848,87.912 Z M140.6,96 L140.6,86.496 C140.6,83.712 139.112,82.56 136.76,82.56 C135.368,82.56 133.784,83.256 132.176,84.24 L132.08,84.24 L132.08,82.848 L128.912,82.848 L128.912,96 L132.296,96 L132.296,86.76 C133.448,86.16 134.744,85.608 135.728,85.608 C136.832,85.608 137.216,86.136 137.216,87.144 L137.216,96 L140.6,96 Z M147.512,85.728 L151.448,85.728 L151.448,82.848 L147.488,82.848 L147.488,79.92 L146.24,79.92 L142.496,83.52 L142.496,85.728 L144.128,85.728 L144.128,93.096 C144.128,95.712 145.688,96.264 147.392,96.264 C148.448,96.264 149.888,96.096 150.944,95.88 L150.944,93 C150.392,93.144 149.72,93.288 149.144,93.288 C148.28,93.288 147.512,92.976 147.512,91.896 L147.512,85.728 Z M153.344,82.848 L153.344,92.376 C153.344,95.136 154.832,96.288 157.184,96.288 C158.576,96.288 160.136,95.616 161.768,94.632 L161.864,94.632 L162.128,96 L165.032,96 L165.032,82.848 L161.648,82.848 L161.648,92.088 C160.52,92.712 159.176,93.24 158.216,93.24 C157.112,93.24 156.728,92.712 156.728,91.704 L156.728,82.848 L153.344,82.848 Z M176.168,82.776 C174.152,82.848 172.688,84.096 171.32,84.984 L171.32,82.848 L168.104,82.848 L168.104,96 L171.488,96 L171.488,87.72 C173.168,87.048 174.512,86.52 176.168,86.256 L176.168,82.776 Z M189.152,92.544 C187.688,93 185.888,93.336 184.736,93.336 C182.288,93.336 180.8,92.544 180.776,90.336 L189.392,90.336 L189.392,88.824 C189.392,85.512 188.192,82.56 183.608,82.56 C179.696,82.56 177.248,84.792 177.248,89.424 C177.248,94.152 179.552,96.288 183.896,96.288 C185.744,96.288 187.352,95.976 189.152,95.448 L189.152,92.544 Z M180.776,87.912 C180.776,86.448 181.688,85.2 183.392,85.2 C185.528,85.2 185.912,86.688 185.936,87.912 L180.776,87.912 Z M196.856,82.56 C193.544,82.56 191.264,83.664 191.264,86.808 C191.264,89.664 193.448,90.336 195.272,90.672 C196.808,90.936 198.056,91.128 198.056,92.04 C198.056,92.928 197.384,93.432 195.752,93.432 C194.624,93.432 192.8,93.216 191.36,93 L191.36,96 C192.56,96.168 194.552,96.288 195.92,96.288 C199.544,96.288 201.512,94.872 201.512,91.896 C201.512,88.8 199.184,88.296 197.192,87.936 C195.776,87.696 194.72,87.48 194.72,86.616 C194.72,85.8 195.464,85.44 197.24,85.44 C198.272,85.44 199.736,85.632 200.696,85.8 L200.816,82.896 C199.64,82.68 198.128,82.56 196.856,82.56 L196.856,82.56 Z" id="Truck-Adventures"></path>
                        <g id="logo-carousel" transform="translate(40.000000, 0.000000)">
                            <g transform="translate(0.000000, -3.000000)">
                                <path d="M14.2867587,49.7387572 L5.12223424,42.2155183 C4.72765835,41.8916075 4.81885692,41.6751155 5.30877322,41.7178842 L53.4225819,45.9181229 C53.9080835,45.9605062 54.3379402,46.3944727 54.3728332,46.8865534 L54.4461525,47.9205428 C54.4807229,48.4080737 54.1107159,48.8908234 53.6189981,48.9886321 L34.9333397,52.7054407 C32.8671237,47.4292757 27.2156319,44.2340434 21.4106751,45.3887211 C18.4746297,45.9727368 16.0006958,47.5697999 14.2867587,49.7387572 Z M81.3913581,43.5418057 L82.1740939,43.3861099 C84.1136884,43.0003005 85.6794846,41.0755736 85.6501658,39.0913352 L85.4852997,27.9335017 C85.4778112,27.4266974 85.1571572,26.7694343 84.768953,26.4555964 L72.0004638,16.1330992 C71.6067905,15.8148398 70.899517,15.6440206 70.4085086,15.7416883 L56.7347098,18.461576 L57.2710245,48.3396384 L58.1795418,48.158923 C58.0752773,42.4984762 62.0722566,37.3901691 67.8730958,36.2363105 C73.6739349,35.0824518 79.3215268,38.2723344 81.3913581,43.5418057 Z M60.1981412,21.787886 C60.1888092,21.5439738 60.3840213,21.305909 60.6236289,21.2582481 L69.4474249,19.5030859 C69.6917473,19.4544872 70.0452303,19.5417891 70.237447,19.6984844 L81.1579553,28.600893 C81.34995,28.7574074 81.3049079,28.924206 81.0603126,28.972859 L77.7900587,29.6233529 C77.5441374,29.6722697 77.1860249,29.5884587 76.9930642,29.4383895 L72.5794576,26.0058444 C72.385211,25.8547751 72.0231233,25.7730107 71.7799969,25.8213716 L60.8865167,27.9882195 C60.6392333,28.0374072 60.431341,27.883094 60.4218735,27.6356395 L60.1981412,21.787886 Z M0.01581453,33.0734226 C0.00106302526,32.575456 0.380324407,32.0939559 0.87011823,31.9965299 L38.6358219,24.4844643 C39.1223923,24.3876795 39.7417506,23.9761322 40.0163777,23.5694234 L46.813415,13.5033573 C47.0893045,13.094779 47.7082592,12.6849304 48.192574,12.5885942 L57.1821092,10.8004644 C57.6679082,10.703833 58.0412785,11.0266364 58.0160026,11.522497 L57.9603931,12.6134395 C57.9351408,13.1088385 57.5222922,13.5884875 57.0261887,13.6871687 L52.2151955,14.6441347 C51.724501,14.7417399 51.3461041,15.2257431 51.3700296,15.7253377 L52.6550129,42.5574189 C52.6789352,43.0569456 52.3057776,43.4252496 51.8087817,43.3788577 L1.06787572,38.6424714 C0.576592856,38.5966128 0.166492543,38.1598602 0.151619442,37.6577889 L0.01581453,33.0734226 Z M25.7136741,67.0213578 C31.2670629,65.9167201 34.8821641,60.5629394 33.7882285,55.0633539 C32.6942929,49.5637684 27.3055718,46.0009593 21.7521829,47.105597 C16.1987941,48.2102347 12.5836929,53.5640154 13.6776285,59.0636009 C14.7715641,64.5631864 20.1602852,68.1259956 25.7136741,67.0213578 Z M24.3476427,60.1538541 C26.0711082,59.8110355 27.1930361,58.1495173 26.8535389,56.4427494 C26.5140416,54.7359815 24.8416799,53.6302821 23.1182144,53.9731007 C21.3947489,54.3159193 20.2728209,55.9774375 20.6123182,57.6842054 C20.9518154,59.3909733 22.6241771,60.4966727 24.3476427,60.1538541 Z M72.1760948,57.8689473 C77.7294836,56.7643096 81.3445848,51.4105288 80.2506492,45.9109433 C79.1567136,40.4113578 73.7679925,36.8485487 68.2146036,37.9531864 C62.6612148,39.0578241 59.0461136,44.4116049 60.1400492,49.9111904 C61.2339848,55.4107759 66.6227059,58.973585 72.1760948,57.8689473 Z M70.8100633,51.0014435 C72.5335288,50.6586249 73.6554568,48.9971068 73.3159595,47.2903389 C72.9764623,45.5835709 71.3041006,44.4778716 69.580635,44.8206902 C67.8571695,45.1635088 66.7352416,46.8250269 67.0747388,48.5317948 C67.4142361,50.2385628 69.0865978,51.3442621 70.8100633,51.0014435 Z" id="logo-truck"></path>
                                <path d="M106.098094,30.0878406 L101.99254,26.5817611 L107.231312,25.4515549 L109.247504,20.4585244 L111.967483,25.134038 L117.319112,25.554255 L113.761379,29.5740876 L115.052675,34.8268265 L110.133897,32.6357059 L105.580333,35.4618601 L106.098094,30.0878406 Z M112.118274,7.29333906 L109.107535,4.72221407 L112.949301,3.89339619 L114.427842,0.231840478 L116.422493,3.66055051 L120.347021,3.96870962 L117.738017,6.91658684 L118.684967,10.7685954 L115.077864,9.16177363 L111.738583,11.2342867 L112.118274,7.29333906 Z M91.2947038,16.2089539 L88.8313718,14.1053062 L91.9746347,13.4271824 L93.1843502,10.4313641 L94.8163373,13.2366723 L98.0273146,13.4888025 L95.8926752,15.9007021 L96.6674528,19.0523454 L93.716186,17.7376731 L90.9840475,19.4333656 L91.2947038,16.2089539 Z" id="logo-stars"></path>
                            </g>
                        </g>
                    </g>
                </g>
            </g>
        </g>
    </g>
</svg>